M48
;DRILL file {KiCad no-vcs-found-undefined} date Mon Oct 24 14:09:30 2016
;FORMAT={-:-/ absolute / metric / decimal}
FMAT,2
METRIC,TZ
T1C0.300
T2C0.650
T3C2.200
%
G90
G05
M71
T1
X44.971Y-96.825
X45.123Y-95.377
X45.225Y-98.349
X45.758Y-102.032
X45.987Y-94.285
X47.638Y-94.539
X47.638Y-105.08
X48.781Y-97.206
X50.178Y-105.588
X50.432Y-100.635
X50.94Y-100.
X51.321Y-102.667
X51.575Y-100.508
X52.083Y-99.746
X52.083Y-105.207
X53.353Y-106.223
X54.496Y-106.35
X55.512Y-106.35
X56.401Y-106.223
X57.036Y-99.873
X57.798Y-97.079
X57.925Y-99.873
X59.068Y-106.223
X59.703Y-97.333
X59.957Y-106.223
X62.116Y-96.317
X63.894Y-102.921
X64.084Y-98.73
X64.91Y-103.937
X65.088Y-93.802
X65.291Y-105.969
X65.774Y-97.562
X65.926Y-98.857
X66.383Y-98.07
X66.383Y-104.013
X66.409Y-93.523
X67.577Y-95.555
X68.72Y-97.777
X68.72Y-102.921
X68.822Y-94.387
X68.847Y-95.936
X68.974Y-105.461
X69.355Y-102.413
X69.418Y-98.285
X69.418Y-104.572
X69.672Y-95.936
X70.117Y-104.191
X70.18Y-98.793
X70.219Y-96.546
X70.219Y-102.438
X70.879Y-104.369
X71.133Y-98.92
X71.323Y-97.46
X71.323Y-100.953
X71.768Y-99.492
X71.831Y-100.254
X71.895Y-95.873
X71.959Y-102.477
X72.149Y-97.396
X72.34Y-96.571
X73.483Y-97.333
X73.609Y-102.413
X74.308Y-97.206
X74.435Y-102.667
X74.816Y-97.904
X74.943Y-104.267
X75.133Y-97.079
X75.832Y-102.286
X75.895Y-95.999
X75.959Y-96.888
X76.467Y-103.683
X76.721Y-96.317
X76.848Y-99.111
X76.975Y-100.
X77.229Y-95.555
X77.61Y-97.333
X77.61Y-101.651
X77.737Y-100.
X77.737Y-103.81
X77.864Y-100.889
X77.864Y-102.54
X77.864Y-105.969
X78.181Y-95.301
X79.439Y-106.452
X80.15Y-97.587
X80.213Y-98.349
X80.277Y-96.317
X80.975Y-99.301
X81.102Y-98.158
X81.166Y-106.096
X81.547Y-100.508
X81.864Y-102.73
X81.928Y-105.588
X82.055Y-99.111
X82.69Y-104.381
X83.007Y-101.968
X84.468Y-93.574
X84.722Y-97.333
X85.103Y-101.778
X85.23Y-104.572
X85.357Y-105.842
X85.484Y-102.477
X87.008Y-97.46
X87.135Y-100.508
X88.024Y-97.46
X88.151Y-100.508
X89.04Y-97.46
X89.167Y-100.508
X90.183Y-100.508
X92.469Y-97.46
X92.723Y-100.
X93.485Y-97.46
X93.866Y-100.
X94.501Y-93.65
X95.009Y-100.
X96.406Y-95.301
X97.549Y-105.842
X97.867Y-94.158
X98.311Y-98.095
X99.327Y-106.35
X100.089Y-105.207
X100.216Y-94.158
X100.343Y-98.73
X100.724Y-97.46
X101.105Y-104.572
X101.232Y-101.524
X101.74Y-97.46
X102.248Y-100.508
X102.756Y-97.46
X103.264Y-100.508
X103.772Y-97.46
X104.28Y-100.508
X105.296Y-100.508
X107.201Y-97.46
X107.455Y-100.
X108.217Y-97.46
X108.598Y-100.
X109.169Y-93.65
X109.741Y-100.
X111.265Y-95.301
X112.154Y-105.842
X112.535Y-94.285
X113.043Y-98.095
X114.186Y-106.35
X115.011Y-94.349
X115.075Y-105.207
X115.202Y-98.73
X115.583Y-97.46
X115.583Y-102.096
X116.091Y-104.572
X116.599Y-97.46
X116.98Y-100.508
X117.615Y-97.46
X117.996Y-100.508
X118.631Y-97.46
X119.012Y-100.508
X120.028Y-100.508
X122.06Y-97.46
X122.187Y-100.
X123.076Y-97.46
X123.33Y-100.
X123.838Y-93.65
X124.473Y-100.
X126.124Y-95.301
X127.076Y-105.842
X127.089Y-95.301
X127.838Y-98.095
X129.045Y-106.35
X129.489Y-102.667
X129.807Y-94.285
X129.998Y-105.207
X130.061Y-98.73
X130.315Y-97.46
X131.077Y-104.572
X131.331Y-97.46
X131.712Y-100.508
X132.347Y-97.46
X132.728Y-100.508
X133.363Y-97.46
X133.744Y-100.508
X134.76Y-100.508
X136.792Y-97.46
X136.919Y-100.
X137.808Y-97.46
X138.062Y-100.
X138.57Y-93.65
X139.205Y-100.
X140.983Y-95.301
X141.745Y-105.842
X142.05Y-95.149
X142.57Y-98.095
X143.777Y-106.35
X144.666Y-94.158
X144.666Y-105.207
X144.793Y-98.73
X144.793Y-103.175
X144.92Y-97.46
X145.936Y-97.46
X146.19Y-104.572
X146.444Y-100.508
X146.952Y-97.46
X147.46Y-100.508
X147.968Y-97.46
X148.476Y-100.508
X149.492Y-100.508
X151.397Y-97.46
X151.524Y-100.
X152.413Y-97.46
X152.667Y-100.
X153.175Y-93.65
X153.81Y-100.
X155.588Y-95.301
X156.35Y-95.936
X156.35Y-105.842
X157.239Y-98.095
X158.509Y-106.35
X159.271Y-105.207
X159.398Y-94.158
X159.398Y-103.556
X159.525Y-98.73
X159.652Y-97.46
X160.668Y-97.46
X160.922Y-104.572
X161.176Y-100.508
X161.684Y-97.46
X162.192Y-100.508
X162.7Y-97.46
X163.208Y-100.508
X164.224Y-100.508
X166.129Y-97.333
X166.256Y-100.
X167.145Y-97.333
X167.399Y-100.
X168.542Y-100.
X170.193Y-95.301
X171.082Y-95.936
X171.082Y-105.842
X171.336Y-97.333
X171.463Y-93.65
X171.59Y-96.571
X172.479Y-96.571
X173.241Y-99.492
X173.241Y-106.35
X173.876Y-105.207
X174.003Y-96.444
X174.13Y-104.191
T2
X47.003Y-98.349
X47.003Y-99.619
X47.003Y-100.889
X47.003Y-102.159
X47.003Y-103.429
X48.273Y-98.349
X48.273Y-99.619
X48.273Y-100.889
X48.273Y-102.159
X48.273Y-103.429
X48.781Y-94.602
X50.051Y-94.602
X51.321Y-94.602
X52.591Y-94.602
X53.861Y-94.602
T3
X39.256Y-94.666
X39.256Y-105.334
X176.289Y-94.666
X176.289Y-100.
X176.289Y-105.334
T0
M30
