G04 #@! TF.GenerationSoftware,KiCad,Pcbnew,no-vcs-found-8f3423b~58~ubuntu16.04.1*
G04 #@! TF.CreationDate,2017-04-01T02:17:13+02:00*
G04 #@! TF.ProjectId,DrChibi,447243686962692E6B696361645F7063,1.0*
G04 #@! TF.FileFunction,Other,Fab,Bot*
%FSLAX46Y46*%
G04 Gerber Fmt 4.6, Leading zero omitted, Abs format (unit mm)*
G04 Created by KiCad (PCBNEW no-vcs-found-8f3423b~58~ubuntu16.04.1) date Sat Apr  1 02:17:13 2017*
%MOMM*%
%LPD*%
G01*
G04 APERTURE LIST*
%ADD10C,0.100000*%
%ADD11C,0.200000*%
%ADD12C,0.150000*%
G04 APERTURE END LIST*
D10*
D11*
X38308000Y-103248000D02*
X34308000Y-103248000D01*
X34308000Y-103248000D02*
X34308000Y-96498000D01*
X34308000Y-96498000D02*
X38308000Y-96498000D01*
X38308000Y-96498000D02*
X38308000Y-103248000D01*
X37708000Y-96498000D02*
X37708000Y-94398000D01*
X37708000Y-94398000D02*
X34708000Y-94398000D01*
X34708000Y-94398000D02*
X34708000Y-96498000D01*
X37708000Y-103248000D02*
X37708000Y-105348000D01*
X37708000Y-105348000D02*
X34708000Y-105348000D01*
X34708000Y-105348000D02*
X34708000Y-103248000D01*
X38308000Y-103248000D02*
X36808000Y-101748000D01*
X36808000Y-101748000D02*
X38308000Y-100248000D01*
D10*
X82609800Y-98290200D02*
X82609800Y-97290200D01*
X82609800Y-97290200D02*
X82109800Y-97290200D01*
X82109800Y-97290200D02*
X82109800Y-98290200D01*
X82109800Y-98290200D02*
X82609800Y-98290200D01*
X79053800Y-98544200D02*
X79053800Y-97544200D01*
X79053800Y-97544200D02*
X78553800Y-97544200D01*
X78553800Y-97544200D02*
X78553800Y-98544200D01*
X78553800Y-98544200D02*
X79053800Y-98544200D01*
X80069800Y-98518800D02*
X80069800Y-97518800D01*
X80069800Y-97518800D02*
X79569800Y-97518800D01*
X79569800Y-97518800D02*
X79569800Y-98518800D01*
X79569800Y-98518800D02*
X80069800Y-98518800D01*
D12*
X83082180Y-96956866D02*
X83796466Y-96956866D01*
X83939323Y-96909247D01*
X84034561Y-96814009D01*
X84082180Y-96671152D01*
X84082180Y-96575914D01*
X84082180Y-97433057D02*
X83082180Y-97433057D01*
X83082180Y-97814009D01*
X83129800Y-97909247D01*
X83177419Y-97956866D01*
X83272657Y-98004485D01*
X83415514Y-98004485D01*
X83510752Y-97956866D01*
X83558371Y-97909247D01*
X83605990Y-97814009D01*
X83605990Y-97433057D01*
X83082180Y-98909247D02*
X83082180Y-98433057D01*
X83558371Y-98385438D01*
X83510752Y-98433057D01*
X83463133Y-98528295D01*
X83463133Y-98766390D01*
X83510752Y-98861628D01*
X83558371Y-98909247D01*
X83653609Y-98956866D01*
X83891704Y-98956866D01*
X83986942Y-98909247D01*
X84034561Y-98861628D01*
X84082180Y-98766390D01*
X84082180Y-98528295D01*
X84034561Y-98433057D01*
X83986942Y-98385438D01*
X79526180Y-97210866D02*
X80240466Y-97210866D01*
X80383323Y-97163247D01*
X80478561Y-97068009D01*
X80526180Y-96925152D01*
X80526180Y-96829914D01*
X80526180Y-97687057D02*
X79526180Y-97687057D01*
X79526180Y-98068009D01*
X79573800Y-98163247D01*
X79621419Y-98210866D01*
X79716657Y-98258485D01*
X79859514Y-98258485D01*
X79954752Y-98210866D01*
X80002371Y-98163247D01*
X80049990Y-98068009D01*
X80049990Y-97687057D01*
X79859514Y-99115628D02*
X80526180Y-99115628D01*
X79478561Y-98877533D02*
X80192847Y-98639438D01*
X80192847Y-99258485D01*
X80542180Y-96709276D02*
X81256466Y-96709276D01*
X81399323Y-96661657D01*
X81494561Y-96566419D01*
X81542180Y-96423561D01*
X81542180Y-96328323D01*
X81542180Y-97185466D02*
X80542180Y-97185466D01*
X80542180Y-97566419D01*
X80589800Y-97661657D01*
X80637419Y-97709276D01*
X80732657Y-97756895D01*
X80875514Y-97756895D01*
X80970752Y-97709276D01*
X81018371Y-97661657D01*
X81065990Y-97566419D01*
X81065990Y-97185466D01*
X81542180Y-98709276D02*
X81542180Y-98137847D01*
X81542180Y-98423561D02*
X80542180Y-98423561D01*
X80685038Y-98328323D01*
X80780276Y-98233085D01*
X80827895Y-98137847D01*
X80637419Y-99090228D02*
X80589800Y-99137847D01*
X80542180Y-99233085D01*
X80542180Y-99471180D01*
X80589800Y-99566419D01*
X80637419Y-99614038D01*
X80732657Y-99661657D01*
X80827895Y-99661657D01*
X80970752Y-99614038D01*
X81542180Y-99042609D01*
X81542180Y-99661657D01*
M02*
