G04 #@! TF.GenerationSoftware,KiCad,Pcbnew,no-vcs-found-8f3423b~58~ubuntu16.04.1*
G04 #@! TF.CreationDate,2017-04-01T02:17:13+02:00*
G04 #@! TF.ProjectId,DrChibi,447243686962692E6B696361645F7063,1.0*
G04 #@! TF.FileFunction,Other,Fab,Top*
%FSLAX46Y46*%
G04 Gerber Fmt 4.6, Leading zero omitted, Abs format (unit mm)*
G04 Created by KiCad (PCBNEW no-vcs-found-8f3423b~58~ubuntu16.04.1) date Sat Apr  1 02:17:13 2017*
%MOMM*%
%LPD*%
G01*
G04 APERTURE LIST*
%ADD10C,0.100000*%
%ADD11C,0.150000*%
G04 APERTURE END LIST*
D10*
X82508200Y-98264800D02*
X82008200Y-98264800D01*
X82508200Y-97264800D02*
X82508200Y-98264800D01*
X82008200Y-97264800D02*
X82508200Y-97264800D01*
X82008200Y-98264800D02*
X82008200Y-97264800D01*
X82317000Y-95855800D02*
X82317000Y-95355800D01*
X83317000Y-95855800D02*
X82317000Y-95855800D01*
X83317000Y-95355800D02*
X83317000Y-95855800D01*
X82317000Y-95355800D02*
X83317000Y-95355800D01*
X83113800Y-94466800D02*
X83113800Y-94966800D01*
X82113800Y-94466800D02*
X83113800Y-94466800D01*
X82113800Y-94966800D02*
X82113800Y-94466800D01*
X83113800Y-94966800D02*
X82113800Y-94966800D01*
X80077800Y-95410600D02*
X80577800Y-95410600D01*
X80077800Y-96410600D02*
X80077800Y-95410600D01*
X80577800Y-96410600D02*
X80077800Y-96410600D01*
X80577800Y-95410600D02*
X80577800Y-96410600D01*
X83155200Y-98327600D02*
X84155200Y-98327600D01*
X84155200Y-98327600D02*
X84155200Y-98827600D01*
X84155200Y-98827600D02*
X83155200Y-98827600D01*
X83155200Y-98827600D02*
X83155200Y-98327600D01*
X83155200Y-99691200D02*
X83155200Y-99191200D01*
X84155200Y-99691200D02*
X83155200Y-99691200D01*
X84155200Y-99191200D02*
X84155200Y-99691200D01*
X83155200Y-99191200D02*
X84155200Y-99191200D01*
X83113800Y-94128600D02*
X82113800Y-94128600D01*
X82113800Y-94128600D02*
X82113800Y-93628600D01*
X82113800Y-93628600D02*
X83113800Y-93628600D01*
X83113800Y-93628600D02*
X83113800Y-94128600D01*
X84552200Y-96651200D02*
X85552200Y-96651200D01*
X85552200Y-96651200D02*
X85552200Y-97151200D01*
X85552200Y-97151200D02*
X84552200Y-97151200D01*
X84552200Y-97151200D02*
X84552200Y-96651200D01*
X85327600Y-98738000D02*
X85327600Y-99738000D01*
X85327600Y-99738000D02*
X84827600Y-99738000D01*
X84827600Y-99738000D02*
X84827600Y-98738000D01*
X84827600Y-98738000D02*
X85327600Y-98738000D01*
X84552200Y-97489400D02*
X85552200Y-97489400D01*
X85552200Y-97489400D02*
X85552200Y-97989400D01*
X85552200Y-97989400D02*
X84552200Y-97989400D01*
X84552200Y-97989400D02*
X84552200Y-97489400D01*
X82850400Y-100029400D02*
X83850400Y-100029400D01*
X83850400Y-100029400D02*
X83850400Y-100529400D01*
X83850400Y-100529400D02*
X82850400Y-100529400D01*
X82850400Y-100529400D02*
X82850400Y-100029400D01*
X81174000Y-101367600D02*
X81174000Y-100867600D01*
X82174000Y-101367600D02*
X81174000Y-101367600D01*
X82174000Y-100867600D02*
X82174000Y-101367600D01*
X81174000Y-100867600D02*
X82174000Y-100867600D01*
X83206000Y-101121600D02*
X84206000Y-101121600D01*
X84206000Y-101121600D02*
X84206000Y-101621600D01*
X84206000Y-101621600D02*
X83206000Y-101621600D01*
X83206000Y-101621600D02*
X83206000Y-101121600D01*
X82821000Y-98264800D02*
X82821000Y-97264800D01*
X82821000Y-97264800D02*
X83321000Y-97264800D01*
X83321000Y-97264800D02*
X83321000Y-98264800D01*
X83321000Y-98264800D02*
X82821000Y-98264800D01*
D11*
X80440580Y-98598133D02*
X81154866Y-98598133D01*
X81297723Y-98645752D01*
X81392961Y-98740990D01*
X81440580Y-98883847D01*
X81440580Y-98979085D01*
X81440580Y-98121942D02*
X80440580Y-98121942D01*
X80440580Y-97740990D01*
X80488200Y-97645752D01*
X80535819Y-97598133D01*
X80631057Y-97550514D01*
X80773914Y-97550514D01*
X80869152Y-97598133D01*
X80916771Y-97645752D01*
X80964390Y-97740990D01*
X80964390Y-98121942D01*
X80535819Y-97169561D02*
X80488200Y-97121942D01*
X80440580Y-97026704D01*
X80440580Y-96788609D01*
X80488200Y-96693371D01*
X80535819Y-96645752D01*
X80631057Y-96598133D01*
X80726295Y-96598133D01*
X80869152Y-96645752D01*
X81440580Y-97217180D01*
X81440580Y-96598133D01*
X81983666Y-93788180D02*
X81983666Y-94502466D01*
X81936047Y-94645323D01*
X81840809Y-94740561D01*
X81697952Y-94788180D01*
X81602714Y-94788180D01*
X82459857Y-94788180D02*
X82459857Y-93788180D01*
X82840809Y-93788180D01*
X82936047Y-93835800D01*
X82983666Y-93883419D01*
X83031285Y-93978657D01*
X83031285Y-94121514D01*
X82983666Y-94216752D01*
X82936047Y-94264371D01*
X82840809Y-94311990D01*
X82459857Y-94311990D01*
X83888428Y-93788180D02*
X83697952Y-93788180D01*
X83602714Y-93835800D01*
X83555095Y-93883419D01*
X83459857Y-94026276D01*
X83412238Y-94216752D01*
X83412238Y-94597704D01*
X83459857Y-94692942D01*
X83507476Y-94740561D01*
X83602714Y-94788180D01*
X83793190Y-94788180D01*
X83888428Y-94740561D01*
X83936047Y-94692942D01*
X83983666Y-94597704D01*
X83983666Y-94359609D01*
X83936047Y-94264371D01*
X83888428Y-94216752D01*
X83793190Y-94169133D01*
X83602714Y-94169133D01*
X83507476Y-94216752D01*
X83459857Y-94264371D01*
X83412238Y-94359609D01*
X81780466Y-95439180D02*
X81780466Y-96153466D01*
X81732847Y-96296323D01*
X81637609Y-96391561D01*
X81494752Y-96439180D01*
X81399514Y-96439180D01*
X82256657Y-96439180D02*
X82256657Y-95439180D01*
X82637609Y-95439180D01*
X82732847Y-95486800D01*
X82780466Y-95534419D01*
X82828085Y-95629657D01*
X82828085Y-95772514D01*
X82780466Y-95867752D01*
X82732847Y-95915371D01*
X82637609Y-95962990D01*
X82256657Y-95962990D01*
X83399514Y-95867752D02*
X83304276Y-95820133D01*
X83256657Y-95772514D01*
X83209038Y-95677276D01*
X83209038Y-95629657D01*
X83256657Y-95534419D01*
X83304276Y-95486800D01*
X83399514Y-95439180D01*
X83589990Y-95439180D01*
X83685228Y-95486800D01*
X83732847Y-95534419D01*
X83780466Y-95629657D01*
X83780466Y-95677276D01*
X83732847Y-95772514D01*
X83685228Y-95820133D01*
X83589990Y-95867752D01*
X83399514Y-95867752D01*
X83304276Y-95915371D01*
X83256657Y-95962990D01*
X83209038Y-96058228D01*
X83209038Y-96248704D01*
X83256657Y-96343942D01*
X83304276Y-96391561D01*
X83399514Y-96439180D01*
X83589990Y-96439180D01*
X83685228Y-96391561D01*
X83732847Y-96343942D01*
X83780466Y-96248704D01*
X83780466Y-96058228D01*
X83732847Y-95962990D01*
X83685228Y-95915371D01*
X83589990Y-95867752D01*
X81050180Y-97220123D02*
X81764466Y-97220123D01*
X81907323Y-97267742D01*
X82002561Y-97362980D01*
X82050180Y-97505838D01*
X82050180Y-97601076D01*
X82050180Y-96743933D02*
X81050180Y-96743933D01*
X81050180Y-96362980D01*
X81097800Y-96267742D01*
X81145419Y-96220123D01*
X81240657Y-96172504D01*
X81383514Y-96172504D01*
X81478752Y-96220123D01*
X81526371Y-96267742D01*
X81573990Y-96362980D01*
X81573990Y-96743933D01*
X82050180Y-95220123D02*
X82050180Y-95791552D01*
X82050180Y-95505838D02*
X81050180Y-95505838D01*
X81193038Y-95601076D01*
X81288276Y-95696314D01*
X81335895Y-95791552D01*
X81050180Y-94601076D02*
X81050180Y-94505838D01*
X81097800Y-94410600D01*
X81145419Y-94362980D01*
X81240657Y-94315361D01*
X81431133Y-94267742D01*
X81669228Y-94267742D01*
X81859704Y-94315361D01*
X81954942Y-94362980D01*
X82002561Y-94410600D01*
X82050180Y-94505838D01*
X82050180Y-94601076D01*
X82002561Y-94696314D01*
X81954942Y-94743933D01*
X81859704Y-94791552D01*
X81669228Y-94839171D01*
X81431133Y-94839171D01*
X81240657Y-94791552D01*
X81145419Y-94743933D01*
X81097800Y-94696314D01*
X81050180Y-94601076D01*
X81780466Y-94600980D02*
X81780466Y-95315266D01*
X81732847Y-95458123D01*
X81637609Y-95553361D01*
X81494752Y-95600980D01*
X81399514Y-95600980D01*
X82256657Y-95600980D02*
X82256657Y-94600980D01*
X82637609Y-94600980D01*
X82732847Y-94648600D01*
X82780466Y-94696219D01*
X82828085Y-94791457D01*
X82828085Y-94934314D01*
X82780466Y-95029552D01*
X82732847Y-95077171D01*
X82637609Y-95124790D01*
X82256657Y-95124790D01*
X83304276Y-95600980D02*
X83494752Y-95600980D01*
X83589990Y-95553361D01*
X83637609Y-95505742D01*
X83732847Y-95362885D01*
X83780466Y-95172409D01*
X83780466Y-94791457D01*
X83732847Y-94696219D01*
X83685228Y-94648600D01*
X83589990Y-94600980D01*
X83399514Y-94600980D01*
X83304276Y-94648600D01*
X83256657Y-94696219D01*
X83209038Y-94791457D01*
X83209038Y-95029552D01*
X83256657Y-95124790D01*
X83304276Y-95172409D01*
X83399514Y-95220028D01*
X83589990Y-95220028D01*
X83685228Y-95172409D01*
X83732847Y-95124790D01*
X83780466Y-95029552D01*
X83385533Y-96826542D02*
X83337914Y-96874161D01*
X83195057Y-96921780D01*
X83099819Y-96921780D01*
X82956961Y-96874161D01*
X82861723Y-96778923D01*
X82814104Y-96683685D01*
X82766485Y-96493209D01*
X82766485Y-96350352D01*
X82814104Y-96159876D01*
X82861723Y-96064638D01*
X82956961Y-95969400D01*
X83099819Y-95921780D01*
X83195057Y-95921780D01*
X83337914Y-95969400D01*
X83385533Y-96017019D01*
X84242676Y-96874161D02*
X84147438Y-96921780D01*
X83956961Y-96921780D01*
X83861723Y-96874161D01*
X83814104Y-96826542D01*
X83766485Y-96731304D01*
X83766485Y-96445590D01*
X83814104Y-96350352D01*
X83861723Y-96302733D01*
X83956961Y-96255114D01*
X84147438Y-96255114D01*
X84242676Y-96302733D01*
X84528390Y-96255114D02*
X84909342Y-96255114D01*
X84671247Y-96921780D02*
X84671247Y-96064638D01*
X84718866Y-95969400D01*
X84814104Y-95921780D01*
X84909342Y-95921780D01*
X85242676Y-96921780D02*
X85242676Y-96255114D01*
X85242676Y-95921780D02*
X85195057Y-95969400D01*
X85242676Y-96017019D01*
X85290295Y-95969400D01*
X85242676Y-95921780D01*
X85242676Y-96017019D01*
X85861723Y-96921780D02*
X85766485Y-96874161D01*
X85718866Y-96778923D01*
X85718866Y-95921780D01*
X86099819Y-96255114D02*
X86480771Y-96255114D01*
X86242676Y-95921780D02*
X86242676Y-96778923D01*
X86290295Y-96874161D01*
X86385533Y-96921780D01*
X86480771Y-96921780D01*
X86718866Y-95921780D02*
X87337914Y-95921780D01*
X87004580Y-96302733D01*
X87147438Y-96302733D01*
X87242676Y-96350352D01*
X87290295Y-96397971D01*
X87337914Y-96493209D01*
X87337914Y-96731304D01*
X87290295Y-96826542D01*
X87242676Y-96874161D01*
X87147438Y-96921780D01*
X86861723Y-96921780D01*
X86766485Y-96874161D01*
X86718866Y-96826542D01*
X81253380Y-99074323D02*
X81967666Y-99074323D01*
X82110523Y-99121942D01*
X82205761Y-99217180D01*
X82253380Y-99360038D01*
X82253380Y-99455276D01*
X82253380Y-98598133D02*
X81253380Y-98598133D01*
X81253380Y-98217180D01*
X81301000Y-98121942D01*
X81348619Y-98074323D01*
X81443857Y-98026704D01*
X81586714Y-98026704D01*
X81681952Y-98074323D01*
X81729571Y-98121942D01*
X81777190Y-98217180D01*
X81777190Y-98598133D01*
X82253380Y-97074323D02*
X82253380Y-97645752D01*
X82253380Y-97360038D02*
X81253380Y-97360038D01*
X81396238Y-97455276D01*
X81491476Y-97550514D01*
X81539095Y-97645752D01*
X81253380Y-96740990D02*
X81253380Y-96121942D01*
X81634333Y-96455276D01*
X81634333Y-96312419D01*
X81681952Y-96217180D01*
X81729571Y-96169561D01*
X81824809Y-96121942D01*
X82062904Y-96121942D01*
X82158142Y-96169561D01*
X82205761Y-96217180D01*
X82253380Y-96312419D01*
X82253380Y-96598133D01*
X82205761Y-96693371D01*
X82158142Y-96740990D01*
M02*
