G04 #@! TF.GenerationSoftware,KiCad,Pcbnew,no-vcs-found-8f3423b~58~ubuntu16.04.1*
G04 #@! TF.CreationDate,2017-03-30T22:47:00+02:00*
G04 #@! TF.ProjectId,DrChibi,447243686962692E6B696361645F7063,1.0*
G04 #@! TF.FileFunction,Copper,L3,Inr,Mixed*
G04 #@! TF.FilePolarity,Positive*
%FSLAX46Y46*%
G04 Gerber Fmt 4.6, Leading zero omitted, Abs format (unit mm)*
G04 Created by KiCad (PCBNEW no-vcs-found-8f3423b~58~ubuntu16.04.1) date Thu Mar 30 22:47:00 2017*
%MOMM*%
%LPD*%
G01*
G04 APERTURE LIST*
%ADD10C,0.100000*%
%ADD11C,0.250000*%
%ADD12C,0.600000*%
%ADD13C,2.500000*%
%ADD14C,1.050000*%
%ADD15R,1.050000X1.050000*%
%ADD16C,0.300000*%
%ADD17C,0.254000*%
G04 APERTURE END LIST*
D10*
D11*
X34850952Y-106675380D02*
X34850952Y-105675380D01*
X35327142Y-106008714D02*
X35327142Y-106675380D01*
X35327142Y-106103952D02*
X35374761Y-106056333D01*
X35470000Y-106008714D01*
X35612857Y-106008714D01*
X35708095Y-106056333D01*
X35755714Y-106151571D01*
X35755714Y-106675380D01*
X36184285Y-105770619D02*
X36231904Y-105723000D01*
X36327142Y-105675380D01*
X36565238Y-105675380D01*
X36660476Y-105723000D01*
X36708095Y-105770619D01*
X36755714Y-105865857D01*
X36755714Y-105961095D01*
X36708095Y-106103952D01*
X36136666Y-106675380D01*
X36755714Y-106675380D01*
X37184285Y-106580142D02*
X37231904Y-106627761D01*
X37184285Y-106675380D01*
X37136666Y-106627761D01*
X37184285Y-106580142D01*
X37184285Y-106675380D01*
X38231904Y-106580142D02*
X38184285Y-106627761D01*
X38041428Y-106675380D01*
X37946190Y-106675380D01*
X37803333Y-106627761D01*
X37708095Y-106532523D01*
X37660476Y-106437285D01*
X37612857Y-106246809D01*
X37612857Y-106103952D01*
X37660476Y-105913476D01*
X37708095Y-105818238D01*
X37803333Y-105723000D01*
X37946190Y-105675380D01*
X38041428Y-105675380D01*
X38184285Y-105723000D01*
X38231904Y-105770619D01*
X39089047Y-106008714D02*
X39089047Y-106675380D01*
X38660476Y-106008714D02*
X38660476Y-106532523D01*
X38708095Y-106627761D01*
X38803333Y-106675380D01*
X38946190Y-106675380D01*
X39041428Y-106627761D01*
X39089047Y-106580142D01*
D12*
X52083000Y-99746000D03*
X54496000Y-106350000D03*
X56401000Y-106223000D03*
D13*
X176289000Y-94666000D03*
X176289000Y-100000000D03*
X176289000Y-105334000D03*
X39256000Y-105334000D03*
D12*
X89167000Y-100508000D03*
X64910000Y-103937000D03*
X167145000Y-97333000D03*
X166129000Y-97333000D03*
X168542000Y-100000000D03*
X167399000Y-100000000D03*
X166256000Y-100000000D03*
X153810000Y-100000000D03*
X152667000Y-100000000D03*
X151524000Y-100000000D03*
X139205000Y-100000000D03*
X138062000Y-100000000D03*
X136919000Y-100000000D03*
X124473000Y-100000000D03*
X123330000Y-100000000D03*
X122187000Y-100000000D03*
X152413000Y-97460000D03*
X151397000Y-97460000D03*
X137808000Y-97460000D03*
X136792000Y-97460000D03*
X123076000Y-97460000D03*
X122060000Y-97460000D03*
X108217000Y-97460000D03*
X107201000Y-97460000D03*
X108598000Y-100000000D03*
X107455000Y-100000000D03*
X95009000Y-100000000D03*
X93866000Y-100000000D03*
X92723000Y-100000000D03*
X92469000Y-97460000D03*
X102248000Y-100508000D03*
X59068000Y-106223000D03*
X55512000Y-106350000D03*
X164224000Y-100508000D03*
X148476000Y-100508000D03*
X149492000Y-100508000D03*
X163208000Y-100508000D03*
X162192000Y-100508000D03*
X133744000Y-100508000D03*
X131712000Y-100508000D03*
X147460000Y-100508000D03*
X132728000Y-100508000D03*
X162700000Y-97460000D03*
X145936000Y-97460000D03*
X144920000Y-97460000D03*
X146952000Y-97460000D03*
X133363000Y-97460000D03*
X132347000Y-97460000D03*
X131331000Y-97460000D03*
X130315000Y-97460000D03*
X147968000Y-97460000D03*
X159652000Y-97460000D03*
X160668000Y-97460000D03*
X161684000Y-97460000D03*
X161176000Y-100508000D03*
X146444000Y-100508000D03*
X134760000Y-100508000D03*
X116599000Y-97460000D03*
X117615000Y-97460000D03*
X118631000Y-97460000D03*
X115583000Y-97460000D03*
X119012000Y-100508000D03*
X117996000Y-100508000D03*
X116980000Y-100508000D03*
X120028000Y-100508000D03*
X103772000Y-97460000D03*
X100724000Y-97460000D03*
X102756000Y-97460000D03*
X101740000Y-97460000D03*
X103264000Y-100508000D03*
X109741000Y-100000000D03*
X104280000Y-100508000D03*
X105296000Y-100508000D03*
X93485000Y-97460000D03*
X89040000Y-97460000D03*
X87008000Y-97460000D03*
X88024000Y-97460000D03*
X88151000Y-100508000D03*
X87135000Y-100508000D03*
X90183000Y-100508000D03*
D14*
X53861000Y-94602500D03*
X52591000Y-94602500D03*
X51321000Y-94602500D03*
X50051000Y-94602500D03*
D15*
X48781000Y-94602500D03*
D14*
X48273000Y-98349000D03*
X48273000Y-103429000D03*
X48273000Y-102159000D03*
X48273000Y-100889000D03*
X48273000Y-99619000D03*
X47003000Y-103429000D03*
X47003000Y-102159000D03*
X47003000Y-100889000D03*
X47003000Y-99619000D03*
D15*
X47003000Y-98349000D03*
D13*
X39256000Y-94666000D03*
D12*
X86627000Y-93523000D03*
X50178000Y-105588000D03*
X173241000Y-99492000D03*
X59957000Y-106223000D03*
X65291000Y-105969000D03*
X81166000Y-106096000D03*
X59703000Y-97333000D03*
X66408600Y-93523000D03*
X57798000Y-97079000D03*
X171463000Y-93650000D03*
X153175000Y-93650000D03*
X138570000Y-93650000D03*
X171082000Y-105842000D03*
X156350000Y-105842000D03*
X141745000Y-105842000D03*
X123838000Y-93650000D03*
X127076500Y-105842000D03*
X109169500Y-93650000D03*
X85357000Y-105842000D03*
X63894000Y-102921000D03*
X75832000Y-102286000D03*
X112154000Y-105842000D03*
X97549000Y-105842000D03*
X94501000Y-93650000D03*
X81928000Y-105588000D03*
X100089000Y-105207000D03*
X48781000Y-97206000D03*
X67577000Y-95555000D03*
X68974000Y-105461000D03*
X66383200Y-104013200D03*
X62116000Y-96317000D03*
X64084500Y-98730000D03*
X173876000Y-105207000D03*
X159271000Y-105207000D03*
X144666000Y-105207000D03*
X129997500Y-105207000D03*
X115075000Y-105207000D03*
X50432000Y-100635000D03*
X47638000Y-105080000D03*
X172479000Y-96571000D03*
X57036000Y-99873000D03*
X57925000Y-99873000D03*
X76975000Y-100000000D03*
X159525000Y-98730000D03*
X144793000Y-98730000D03*
X130061000Y-98730000D03*
X115202000Y-98730000D03*
X100343000Y-98730000D03*
X70218600Y-102438400D03*
X51321000Y-102667000D03*
X65926000Y-98857000D03*
X70218600Y-96545600D03*
X45123400Y-95377200D03*
X75133500Y-97079000D03*
X65087800Y-93802400D03*
X75959000Y-96888500D03*
X45987000Y-94285000D03*
X45225000Y-98349000D03*
X72149000Y-97396500D03*
X71323500Y-97460000D03*
X45758400Y-102032000D03*
X50940000Y-100000000D03*
X69355000Y-102413000D03*
X68720000Y-102921000D03*
X51575000Y-100508000D03*
X52083000Y-105207000D03*
X70117000Y-104191000D03*
X53353000Y-106223000D03*
X69418500Y-104572000D03*
X83833000Y-97053600D03*
X101232000Y-101524000D03*
X84772800Y-100558800D03*
X115583000Y-102095500D03*
X83807600Y-97815600D03*
X74435000Y-102667000D03*
X129489500Y-102667000D03*
X79438800Y-106451600D03*
X70879000Y-104368800D03*
X173241000Y-106350000D03*
X158509000Y-106350000D03*
X143777000Y-106350000D03*
X129045000Y-106350000D03*
X114186000Y-106350000D03*
X99327000Y-106350000D03*
X75705000Y-97612400D03*
X170193000Y-95301000D03*
X155588000Y-95301000D03*
X140983000Y-95301000D03*
X126124000Y-95301000D03*
X111265000Y-95301000D03*
X96406000Y-95301000D03*
X77229000Y-95555000D03*
X129807000Y-94285000D03*
X76721000Y-96317000D03*
X115011500Y-94348500D03*
X100216000Y-94158000D03*
X75895500Y-95999500D03*
X77229000Y-97917200D03*
X174003000Y-96444000D03*
X171336000Y-97333000D03*
X157239000Y-98095000D03*
X142570500Y-98095000D03*
X127838500Y-98095000D03*
X113043000Y-98095000D03*
X98311000Y-98095000D03*
X74816000Y-97904500D03*
X127089200Y-95301000D03*
X112535000Y-94285000D03*
X72339500Y-96571000D03*
X97866500Y-94158000D03*
X71895000Y-95872500D03*
X77864000Y-105969000D03*
X85230000Y-104572000D03*
X101105000Y-104572000D03*
X74943000Y-104267200D03*
X76467000Y-103683000D03*
X116091000Y-104572000D03*
X82690000Y-104381500D03*
X73609500Y-102413000D03*
X82131200Y-99898400D03*
X144793000Y-103175000D03*
X144666000Y-94158000D03*
X69418500Y-98285500D03*
X142049800Y-95148600D03*
X71958500Y-102476500D03*
X68821600Y-94386600D03*
X69672500Y-95936000D03*
X159398000Y-103556000D03*
X81547000Y-100508000D03*
X83007500Y-101968500D03*
X174130000Y-104191000D03*
X159398000Y-94158000D03*
X71133000Y-98920500D03*
X71768000Y-99492000D03*
X171590000Y-96571000D03*
X77864000Y-100889000D03*
X171082000Y-95936000D03*
X82283600Y-96393200D03*
X156350000Y-95936000D03*
X77737000Y-103810000D03*
X131077000Y-104572000D03*
X85484000Y-102476500D03*
X77864000Y-102540000D03*
X146190000Y-104572000D03*
X85103000Y-101778000D03*
X77610000Y-101651000D03*
X81864500Y-102730500D03*
X160922000Y-104572000D03*
X74308000Y-97206000D03*
X47638000Y-94539000D03*
X73482500Y-97333000D03*
X68847000Y-95936000D03*
X65773600Y-97561600D03*
X68720000Y-97777500D03*
X66383200Y-98069600D03*
X70180500Y-98793500D03*
X71831500Y-100254000D03*
X71323500Y-100952500D03*
X44971000Y-96825000D03*
X80658000Y-97663200D03*
X81470800Y-97764800D03*
X77940200Y-97451300D03*
D11*
X79388000Y-105207000D02*
X81547000Y-105207000D01*
X81547000Y-105207000D02*
X81928000Y-105588000D01*
X79388000Y-105207000D02*
X79388000Y-105207000D01*
X79388000Y-105207000D02*
X72911000Y-105207000D01*
X72911000Y-105207000D02*
X70879000Y-103175000D01*
X69243631Y-103557953D02*
X68720000Y-103556000D01*
X69497631Y-103176953D02*
X69243631Y-103557953D01*
X70879000Y-103175000D02*
X69497631Y-103176953D01*
X68720000Y-103556000D02*
X68275500Y-104000500D01*
X66383200Y-104013200D02*
X68275500Y-104000500D01*
D16*
X58219150Y-100065719D02*
X57228719Y-100065719D01*
X57228719Y-100065719D02*
X57036000Y-99873000D01*
X57925000Y-99873000D02*
X57036000Y-99873000D01*
X72466500Y-101841500D02*
X72974500Y-101841500D01*
X72974500Y-101841500D02*
X73228500Y-101587500D01*
X73228500Y-101587500D02*
X73228500Y-101651000D01*
X73228500Y-101651000D02*
X73228500Y-101587500D01*
X70117000Y-101524000D02*
X70498000Y-101524000D01*
X70498000Y-101524000D02*
X70815500Y-101841500D01*
X57925000Y-99873000D02*
X58433000Y-99873000D01*
X58433000Y-99873000D02*
X59817300Y-100825500D01*
X59817300Y-100825500D02*
X67005500Y-100825500D01*
X67005500Y-100825500D02*
X67704000Y-101524000D01*
X67704000Y-101524000D02*
X70117000Y-101524000D01*
X71704500Y-101587500D02*
X72720500Y-101587500D01*
X70815500Y-101587500D02*
X71704500Y-101587500D01*
X70752000Y-101524000D02*
X70815500Y-101587500D01*
X70117000Y-101524000D02*
X70752000Y-101524000D01*
X72720500Y-101587500D02*
X72974500Y-101333500D01*
X76657500Y-100000000D02*
X76975000Y-100000000D01*
X75324000Y-101333500D02*
X76657500Y-100000000D01*
X72974500Y-101333500D02*
X75324000Y-101333500D01*
X71006000Y-101841500D02*
X70815500Y-101841500D01*
X72720500Y-101587500D02*
X72466500Y-101841500D01*
X72466500Y-101841500D02*
X71006000Y-101841500D01*
X70815500Y-101841500D02*
X70510700Y-101841500D01*
X67577000Y-101778000D02*
X66878500Y-101079500D01*
X70447200Y-101778000D02*
X67577000Y-101778000D01*
X70510700Y-101841500D02*
X70447200Y-101778000D01*
X75324000Y-101587500D02*
X73228500Y-101587500D01*
X75800250Y-101111250D02*
X75324000Y-101587500D01*
X73228500Y-101587500D02*
X72720500Y-101587500D01*
X76975000Y-100000000D02*
X76911500Y-100000000D01*
X76911500Y-100000000D02*
X75800250Y-101111250D01*
X75800250Y-101111250D02*
X75768500Y-101143000D01*
X66878500Y-101079500D02*
X59766500Y-101079500D01*
X59766500Y-101079500D02*
X58219150Y-100065719D01*
X58219150Y-100065719D02*
X57925000Y-99873000D01*
X66878500Y-101079500D02*
X66815000Y-101079500D01*
D11*
X70218600Y-96545600D02*
X70218600Y-96571000D01*
X65545000Y-94234200D02*
X65519600Y-94234200D01*
X68135800Y-93345200D02*
X67577000Y-93904000D01*
X67577000Y-93904000D02*
X66897598Y-93904000D01*
X66897598Y-93904000D02*
X66567398Y-94234200D01*
X66567398Y-94234200D02*
X65545000Y-94234200D01*
X75133500Y-97079000D02*
X75133500Y-96698000D01*
X75133500Y-96698000D02*
X71780700Y-93345200D01*
X71780700Y-93345200D02*
X68135800Y-93345200D01*
X65519600Y-94234200D02*
X65087800Y-93802400D01*
X45225000Y-98349000D02*
X45606000Y-97968000D01*
X45606000Y-97968000D02*
X45606000Y-96825000D01*
X66688000Y-95682000D02*
X67577000Y-96571000D01*
X67577000Y-96571000D02*
X67596002Y-96571000D01*
X67596002Y-96571000D02*
X67704000Y-96678998D01*
X68948600Y-96678998D02*
X67704000Y-96678998D01*
X64402000Y-95682000D02*
X66688000Y-95682000D01*
X63894000Y-95047000D02*
X64402000Y-95682000D01*
X61735000Y-95047000D02*
X63894000Y-95047000D01*
X60846000Y-95936000D02*
X61735000Y-95047000D01*
X59703000Y-95936000D02*
X60846000Y-95936000D01*
X46495000Y-95936000D02*
X59703000Y-95936000D01*
X45606000Y-96825000D02*
X46495000Y-95936000D01*
X68948600Y-96678998D02*
X69310598Y-96678998D01*
X69310598Y-96678998D02*
X69786800Y-97155200D01*
X69786800Y-97155200D02*
X70675800Y-97155200D01*
X70675800Y-97155200D02*
X71006000Y-96825000D01*
X71006000Y-96825000D02*
X71577500Y-96825000D01*
X71577500Y-96825000D02*
X72149000Y-97396500D01*
X68948600Y-96678998D02*
X68974000Y-96678998D01*
X71196500Y-97587000D02*
X71323500Y-97460000D01*
X69609000Y-97587000D02*
X71196500Y-97587000D01*
X69101000Y-97079000D02*
X69609000Y-97587000D01*
X67450000Y-97079000D02*
X69101000Y-97079000D01*
X66561000Y-96190000D02*
X67450000Y-97079000D01*
X61862000Y-95555000D02*
X63640000Y-95555000D01*
X63640000Y-95555000D02*
X64148000Y-96190000D01*
X64148000Y-96190000D02*
X66561000Y-96190000D01*
X60973000Y-96444000D02*
X61862000Y-95555000D01*
X46622000Y-96444000D02*
X60973000Y-96444000D01*
X46114000Y-96952000D02*
X46622000Y-96444000D01*
X46108500Y-101402500D02*
X46114000Y-96952000D01*
X46108500Y-101681900D02*
X46108500Y-101402500D01*
X45758400Y-102032000D02*
X46108500Y-101681900D01*
X50940000Y-100000000D02*
X50965400Y-100000000D01*
X67196000Y-102286000D02*
X66561000Y-101651000D01*
X66561000Y-101651000D02*
X59068000Y-101651000D01*
X59068000Y-101651000D02*
X58052000Y-100635000D01*
X58052000Y-100635000D02*
X56655000Y-100635000D01*
X56655000Y-100635000D02*
X55639000Y-99619000D01*
X55639000Y-99619000D02*
X55258000Y-99619000D01*
X67704000Y-102286000D02*
X67196000Y-102286000D01*
X54623000Y-98984000D02*
X55258000Y-99619000D01*
X51981400Y-98984000D02*
X54623000Y-98984000D01*
X50965400Y-100000000D02*
X51981400Y-98984000D01*
X68974000Y-102286000D02*
X69228000Y-102286000D01*
X69228000Y-102286000D02*
X69355000Y-102413000D01*
X68974000Y-102286000D02*
X67704000Y-102286000D01*
X67704000Y-102286000D02*
X67640500Y-102286000D01*
X67176998Y-102921000D02*
X66414998Y-102159000D01*
X66414998Y-102159000D02*
X58941000Y-102159000D01*
X58941000Y-102159000D02*
X57925000Y-101143000D01*
X57925000Y-101143000D02*
X56528000Y-101143000D01*
X56528000Y-101143000D02*
X53988000Y-101143000D01*
X67704000Y-102921000D02*
X68720000Y-102921000D01*
X67704000Y-102921000D02*
X67176998Y-102921000D01*
X52210000Y-101143000D02*
X53988000Y-101143000D01*
X51575000Y-100508000D02*
X52210000Y-101143000D01*
X53988000Y-104927600D02*
X52362400Y-104927600D01*
X52362400Y-104927600D02*
X52083000Y-105207000D01*
X63259000Y-104927600D02*
X67754800Y-104927600D01*
X69939200Y-104191000D02*
X69710600Y-103962400D01*
X69710600Y-103962400D02*
X69151800Y-103962400D01*
X69151800Y-103962400D02*
X68720000Y-104394200D01*
X68720000Y-104394200D02*
X68440600Y-104394200D01*
X68440600Y-104394200D02*
X67958000Y-104876800D01*
X67958000Y-104876800D02*
X67805600Y-104876800D01*
X70117000Y-104191000D02*
X69939200Y-104191000D01*
X67754800Y-104927600D02*
X67805600Y-104876800D01*
X63309800Y-104927600D02*
X63259000Y-104927600D01*
X63259000Y-104927600D02*
X53988000Y-104927600D01*
X53988000Y-104927600D02*
X53962600Y-104927600D01*
X55893000Y-105334000D02*
X53734000Y-105334000D01*
X63081200Y-105334000D02*
X55893000Y-105334000D01*
X53353000Y-105715000D02*
X53353000Y-106223000D01*
X53734000Y-105334000D02*
X53353000Y-105715000D01*
X63081200Y-105334000D02*
X67958000Y-105334000D01*
X68212000Y-105334000D02*
X68720000Y-104826000D01*
X68720000Y-104826000D02*
X69164500Y-104826000D01*
X69164500Y-104826000D02*
X69418500Y-104572000D01*
X67958000Y-105334000D02*
X68212000Y-105334000D01*
X63081200Y-105334000D02*
X63132000Y-105334000D01*
X84417200Y-97180600D02*
X84264800Y-97028200D01*
X86627000Y-101524000D02*
X86373000Y-101524000D01*
X86373000Y-101524000D02*
X85484000Y-100635000D01*
X85484000Y-100635000D02*
X85484000Y-100444500D01*
X85484000Y-100444500D02*
X85484000Y-100330200D01*
X85484000Y-100330200D02*
X85484000Y-100152400D01*
X85484000Y-100152400D02*
X85484000Y-100127000D01*
X85484000Y-100127000D02*
X84696600Y-99339600D01*
X84696600Y-99339600D02*
X84696600Y-97460000D01*
X84696600Y-97460000D02*
X84417200Y-97180600D01*
X83833000Y-96977400D02*
X83833000Y-97053600D01*
X83782200Y-96926600D02*
X83833000Y-96977400D01*
X83960000Y-96926600D02*
X83782200Y-96926600D01*
X84061600Y-97028200D02*
X83960000Y-96926600D01*
X84264800Y-97028200D02*
X84061600Y-97028200D01*
X101232000Y-101524000D02*
X86627000Y-101524000D01*
X86627000Y-101524000D02*
X86563500Y-101524000D01*
X85293500Y-101079500D02*
X84772800Y-100558800D01*
X84798200Y-100584200D02*
X84772800Y-100558800D01*
X115583000Y-102095500D02*
X101867000Y-102095500D01*
X101867000Y-102095500D02*
X101803500Y-102159000D01*
X101803500Y-102159000D02*
X100660500Y-102159000D01*
X86246000Y-102095500D02*
X86182500Y-102032000D01*
X100660500Y-102159000D02*
X100597000Y-102095500D01*
X86182500Y-102032000D02*
X86246000Y-102032000D01*
X100597000Y-102095500D02*
X86246000Y-102095500D01*
X86246000Y-102032000D02*
X85293500Y-101079500D01*
X83807600Y-97815600D02*
X83807600Y-97688600D01*
X83807600Y-97688600D02*
X83807600Y-97815600D01*
X84036200Y-98044200D02*
X83807600Y-97815600D01*
X84036200Y-100907501D02*
X84036200Y-98044200D01*
X84481201Y-101352502D02*
X84036200Y-100907501D01*
X84487002Y-101352502D02*
X84481201Y-101352502D01*
X85674500Y-103111500D02*
X85801500Y-103111500D01*
X84487002Y-102749502D02*
X84849000Y-103111500D01*
X84849000Y-103111500D02*
X85674500Y-103111500D01*
X84487002Y-102476500D02*
X84487002Y-102749502D01*
X85801500Y-103111500D02*
X86246000Y-102667000D01*
X84487002Y-101352502D02*
X84487002Y-102476500D01*
X84487002Y-102476500D02*
X84487002Y-102667000D01*
X114757500Y-102667000D02*
X86246000Y-102667000D01*
X114884500Y-102794000D02*
X114757500Y-102667000D01*
X116027500Y-102794000D02*
X114884500Y-102794000D01*
X116154500Y-102667000D02*
X116027500Y-102794000D01*
X129489500Y-102667000D02*
X116154500Y-102667000D01*
X86246000Y-102667000D02*
X86182500Y-102667000D01*
X70879000Y-104368800D02*
X70879000Y-105207000D01*
X70879000Y-105638800D02*
X70879000Y-105207000D01*
X71818800Y-106578600D02*
X70879000Y-105638800D01*
X79311800Y-106578600D02*
X71818800Y-106578600D01*
X79438800Y-106451600D02*
X79311800Y-106578600D01*
X155588000Y-95301000D02*
X155588000Y-95174000D01*
X169685000Y-94793000D02*
X170193000Y-95301000D01*
X167526000Y-94793000D02*
X169685000Y-94793000D01*
X167145000Y-94412000D02*
X167526000Y-94793000D01*
X160668000Y-94412000D02*
X167145000Y-94412000D01*
X159779000Y-95301000D02*
X160668000Y-94412000D01*
X158890000Y-95301000D02*
X159779000Y-95301000D01*
X158509000Y-94920000D02*
X158890000Y-95301000D01*
X155842000Y-94920000D02*
X158509000Y-94920000D01*
X155588000Y-95174000D02*
X155842000Y-94920000D01*
X82118500Y-94348500D02*
X83007500Y-94348500D01*
X100914500Y-95364500D02*
X97485500Y-95364500D01*
X97485500Y-95364500D02*
X96660000Y-94539000D01*
X96660000Y-94539000D02*
X96088500Y-94539000D01*
X96088500Y-94539000D02*
X95453500Y-95174000D01*
X95453500Y-95174000D02*
X93548500Y-95174000D01*
X93548500Y-95174000D02*
X93548500Y-95174000D01*
X93548500Y-95174000D02*
X83907129Y-95143475D01*
X101644750Y-94634250D02*
X100914500Y-95364500D01*
X78054500Y-94348500D02*
X82118500Y-94348500D01*
X78054500Y-94348500D02*
X77737000Y-94666000D01*
X83325000Y-94666000D02*
X83907129Y-95143475D01*
X83007500Y-94348500D02*
X83325000Y-94666000D01*
X77229000Y-95555000D02*
X77356000Y-95428000D01*
X77356000Y-95428000D02*
X77356000Y-95047000D01*
X77356000Y-95047000D02*
X77737000Y-94666000D01*
X77737000Y-94666000D02*
X77737000Y-94666000D01*
X77737000Y-94666000D02*
X77737000Y-94666000D01*
X101994000Y-94285000D02*
X101644750Y-94634250D01*
X107836000Y-94285000D02*
X101994000Y-94285000D01*
X108344000Y-94793000D02*
X107836000Y-94285000D01*
X109995000Y-94793000D02*
X108344000Y-94793000D01*
X110630000Y-94158000D02*
X109995000Y-94793000D01*
X111392000Y-94158000D02*
X110630000Y-94158000D01*
X112154000Y-94920000D02*
X111392000Y-94158000D01*
X114313000Y-94920000D02*
X112154000Y-94920000D01*
X114440000Y-95047000D02*
X114313000Y-94920000D01*
X115329000Y-95047000D02*
X114440000Y-95047000D01*
X116599000Y-93777000D02*
X115329000Y-95047000D01*
X122949000Y-93777000D02*
X116599000Y-93777000D01*
X123457000Y-94285000D02*
X122949000Y-93777000D01*
X124219000Y-94285000D02*
X123457000Y-94285000D01*
X125108000Y-93396000D02*
X124219000Y-94285000D01*
X128918036Y-93398152D02*
X125108000Y-93396000D01*
X129807000Y-94285000D02*
X128918036Y-93398152D01*
X101644750Y-94634250D02*
X101613000Y-94666000D01*
X82245500Y-93904000D02*
X83198000Y-93904000D01*
X77864000Y-93904000D02*
X82245500Y-93904000D01*
X77546500Y-94221500D02*
X77864000Y-93904000D01*
X84107171Y-94706426D02*
X86601382Y-94710913D01*
X83198000Y-93904000D02*
X84107171Y-94706426D01*
X77546500Y-94221500D02*
X77546500Y-94221500D01*
X76594000Y-95174000D02*
X77546500Y-94221500D01*
X76594000Y-96190000D02*
X76594000Y-95174000D01*
X76721000Y-96317000D02*
X76594000Y-96190000D01*
X97993500Y-94856500D02*
X97676000Y-94856500D01*
X97676000Y-94856500D02*
X96914000Y-94094500D01*
X96914000Y-94094500D02*
X95834500Y-94094500D01*
X95834500Y-94094500D02*
X95199500Y-94729500D01*
X95199500Y-94729500D02*
X93802500Y-94729500D01*
X93802500Y-94729500D02*
X93281820Y-94737198D01*
X93281820Y-94737198D02*
X86601382Y-94710913D01*
X101867000Y-93777000D02*
X101613000Y-93777000D01*
X115011500Y-94348500D02*
X114821000Y-94158000D01*
X114821000Y-94158000D02*
X113424000Y-94158000D01*
X113424000Y-94158000D02*
X112852500Y-93586500D01*
X112852500Y-93586500D02*
X110249000Y-93586500D01*
X110249000Y-93586500D02*
X109487000Y-94348500D01*
X109487000Y-94348500D02*
X108725000Y-94348500D01*
X108725000Y-94348500D02*
X108153500Y-93777000D01*
X108153500Y-93777000D02*
X101867000Y-93777000D01*
X100533500Y-94856500D02*
X97993500Y-94856500D01*
X101613000Y-93777000D02*
X100533500Y-94856500D01*
X86601382Y-94710913D02*
X86322303Y-94710411D01*
X84051197Y-94013047D02*
X84051197Y-93995197D01*
X83172600Y-93421400D02*
X83172600Y-93459500D01*
X83477400Y-93421400D02*
X83172600Y-93421400D01*
X84051197Y-93995197D02*
X83477400Y-93421400D01*
X85356905Y-94238629D02*
X84294629Y-94238629D01*
X84294629Y-94238629D02*
X84159571Y-94103571D01*
X82245500Y-93459500D02*
X83172600Y-93459500D01*
X77483000Y-93650000D02*
X77419500Y-93650000D01*
X77673500Y-93459500D02*
X82245500Y-93459500D01*
X77483000Y-93650000D02*
X77673500Y-93459500D01*
X84051197Y-94013047D02*
X84159571Y-94103571D01*
X100216000Y-94158000D02*
X99581000Y-93523000D01*
X99581000Y-93523000D02*
X95644000Y-93523000D01*
X95644000Y-93523000D02*
X94882000Y-94285000D01*
X94882000Y-94285000D02*
X94183500Y-94285000D01*
X94183500Y-94285000D02*
X94094902Y-94266471D01*
X94094902Y-94266471D02*
X85356905Y-94238629D01*
X77419500Y-93713500D02*
X77419500Y-93650000D01*
X77419500Y-93650000D02*
X77419500Y-93713500D01*
X76149500Y-94983500D02*
X77419500Y-93713500D01*
X76149500Y-95745500D02*
X76149500Y-94983500D01*
X75895500Y-95999500D02*
X76149500Y-95745500D01*
X86011002Y-103536998D02*
X86373000Y-103175000D01*
X86373000Y-103175000D02*
X86690500Y-103175000D01*
X84321998Y-103536998D02*
X85738000Y-103536998D01*
X83896500Y-103111500D02*
X84321998Y-103536998D01*
X83896500Y-102857500D02*
X83896500Y-103111500D01*
X84087000Y-102667000D02*
X83896500Y-102857500D01*
X84087000Y-101524000D02*
X84087000Y-102667000D01*
X114567000Y-103175000D02*
X86690500Y-103175000D01*
X114694000Y-103302000D02*
X114567000Y-103175000D01*
X116091000Y-103302000D02*
X114694000Y-103302000D01*
X116218000Y-103175000D02*
X116091000Y-103302000D01*
X128918000Y-103175000D02*
X116218000Y-103175000D01*
X129045000Y-103302000D02*
X128918000Y-103175000D01*
X129934000Y-103302000D02*
X129045000Y-103302000D01*
X130061000Y-103175000D02*
X129934000Y-103302000D01*
X144793000Y-103175000D02*
X130061000Y-103175000D01*
X85738000Y-103536998D02*
X86011002Y-103536998D01*
X82613800Y-100050800D02*
X84087000Y-101524000D01*
X82283600Y-100050800D02*
X82613800Y-100050800D01*
X82131200Y-99898400D02*
X82283600Y-100050800D01*
X78740380Y-98811922D02*
X78740380Y-95612118D01*
X78740380Y-95612118D02*
X78816500Y-95535998D01*
X78657122Y-98895180D02*
X78740380Y-98811922D01*
X77927580Y-98895180D02*
X78657122Y-98895180D01*
X77527408Y-98507792D02*
X77540192Y-98507792D01*
X77540192Y-98507792D02*
X77927580Y-98895180D01*
X69418500Y-98285500D02*
X69842764Y-98285500D01*
X116726000Y-94285000D02*
X122822000Y-94285000D01*
X71310800Y-98171200D02*
X71647390Y-98507790D01*
X114186000Y-95428000D02*
X114313000Y-95555000D01*
X107674344Y-94758344D02*
X108217000Y-95301000D01*
X69842764Y-98285500D02*
X69957064Y-98171200D01*
X73083181Y-99390480D02*
X75469422Y-99390480D01*
X111519000Y-95936000D02*
X112027000Y-95428000D01*
X69957064Y-98171200D02*
X71310800Y-98171200D01*
X122822000Y-94285000D02*
X123330000Y-94793000D01*
X101105000Y-95809000D02*
X102155656Y-94758344D01*
X85154094Y-95555098D02*
X91707000Y-95580400D01*
X78816500Y-95535998D02*
X78816500Y-95174000D01*
X93408800Y-95580400D02*
X93465998Y-95682000D01*
X71647390Y-98507790D02*
X72200491Y-98507790D01*
X114313000Y-95555000D02*
X115456000Y-95555000D01*
X72200491Y-98507790D02*
X73083181Y-99390480D01*
X110376000Y-95301000D02*
X111011000Y-95936000D01*
X138189000Y-94285000D02*
X138824000Y-94285000D01*
X75469422Y-99390480D02*
X76352110Y-98507792D01*
X108217000Y-95301000D02*
X110376000Y-95301000D01*
X102155656Y-94758344D02*
X107674344Y-94758344D01*
X123330000Y-94793000D02*
X124346000Y-94793000D01*
X76352110Y-98507792D02*
X77527408Y-98507792D01*
X77527408Y-98507792D02*
X77533800Y-98501400D01*
X138824000Y-94285000D02*
X139586000Y-93523000D01*
X131204000Y-93777000D02*
X137681000Y-93777000D01*
X79197500Y-94793000D02*
X82836002Y-94793000D01*
X78816500Y-95174000D02*
X79197500Y-94793000D01*
X96787000Y-95809000D02*
X101105000Y-95809000D01*
X82836002Y-94793000D02*
X83675279Y-95552977D01*
X83675279Y-95552977D02*
X85154094Y-95555098D01*
X128537000Y-93840500D02*
X129553000Y-94920000D01*
X91707000Y-95580400D02*
X93408800Y-95580400D01*
X96025000Y-95936000D02*
X96660000Y-95936000D01*
X137681000Y-93777000D02*
X138189000Y-94285000D01*
X93465998Y-95682000D02*
X95771000Y-95682000D01*
X95771000Y-95682000D02*
X96025000Y-95936000D01*
X96660000Y-95936000D02*
X96787000Y-95809000D01*
X111011000Y-95936000D02*
X111519000Y-95936000D01*
X115456000Y-95555000D02*
X116726000Y-94285000D01*
X130061000Y-94920000D02*
X131204000Y-93777000D01*
X112027000Y-95428000D02*
X114186000Y-95428000D01*
X124346000Y-94793000D02*
X125299697Y-93841550D01*
X125299697Y-93841550D02*
X128537000Y-93840500D01*
X129553000Y-94920000D02*
X130061000Y-94920000D01*
X139586000Y-93523000D02*
X144031000Y-93523000D01*
X144031000Y-93523000D02*
X144666000Y-94158000D01*
X69418500Y-98285500D02*
X69545500Y-98158500D01*
X68720000Y-94793000D02*
X68821600Y-94386600D01*
X69672500Y-95745500D02*
X68720000Y-94793000D01*
X69672500Y-95936000D02*
X69672500Y-95745500D01*
X81547000Y-100508000D02*
X82499500Y-100508000D01*
X86500000Y-103683000D02*
X86246000Y-103937000D01*
X86246000Y-103937000D02*
X84658500Y-103937000D01*
X111646000Y-103683000D02*
X86563500Y-103683000D01*
X114313000Y-103683000D02*
X111646000Y-103683000D01*
X114440000Y-103810000D02*
X114313000Y-103683000D01*
X116218000Y-103810000D02*
X114440000Y-103810000D01*
X116345000Y-103683000D02*
X116218000Y-103810000D01*
X128791000Y-103683000D02*
X116345000Y-103683000D01*
X128918000Y-103810000D02*
X128791000Y-103683000D01*
X129934000Y-103810000D02*
X128918000Y-103810000D01*
X130061000Y-103683000D02*
X129934000Y-103810000D01*
X144285000Y-103683000D02*
X130061000Y-103683000D01*
X144412000Y-103810000D02*
X144285000Y-103683000D01*
X145047000Y-103810000D02*
X144412000Y-103810000D01*
X145174000Y-103683000D02*
X145047000Y-103810000D01*
X159271000Y-103683000D02*
X145174000Y-103683000D01*
X159398000Y-103556000D02*
X159271000Y-103683000D01*
X86563500Y-103683000D02*
X86500000Y-103683000D01*
X84144688Y-103937000D02*
X84658500Y-103937000D01*
X83452000Y-103244312D02*
X84144688Y-103937000D01*
X83452000Y-102667000D02*
X83452000Y-103244312D01*
X83642500Y-102476500D02*
X83452000Y-102667000D01*
X83642500Y-101651000D02*
X83642500Y-102476500D01*
X82499500Y-100508000D02*
X83642500Y-101651000D01*
X83007500Y-101968500D02*
X83007500Y-103365500D01*
X85611000Y-105207000D02*
X86500000Y-104318000D01*
X84849000Y-105207000D02*
X85611000Y-105207000D01*
X83325000Y-103683000D02*
X84849000Y-105207000D01*
X83007500Y-103365500D02*
X83325000Y-103683000D01*
X174130000Y-104191000D02*
X173368000Y-104191000D01*
X173368000Y-104191000D02*
X172479000Y-105080000D01*
X172479000Y-105080000D02*
X161811000Y-105080000D01*
X161811000Y-105080000D02*
X161430000Y-105461000D01*
X161430000Y-105461000D02*
X160668000Y-105461000D01*
X160668000Y-105461000D02*
X159525000Y-104318000D01*
X159525000Y-104318000D02*
X147587000Y-104318000D01*
X147587000Y-104318000D02*
X146571000Y-105334000D01*
X146571000Y-105334000D02*
X145936000Y-105334000D01*
X145936000Y-105334000D02*
X144920000Y-104318000D01*
X144920000Y-104318000D02*
X132601000Y-104318000D01*
X132601000Y-104318000D02*
X131077000Y-105842000D01*
X131077000Y-105842000D02*
X129553000Y-105842000D01*
X129553000Y-105842000D02*
X128791000Y-105080000D01*
X128791000Y-105080000D02*
X118504000Y-105080000D01*
X118504000Y-105080000D02*
X117107000Y-106477000D01*
X117107000Y-106477000D02*
X115710000Y-106477000D01*
X115710000Y-106477000D02*
X115329000Y-106096000D01*
X115329000Y-106096000D02*
X114948000Y-106096000D01*
X114948000Y-106096000D02*
X113932000Y-105080000D01*
X113932000Y-105080000D02*
X101994000Y-105080000D01*
X101994000Y-105080000D02*
X101105000Y-105969000D01*
X101105000Y-105969000D02*
X99962000Y-105969000D01*
X99962000Y-105969000D02*
X98311000Y-104318000D01*
X98311000Y-104318000D02*
X86500000Y-104318000D01*
X86500000Y-104318000D02*
X86373000Y-104445000D01*
X71133000Y-98920500D02*
X71577500Y-98920500D01*
X71577500Y-98920500D02*
X71590200Y-98907800D01*
X93180200Y-96037600D02*
X93275498Y-96107498D01*
X93275498Y-96107498D02*
X95630799Y-96107498D01*
X130188000Y-95428000D02*
X131429156Y-94186844D01*
X71590200Y-98907800D02*
X72034802Y-98907800D01*
X72034802Y-98907800D02*
X72917492Y-99790490D01*
X77362899Y-98907800D02*
X77750288Y-99295190D01*
X79140390Y-98977610D02*
X79140390Y-95802599D01*
X76517800Y-98907800D02*
X77362899Y-98907800D01*
X114064801Y-95872500D02*
X114147311Y-95955010D01*
X82690000Y-95237500D02*
X83553600Y-96037600D01*
X78822810Y-99295190D02*
X79140390Y-98977610D01*
X77750288Y-99295190D02*
X78822810Y-99295190D01*
X72917492Y-99790490D02*
X75635110Y-99790490D01*
X79705489Y-95237500D02*
X82690000Y-95237500D01*
X75635110Y-99790490D02*
X76517800Y-98907800D01*
X139713000Y-94031000D02*
X143650000Y-94031000D01*
X79140390Y-95802599D02*
X79705489Y-95237500D01*
X129426000Y-95428000D02*
X130188000Y-95428000D01*
X83553600Y-96037600D02*
X93180200Y-96037600D01*
X112046002Y-96063000D02*
X112236502Y-95872500D01*
X125489000Y-94285000D02*
X128283000Y-94285000D01*
X95630799Y-96107498D02*
X95859311Y-96336010D01*
X110210312Y-95701010D02*
X110845311Y-96336010D01*
X95859311Y-96336010D02*
X96825689Y-96336010D01*
X107587802Y-95237500D02*
X108051311Y-95701010D01*
X110845311Y-96336010D02*
X111753990Y-96336010D01*
X96952689Y-96209010D02*
X101270688Y-96209010D01*
X96825689Y-96336010D02*
X96952689Y-96209010D01*
X146063000Y-93650000D02*
X152286000Y-93650000D01*
X101270688Y-96209010D02*
X102242198Y-95237500D01*
X138062000Y-94793000D02*
X138951000Y-94793000D01*
X102242198Y-95237500D02*
X107587802Y-95237500D01*
X108051311Y-95701010D02*
X110210312Y-95701010D01*
X111753990Y-96336010D02*
X112027000Y-96063000D01*
X112027000Y-96063000D02*
X112046002Y-96063000D01*
X143650000Y-94031000D02*
X144412000Y-94793000D01*
X112236502Y-95872500D02*
X114064801Y-95872500D01*
X114147311Y-95955010D02*
X115760292Y-95955010D01*
X115760292Y-95955010D02*
X117030292Y-94685010D01*
X117030292Y-94685010D02*
X122644698Y-94685010D01*
X122644698Y-94685010D02*
X123152690Y-95193002D01*
X152286000Y-93650000D02*
X152921000Y-94285000D01*
X123152690Y-95193002D02*
X124580998Y-95193002D01*
X159144000Y-93904000D02*
X159398000Y-94158000D01*
X124580998Y-95193002D02*
X125489000Y-94285000D01*
X128283000Y-94285000D02*
X129426000Y-95428000D01*
X131429156Y-94186844D02*
X137455844Y-94186844D01*
X137455844Y-94186844D02*
X138062000Y-94793000D01*
X138951000Y-94793000D02*
X139713000Y-94031000D01*
X144412000Y-94793000D02*
X144920000Y-94793000D01*
X144920000Y-94793000D02*
X146063000Y-93650000D01*
X153810000Y-93904000D02*
X159144000Y-93904000D01*
X152921000Y-94285000D02*
X153429000Y-94285000D01*
X153429000Y-94285000D02*
X153810000Y-93904000D01*
X71133000Y-98920500D02*
X71196500Y-98857000D01*
X79540400Y-99263400D02*
X79540400Y-95968288D01*
X79540400Y-95968288D02*
X79763188Y-95745500D01*
X79108600Y-99695200D02*
X79540400Y-99263400D01*
X77584600Y-99695200D02*
X79108600Y-99695200D01*
X77229000Y-99339600D02*
X77584600Y-99695200D01*
X76716846Y-99339600D02*
X77229000Y-99339600D01*
X71768000Y-99492000D02*
X71895000Y-99492000D01*
X92646800Y-96520200D02*
X93040500Y-96507500D01*
X125717600Y-94691400D02*
X128054400Y-94691400D01*
X101438154Y-96618846D02*
X102375000Y-95682000D01*
X71895000Y-99492000D02*
X72593500Y-100190500D01*
X158743998Y-94412000D02*
X159124998Y-94793000D01*
X75865946Y-100190500D02*
X76716846Y-99339600D01*
X145047000Y-95301000D02*
X146297998Y-94050002D01*
X72593500Y-100190500D02*
X75865946Y-100190500D01*
X153556000Y-94793000D02*
X153937000Y-94412000D01*
X79788002Y-95745500D02*
X79851502Y-95682000D01*
X146297998Y-94050002D02*
X152051002Y-94050002D01*
X159652000Y-94793000D02*
X160541000Y-93904000D01*
X113678000Y-96317000D02*
X113805000Y-96444000D01*
X107328000Y-95682000D02*
X107836000Y-96190000D01*
X82436000Y-95682000D02*
X83198000Y-96444000D01*
X143523000Y-94539000D02*
X144285000Y-95301000D01*
X112409510Y-96315414D02*
X113678000Y-96317000D01*
X160541000Y-93904000D02*
X167272000Y-93904000D01*
X115837000Y-96444000D02*
X117164198Y-95116802D01*
X91961000Y-96444000D02*
X92646800Y-96520200D01*
X144285000Y-95301000D02*
X145047000Y-95301000D01*
X152051002Y-94050002D02*
X152794000Y-94793000D01*
X153937000Y-94412000D02*
X158743998Y-94412000D01*
X111900000Y-96825000D02*
X112409510Y-96315414D01*
X93040500Y-96507500D02*
X95390000Y-96507500D01*
X117164198Y-95116802D02*
X122510802Y-95116802D01*
X109995000Y-96190000D02*
X110630000Y-96825000D01*
X83198000Y-96444000D02*
X91961000Y-96444000D01*
X79763188Y-95745500D02*
X79788002Y-95745500D01*
X79851502Y-95682000D02*
X82436000Y-95682000D01*
X122510802Y-95116802D02*
X122987004Y-95593004D01*
X95390000Y-96507500D02*
X95644000Y-96761500D01*
X167272000Y-93904000D02*
X167653000Y-94285000D01*
X95644000Y-96761500D02*
X97104500Y-96761500D01*
X97104500Y-96761500D02*
X97247154Y-96618846D01*
X159124998Y-94793000D02*
X159652000Y-94793000D01*
X97247154Y-96618846D02*
X101438154Y-96618846D01*
X139078000Y-95301000D02*
X139840000Y-94539000D01*
X102375000Y-95682000D02*
X107328000Y-95682000D01*
X107836000Y-96190000D02*
X109995000Y-96190000D01*
X137935000Y-95301000D02*
X139078000Y-95301000D01*
X152794000Y-94793000D02*
X153556000Y-94793000D01*
X113805000Y-96444000D02*
X115837000Y-96444000D01*
X110630000Y-96825000D02*
X111900000Y-96825000D01*
X167653000Y-94285000D02*
X170701000Y-94285000D01*
X122987004Y-95593004D02*
X124815996Y-95593004D01*
X124815996Y-95593004D02*
X125717600Y-94691400D01*
X128054400Y-94691400D02*
X129299000Y-95936000D01*
X129299000Y-95936000D02*
X130315000Y-95936000D01*
X130315000Y-95936000D02*
X131585000Y-94666000D01*
X139840000Y-94539000D02*
X143523000Y-94539000D01*
X131585000Y-94666000D02*
X137300000Y-94666000D01*
X137300000Y-94666000D02*
X137935000Y-95301000D01*
X170701000Y-94285000D02*
X171844000Y-95428000D01*
X171844000Y-95428000D02*
X171844000Y-96190000D01*
X171844000Y-96190000D02*
X171590000Y-96444000D01*
X171590000Y-96444000D02*
X171590000Y-96571000D01*
X63894000Y-94031000D02*
X64376600Y-94031000D01*
X63132000Y-94056400D02*
X63894000Y-94031000D01*
X48146000Y-93523000D02*
X59957000Y-93523000D01*
X47638000Y-94539000D02*
X48146000Y-93523000D01*
X59957000Y-93523000D02*
X60084000Y-93523000D01*
X60084000Y-93523000D02*
X60566600Y-94056400D01*
X60566600Y-94056400D02*
X63132000Y-94056400D01*
X74298915Y-96443352D02*
X74308000Y-97206000D01*
X71514000Y-93777000D02*
X74298915Y-96443352D01*
X68313600Y-93777000D02*
X71514000Y-93777000D01*
X67704000Y-94386600D02*
X68313600Y-93777000D01*
X65011600Y-94666000D02*
X66738800Y-94666000D01*
X66738800Y-94666000D02*
X66992800Y-94386600D01*
X66992800Y-94386600D02*
X67704000Y-94386600D01*
X64376600Y-94031000D02*
X65011600Y-94666000D01*
X51321000Y-94602500D02*
X51384500Y-94602500D01*
X51384500Y-94602500D02*
X52210000Y-95428000D01*
X51321000Y-94412000D02*
X51321000Y-94539000D01*
X51321000Y-94539000D02*
X52210000Y-95428000D01*
X68847000Y-95682000D02*
X68847000Y-95936000D01*
X67983400Y-94843800D02*
X68847000Y-95682000D01*
X59322000Y-94539000D02*
X64148000Y-94539000D01*
X64148000Y-94539000D02*
X64773569Y-95183158D01*
X64773569Y-95183158D02*
X66891200Y-95174000D01*
X66891200Y-95174000D02*
X67221400Y-94843800D01*
X67221400Y-94843800D02*
X67983400Y-94843800D01*
X58433000Y-95428000D02*
X59322000Y-94539000D01*
X52210000Y-95428000D02*
X58433000Y-95428000D01*
X50813000Y-98603000D02*
X49670000Y-99746000D01*
X57798000Y-98349000D02*
X56401000Y-96952000D01*
X56401000Y-96952000D02*
X52464000Y-96952000D01*
X52464000Y-96952000D02*
X50813000Y-98603000D01*
X49670000Y-99746000D02*
X49289000Y-100127000D01*
X68212000Y-100254000D02*
X67450000Y-99492000D01*
X67450000Y-99492000D02*
X61989000Y-99492000D01*
X61989000Y-99492000D02*
X60846000Y-98349000D01*
X60846000Y-98349000D02*
X57798000Y-98349000D01*
X71831500Y-100254000D02*
X68212000Y-100254000D01*
X49289000Y-102540000D02*
X48400000Y-103429000D01*
X49289000Y-100127000D02*
X49289000Y-102540000D01*
X48400000Y-103429000D02*
X48273000Y-103429000D01*
X51244800Y-98755400D02*
X50000200Y-100000000D01*
X52616400Y-97383800D02*
X51244800Y-98755400D01*
X56223200Y-97383800D02*
X52616400Y-97383800D01*
X57594800Y-98755400D02*
X56223200Y-97383800D01*
X60592000Y-98755400D02*
X57594800Y-98755400D01*
X61760400Y-99923800D02*
X60592000Y-98755400D01*
X67297600Y-99923800D02*
X61760400Y-99923800D01*
X68063878Y-100690078D02*
X67297600Y-99923800D01*
X70934078Y-100690078D02*
X68063878Y-100690078D01*
X49720800Y-100273002D02*
X49720800Y-102794000D01*
X49765202Y-100228600D02*
X49720800Y-100273002D01*
X49771600Y-100228600D02*
X49765202Y-100228600D01*
X50000200Y-100000000D02*
X49771600Y-100228600D01*
X71323500Y-100952500D02*
X71196500Y-100952500D01*
X71196500Y-100952500D02*
X70934078Y-100690078D01*
X47866600Y-104394200D02*
X47003000Y-103530600D01*
X48654000Y-104394200D02*
X47866600Y-104394200D01*
X49212800Y-103835400D02*
X48654000Y-104394200D01*
X49212800Y-103302000D02*
X49212800Y-103835400D01*
X49720800Y-102794000D02*
X49212800Y-103302000D01*
X47003000Y-103530600D02*
X47003000Y-103429000D01*
D17*
G36*
X99661882Y-98864865D02*
X99765339Y-99115252D01*
X99956741Y-99306987D01*
X100206946Y-99410882D01*
X100477865Y-99411118D01*
X100728252Y-99307661D01*
X100919987Y-99116259D01*
X101023882Y-98866054D01*
X101023890Y-98857000D01*
X114520889Y-98857000D01*
X114520882Y-98864865D01*
X114624339Y-99115252D01*
X114815741Y-99306987D01*
X115065946Y-99410882D01*
X115336865Y-99411118D01*
X115587252Y-99307661D01*
X115778987Y-99116259D01*
X115882882Y-98866054D01*
X115882890Y-98857000D01*
X129379889Y-98857000D01*
X129379882Y-98864865D01*
X129483339Y-99115252D01*
X129674741Y-99306987D01*
X129924946Y-99410882D01*
X130195865Y-99411118D01*
X130446252Y-99307661D01*
X130637987Y-99116259D01*
X130741882Y-98866054D01*
X130741890Y-98857000D01*
X144111889Y-98857000D01*
X144111882Y-98864865D01*
X144215339Y-99115252D01*
X144406741Y-99306987D01*
X144656946Y-99410882D01*
X144927865Y-99411118D01*
X145178252Y-99307661D01*
X145369987Y-99116259D01*
X145473882Y-98866054D01*
X145473890Y-98857000D01*
X158843889Y-98857000D01*
X158843882Y-98864865D01*
X158947339Y-99115252D01*
X159138741Y-99306987D01*
X159388946Y-99410882D01*
X159659865Y-99411118D01*
X159910252Y-99307661D01*
X160101987Y-99116259D01*
X160205882Y-98866054D01*
X160205890Y-98857000D01*
X174894988Y-98857000D01*
X174900552Y-99090704D01*
X174658284Y-99674151D01*
X174657718Y-100323003D01*
X174905499Y-100922680D01*
X174945116Y-100962366D01*
X175015940Y-103937000D01*
X174761893Y-103937000D01*
X174707661Y-103805748D01*
X174516259Y-103614013D01*
X174266054Y-103510118D01*
X173995135Y-103509882D01*
X173744748Y-103613339D01*
X173672962Y-103685000D01*
X173368000Y-103685000D01*
X173174362Y-103723517D01*
X173010204Y-103833204D01*
X172906408Y-103937000D01*
X161168549Y-103937000D01*
X161058054Y-103891118D01*
X160787135Y-103890882D01*
X160675520Y-103937000D01*
X159977171Y-103937000D01*
X160078882Y-103692054D01*
X160079118Y-103421135D01*
X159975661Y-103170748D01*
X159784259Y-102979013D01*
X159534054Y-102875118D01*
X159263135Y-102874882D01*
X159012748Y-102978339D01*
X158821013Y-103169741D01*
X158817999Y-103177000D01*
X145473999Y-103177000D01*
X145474118Y-103040135D01*
X145370661Y-102789748D01*
X145179259Y-102598013D01*
X144929054Y-102494118D01*
X144658135Y-102493882D01*
X144407748Y-102597339D01*
X144335962Y-102669000D01*
X130170499Y-102669000D01*
X130170618Y-102532135D01*
X130067161Y-102281748D01*
X129875759Y-102090013D01*
X129625554Y-101986118D01*
X129354635Y-101985882D01*
X129104248Y-102089339D01*
X129032462Y-102161000D01*
X116263943Y-102161000D01*
X116264118Y-101960635D01*
X116160661Y-101710248D01*
X115969259Y-101518513D01*
X115719054Y-101414618D01*
X115448135Y-101414382D01*
X115197748Y-101517839D01*
X115125962Y-101589500D01*
X101912943Y-101589500D01*
X101913118Y-101389135D01*
X101809661Y-101138748D01*
X101618259Y-100947013D01*
X101368054Y-100843118D01*
X101097135Y-100842882D01*
X100846748Y-100946339D01*
X100774962Y-101018000D01*
X86582592Y-101018000D01*
X85990000Y-100425408D01*
X85990000Y-100127000D01*
X85951483Y-99933362D01*
X85841796Y-99769204D01*
X85611000Y-99538408D01*
X85611000Y-99111000D01*
X86754000Y-99111000D01*
X86802601Y-99101333D01*
X86843803Y-99073803D01*
X87060606Y-98857000D01*
X99661889Y-98857000D01*
X99661882Y-98864865D01*
X99661882Y-98864865D01*
G37*
X99661882Y-98864865D02*
X99765339Y-99115252D01*
X99956741Y-99306987D01*
X100206946Y-99410882D01*
X100477865Y-99411118D01*
X100728252Y-99307661D01*
X100919987Y-99116259D01*
X101023882Y-98866054D01*
X101023890Y-98857000D01*
X114520889Y-98857000D01*
X114520882Y-98864865D01*
X114624339Y-99115252D01*
X114815741Y-99306987D01*
X115065946Y-99410882D01*
X115336865Y-99411118D01*
X115587252Y-99307661D01*
X115778987Y-99116259D01*
X115882882Y-98866054D01*
X115882890Y-98857000D01*
X129379889Y-98857000D01*
X129379882Y-98864865D01*
X129483339Y-99115252D01*
X129674741Y-99306987D01*
X129924946Y-99410882D01*
X130195865Y-99411118D01*
X130446252Y-99307661D01*
X130637987Y-99116259D01*
X130741882Y-98866054D01*
X130741890Y-98857000D01*
X144111889Y-98857000D01*
X144111882Y-98864865D01*
X144215339Y-99115252D01*
X144406741Y-99306987D01*
X144656946Y-99410882D01*
X144927865Y-99411118D01*
X145178252Y-99307661D01*
X145369987Y-99116259D01*
X145473882Y-98866054D01*
X145473890Y-98857000D01*
X158843889Y-98857000D01*
X158843882Y-98864865D01*
X158947339Y-99115252D01*
X159138741Y-99306987D01*
X159388946Y-99410882D01*
X159659865Y-99411118D01*
X159910252Y-99307661D01*
X160101987Y-99116259D01*
X160205882Y-98866054D01*
X160205890Y-98857000D01*
X174894988Y-98857000D01*
X174900552Y-99090704D01*
X174658284Y-99674151D01*
X174657718Y-100323003D01*
X174905499Y-100922680D01*
X174945116Y-100962366D01*
X175015940Y-103937000D01*
X174761893Y-103937000D01*
X174707661Y-103805748D01*
X174516259Y-103614013D01*
X174266054Y-103510118D01*
X173995135Y-103509882D01*
X173744748Y-103613339D01*
X173672962Y-103685000D01*
X173368000Y-103685000D01*
X173174362Y-103723517D01*
X173010204Y-103833204D01*
X172906408Y-103937000D01*
X161168549Y-103937000D01*
X161058054Y-103891118D01*
X160787135Y-103890882D01*
X160675520Y-103937000D01*
X159977171Y-103937000D01*
X160078882Y-103692054D01*
X160079118Y-103421135D01*
X159975661Y-103170748D01*
X159784259Y-102979013D01*
X159534054Y-102875118D01*
X159263135Y-102874882D01*
X159012748Y-102978339D01*
X158821013Y-103169741D01*
X158817999Y-103177000D01*
X145473999Y-103177000D01*
X145474118Y-103040135D01*
X145370661Y-102789748D01*
X145179259Y-102598013D01*
X144929054Y-102494118D01*
X144658135Y-102493882D01*
X144407748Y-102597339D01*
X144335962Y-102669000D01*
X130170499Y-102669000D01*
X130170618Y-102532135D01*
X130067161Y-102281748D01*
X129875759Y-102090013D01*
X129625554Y-101986118D01*
X129354635Y-101985882D01*
X129104248Y-102089339D01*
X129032462Y-102161000D01*
X116263943Y-102161000D01*
X116264118Y-101960635D01*
X116160661Y-101710248D01*
X115969259Y-101518513D01*
X115719054Y-101414618D01*
X115448135Y-101414382D01*
X115197748Y-101517839D01*
X115125962Y-101589500D01*
X101912943Y-101589500D01*
X101913118Y-101389135D01*
X101809661Y-101138748D01*
X101618259Y-100947013D01*
X101368054Y-100843118D01*
X101097135Y-100842882D01*
X100846748Y-100946339D01*
X100774962Y-101018000D01*
X86582592Y-101018000D01*
X85990000Y-100425408D01*
X85990000Y-100127000D01*
X85951483Y-99933362D01*
X85841796Y-99769204D01*
X85611000Y-99538408D01*
X85611000Y-99111000D01*
X86754000Y-99111000D01*
X86802601Y-99101333D01*
X86843803Y-99073803D01*
X87060606Y-98857000D01*
X99661889Y-98857000D01*
X99661882Y-98864865D01*
G36*
X174658284Y-94340151D02*
X174657718Y-94989003D01*
X174905499Y-95588680D01*
X175019000Y-95702379D01*
X175019000Y-98349000D01*
X160104418Y-98349000D01*
X160102661Y-98344748D01*
X159911259Y-98153013D01*
X159661054Y-98049118D01*
X159390135Y-98048882D01*
X159139748Y-98152339D01*
X158948013Y-98343741D01*
X158945829Y-98349000D01*
X157870906Y-98349000D01*
X157919882Y-98231054D01*
X157920118Y-97960135D01*
X157816661Y-97709748D01*
X157625259Y-97518013D01*
X157375054Y-97414118D01*
X157104135Y-97413882D01*
X156853748Y-97517339D01*
X156662013Y-97708741D01*
X156558118Y-97958946D01*
X156557882Y-98229865D01*
X156607107Y-98349000D01*
X145372418Y-98349000D01*
X145370661Y-98344748D01*
X145179259Y-98153013D01*
X144929054Y-98049118D01*
X144658135Y-98048882D01*
X144407748Y-98152339D01*
X144216013Y-98343741D01*
X144213829Y-98349000D01*
X143202406Y-98349000D01*
X143251382Y-98231054D01*
X143251618Y-97960135D01*
X143148161Y-97709748D01*
X142956759Y-97518013D01*
X142706554Y-97414118D01*
X142435635Y-97413882D01*
X142185248Y-97517339D01*
X141993513Y-97708741D01*
X141889618Y-97958946D01*
X141889382Y-98229865D01*
X141938607Y-98349000D01*
X130640418Y-98349000D01*
X130638661Y-98344748D01*
X130447259Y-98153013D01*
X130197054Y-98049118D01*
X129926135Y-98048882D01*
X129675748Y-98152339D01*
X129484013Y-98343741D01*
X129481829Y-98349000D01*
X128470406Y-98349000D01*
X128519382Y-98231054D01*
X128519618Y-97960135D01*
X128416161Y-97709748D01*
X128224759Y-97518013D01*
X127974554Y-97414118D01*
X127703635Y-97413882D01*
X127453248Y-97517339D01*
X127261513Y-97708741D01*
X127157618Y-97958946D01*
X127157382Y-98229865D01*
X127206607Y-98349000D01*
X115781418Y-98349000D01*
X115779661Y-98344748D01*
X115588259Y-98153013D01*
X115338054Y-98049118D01*
X115067135Y-98048882D01*
X114816748Y-98152339D01*
X114625013Y-98343741D01*
X114622829Y-98349000D01*
X113674906Y-98349000D01*
X113723882Y-98231054D01*
X113724118Y-97960135D01*
X113620661Y-97709748D01*
X113429259Y-97518013D01*
X113179054Y-97414118D01*
X112908135Y-97413882D01*
X112657748Y-97517339D01*
X112466013Y-97708741D01*
X112362118Y-97958946D01*
X112361882Y-98229865D01*
X112411107Y-98349000D01*
X100922418Y-98349000D01*
X100920661Y-98344748D01*
X100729259Y-98153013D01*
X100479054Y-98049118D01*
X100208135Y-98048882D01*
X99957748Y-98152339D01*
X99766013Y-98343741D01*
X99763829Y-98349000D01*
X98942906Y-98349000D01*
X98991882Y-98231054D01*
X98992118Y-97960135D01*
X98888661Y-97709748D01*
X98697259Y-97518013D01*
X98447054Y-97414118D01*
X98176135Y-97413882D01*
X97925748Y-97517339D01*
X97734013Y-97708741D01*
X97630118Y-97958946D01*
X97629882Y-98229865D01*
X97679107Y-98349000D01*
X85738000Y-98349000D01*
X85738000Y-96950000D01*
X91932977Y-96950000D01*
X92590921Y-97023105D01*
X92627194Y-97019989D01*
X92663114Y-97025937D01*
X93048661Y-97013500D01*
X95180408Y-97013500D01*
X95286204Y-97119296D01*
X95450362Y-97228983D01*
X95644000Y-97267500D01*
X97104500Y-97267500D01*
X97298138Y-97228983D01*
X97453990Y-97124846D01*
X101438154Y-97124846D01*
X101631792Y-97086329D01*
X101795950Y-96976642D01*
X102584592Y-96188000D01*
X107118408Y-96188000D01*
X107478204Y-96547796D01*
X107642362Y-96657483D01*
X107836000Y-96696000D01*
X109785408Y-96696000D01*
X110272204Y-97182796D01*
X110436362Y-97292483D01*
X110630000Y-97331000D01*
X111900000Y-97331000D01*
X111900019Y-97330996D01*
X111900038Y-97331000D01*
X112000309Y-97311047D01*
X112093638Y-97292483D01*
X112093653Y-97292473D01*
X112093673Y-97292469D01*
X112177659Y-97236342D01*
X112257796Y-97182796D01*
X112257807Y-97182780D01*
X112257823Y-97182769D01*
X112618862Y-96821677D01*
X113478566Y-96822751D01*
X113611362Y-96911483D01*
X113805000Y-96950000D01*
X115837000Y-96950000D01*
X116030638Y-96911483D01*
X116194796Y-96801796D01*
X117373790Y-95622802D01*
X122301210Y-95622802D01*
X122629208Y-95950800D01*
X122793366Y-96060487D01*
X122987004Y-96099004D01*
X124815996Y-96099004D01*
X125009634Y-96060487D01*
X125173792Y-95950800D01*
X125514762Y-95609830D01*
X125546339Y-95686252D01*
X125737741Y-95877987D01*
X125987946Y-95981882D01*
X126258865Y-95982118D01*
X126509252Y-95878661D01*
X126606602Y-95781480D01*
X126702941Y-95877987D01*
X126953146Y-95981882D01*
X127224065Y-95982118D01*
X127474452Y-95878661D01*
X127666187Y-95687259D01*
X127770082Y-95437054D01*
X127770291Y-95197400D01*
X127844808Y-95197400D01*
X128941204Y-96293796D01*
X129105362Y-96403483D01*
X129299000Y-96442000D01*
X130315000Y-96442000D01*
X130508638Y-96403483D01*
X130672796Y-96293796D01*
X131794592Y-95172000D01*
X137090408Y-95172000D01*
X137577204Y-95658796D01*
X137741362Y-95768483D01*
X137935000Y-95807000D01*
X139078000Y-95807000D01*
X139271638Y-95768483D01*
X139435796Y-95658796D01*
X140049592Y-95045000D01*
X140351924Y-95045000D01*
X140302118Y-95164946D01*
X140301882Y-95435865D01*
X140405339Y-95686252D01*
X140596741Y-95877987D01*
X140846946Y-95981882D01*
X141117865Y-95982118D01*
X141368252Y-95878661D01*
X141559987Y-95687259D01*
X141579168Y-95641067D01*
X141663541Y-95725587D01*
X141913746Y-95829482D01*
X142184665Y-95829718D01*
X142435052Y-95726261D01*
X142626787Y-95534859D01*
X142730682Y-95284654D01*
X142730891Y-95045000D01*
X143313408Y-95045000D01*
X143927204Y-95658796D01*
X144091362Y-95768483D01*
X144285000Y-95807000D01*
X145047000Y-95807000D01*
X145240638Y-95768483D01*
X145404796Y-95658796D01*
X146507590Y-94556002D01*
X151841410Y-94556002D01*
X152436204Y-95150796D01*
X152600362Y-95260483D01*
X152794000Y-95299000D01*
X153556000Y-95299000D01*
X153749638Y-95260483D01*
X153913796Y-95150796D01*
X154146592Y-94918000D01*
X155009660Y-94918000D01*
X154907118Y-95164946D01*
X154906882Y-95435865D01*
X155010339Y-95686252D01*
X155201741Y-95877987D01*
X155451946Y-95981882D01*
X155668959Y-95982071D01*
X155668882Y-96070865D01*
X155772339Y-96321252D01*
X155963741Y-96512987D01*
X156213946Y-96616882D01*
X156484865Y-96617118D01*
X156735252Y-96513661D01*
X156926987Y-96322259D01*
X157030882Y-96072054D01*
X157031118Y-95801135D01*
X156927661Y-95550748D01*
X156803130Y-95426000D01*
X158299408Y-95426000D01*
X158532204Y-95658796D01*
X158696362Y-95768483D01*
X158890000Y-95807000D01*
X159779000Y-95807000D01*
X159972638Y-95768483D01*
X160136796Y-95658796D01*
X160877592Y-94918000D01*
X166935408Y-94918000D01*
X167168204Y-95150796D01*
X167332362Y-95260483D01*
X167526000Y-95299000D01*
X169475408Y-95299000D01*
X169511969Y-95335561D01*
X169511882Y-95435865D01*
X169615339Y-95686252D01*
X169806741Y-95877987D01*
X170056946Y-95981882D01*
X170327865Y-95982118D01*
X170400986Y-95951905D01*
X170400882Y-96070865D01*
X170504339Y-96321252D01*
X170695741Y-96512987D01*
X170908973Y-96601529D01*
X170908882Y-96705865D01*
X170935580Y-96770480D01*
X170759013Y-96946741D01*
X170655118Y-97196946D01*
X170654882Y-97467865D01*
X170758339Y-97718252D01*
X170949741Y-97909987D01*
X171199946Y-98013882D01*
X171470865Y-98014118D01*
X171721252Y-97910661D01*
X171912987Y-97719259D01*
X172016882Y-97469054D01*
X172017118Y-97198135D01*
X171990420Y-97133520D01*
X172034436Y-97089580D01*
X172092741Y-97147987D01*
X172342946Y-97251882D01*
X172613865Y-97252118D01*
X172864252Y-97148661D01*
X173055987Y-96957259D01*
X173159882Y-96707054D01*
X173159993Y-96578865D01*
X173321882Y-96578865D01*
X173425339Y-96829252D01*
X173616741Y-97020987D01*
X173866946Y-97124882D01*
X174137865Y-97125118D01*
X174388252Y-97021661D01*
X174579987Y-96830259D01*
X174683882Y-96580054D01*
X174684118Y-96309135D01*
X174580661Y-96058748D01*
X174389259Y-95867013D01*
X174139054Y-95763118D01*
X173868135Y-95762882D01*
X173617748Y-95866339D01*
X173426013Y-96057741D01*
X173322118Y-96307946D01*
X173321882Y-96578865D01*
X173159993Y-96578865D01*
X173160118Y-96436135D01*
X173056661Y-96185748D01*
X172865259Y-95994013D01*
X172615054Y-95890118D01*
X172350000Y-95889887D01*
X172350000Y-95428000D01*
X172311483Y-95234362D01*
X172201796Y-95070204D01*
X171462592Y-94331000D01*
X171597865Y-94331118D01*
X171848252Y-94227661D01*
X172039987Y-94036259D01*
X172094906Y-93904000D01*
X174839390Y-93904000D01*
X174658284Y-94340151D01*
X174658284Y-94340151D01*
G37*
X174658284Y-94340151D02*
X174657718Y-94989003D01*
X174905499Y-95588680D01*
X175019000Y-95702379D01*
X175019000Y-98349000D01*
X160104418Y-98349000D01*
X160102661Y-98344748D01*
X159911259Y-98153013D01*
X159661054Y-98049118D01*
X159390135Y-98048882D01*
X159139748Y-98152339D01*
X158948013Y-98343741D01*
X158945829Y-98349000D01*
X157870906Y-98349000D01*
X157919882Y-98231054D01*
X157920118Y-97960135D01*
X157816661Y-97709748D01*
X157625259Y-97518013D01*
X157375054Y-97414118D01*
X157104135Y-97413882D01*
X156853748Y-97517339D01*
X156662013Y-97708741D01*
X156558118Y-97958946D01*
X156557882Y-98229865D01*
X156607107Y-98349000D01*
X145372418Y-98349000D01*
X145370661Y-98344748D01*
X145179259Y-98153013D01*
X144929054Y-98049118D01*
X144658135Y-98048882D01*
X144407748Y-98152339D01*
X144216013Y-98343741D01*
X144213829Y-98349000D01*
X143202406Y-98349000D01*
X143251382Y-98231054D01*
X143251618Y-97960135D01*
X143148161Y-97709748D01*
X142956759Y-97518013D01*
X142706554Y-97414118D01*
X142435635Y-97413882D01*
X142185248Y-97517339D01*
X141993513Y-97708741D01*
X141889618Y-97958946D01*
X141889382Y-98229865D01*
X141938607Y-98349000D01*
X130640418Y-98349000D01*
X130638661Y-98344748D01*
X130447259Y-98153013D01*
X130197054Y-98049118D01*
X129926135Y-98048882D01*
X129675748Y-98152339D01*
X129484013Y-98343741D01*
X129481829Y-98349000D01*
X128470406Y-98349000D01*
X128519382Y-98231054D01*
X128519618Y-97960135D01*
X128416161Y-97709748D01*
X128224759Y-97518013D01*
X127974554Y-97414118D01*
X127703635Y-97413882D01*
X127453248Y-97517339D01*
X127261513Y-97708741D01*
X127157618Y-97958946D01*
X127157382Y-98229865D01*
X127206607Y-98349000D01*
X115781418Y-98349000D01*
X115779661Y-98344748D01*
X115588259Y-98153013D01*
X115338054Y-98049118D01*
X115067135Y-98048882D01*
X114816748Y-98152339D01*
X114625013Y-98343741D01*
X114622829Y-98349000D01*
X113674906Y-98349000D01*
X113723882Y-98231054D01*
X113724118Y-97960135D01*
X113620661Y-97709748D01*
X113429259Y-97518013D01*
X113179054Y-97414118D01*
X112908135Y-97413882D01*
X112657748Y-97517339D01*
X112466013Y-97708741D01*
X112362118Y-97958946D01*
X112361882Y-98229865D01*
X112411107Y-98349000D01*
X100922418Y-98349000D01*
X100920661Y-98344748D01*
X100729259Y-98153013D01*
X100479054Y-98049118D01*
X100208135Y-98048882D01*
X99957748Y-98152339D01*
X99766013Y-98343741D01*
X99763829Y-98349000D01*
X98942906Y-98349000D01*
X98991882Y-98231054D01*
X98992118Y-97960135D01*
X98888661Y-97709748D01*
X98697259Y-97518013D01*
X98447054Y-97414118D01*
X98176135Y-97413882D01*
X97925748Y-97517339D01*
X97734013Y-97708741D01*
X97630118Y-97958946D01*
X97629882Y-98229865D01*
X97679107Y-98349000D01*
X85738000Y-98349000D01*
X85738000Y-96950000D01*
X91932977Y-96950000D01*
X92590921Y-97023105D01*
X92627194Y-97019989D01*
X92663114Y-97025937D01*
X93048661Y-97013500D01*
X95180408Y-97013500D01*
X95286204Y-97119296D01*
X95450362Y-97228983D01*
X95644000Y-97267500D01*
X97104500Y-97267500D01*
X97298138Y-97228983D01*
X97453990Y-97124846D01*
X101438154Y-97124846D01*
X101631792Y-97086329D01*
X101795950Y-96976642D01*
X102584592Y-96188000D01*
X107118408Y-96188000D01*
X107478204Y-96547796D01*
X107642362Y-96657483D01*
X107836000Y-96696000D01*
X109785408Y-96696000D01*
X110272204Y-97182796D01*
X110436362Y-97292483D01*
X110630000Y-97331000D01*
X111900000Y-97331000D01*
X111900019Y-97330996D01*
X111900038Y-97331000D01*
X112000309Y-97311047D01*
X112093638Y-97292483D01*
X112093653Y-97292473D01*
X112093673Y-97292469D01*
X112177659Y-97236342D01*
X112257796Y-97182796D01*
X112257807Y-97182780D01*
X112257823Y-97182769D01*
X112618862Y-96821677D01*
X113478566Y-96822751D01*
X113611362Y-96911483D01*
X113805000Y-96950000D01*
X115837000Y-96950000D01*
X116030638Y-96911483D01*
X116194796Y-96801796D01*
X117373790Y-95622802D01*
X122301210Y-95622802D01*
X122629208Y-95950800D01*
X122793366Y-96060487D01*
X122987004Y-96099004D01*
X124815996Y-96099004D01*
X125009634Y-96060487D01*
X125173792Y-95950800D01*
X125514762Y-95609830D01*
X125546339Y-95686252D01*
X125737741Y-95877987D01*
X125987946Y-95981882D01*
X126258865Y-95982118D01*
X126509252Y-95878661D01*
X126606602Y-95781480D01*
X126702941Y-95877987D01*
X126953146Y-95981882D01*
X127224065Y-95982118D01*
X127474452Y-95878661D01*
X127666187Y-95687259D01*
X127770082Y-95437054D01*
X127770291Y-95197400D01*
X127844808Y-95197400D01*
X128941204Y-96293796D01*
X129105362Y-96403483D01*
X129299000Y-96442000D01*
X130315000Y-96442000D01*
X130508638Y-96403483D01*
X130672796Y-96293796D01*
X131794592Y-95172000D01*
X137090408Y-95172000D01*
X137577204Y-95658796D01*
X137741362Y-95768483D01*
X137935000Y-95807000D01*
X139078000Y-95807000D01*
X139271638Y-95768483D01*
X139435796Y-95658796D01*
X140049592Y-95045000D01*
X140351924Y-95045000D01*
X140302118Y-95164946D01*
X140301882Y-95435865D01*
X140405339Y-95686252D01*
X140596741Y-95877987D01*
X140846946Y-95981882D01*
X141117865Y-95982118D01*
X141368252Y-95878661D01*
X141559987Y-95687259D01*
X141579168Y-95641067D01*
X141663541Y-95725587D01*
X141913746Y-95829482D01*
X142184665Y-95829718D01*
X142435052Y-95726261D01*
X142626787Y-95534859D01*
X142730682Y-95284654D01*
X142730891Y-95045000D01*
X143313408Y-95045000D01*
X143927204Y-95658796D01*
X144091362Y-95768483D01*
X144285000Y-95807000D01*
X145047000Y-95807000D01*
X145240638Y-95768483D01*
X145404796Y-95658796D01*
X146507590Y-94556002D01*
X151841410Y-94556002D01*
X152436204Y-95150796D01*
X152600362Y-95260483D01*
X152794000Y-95299000D01*
X153556000Y-95299000D01*
X153749638Y-95260483D01*
X153913796Y-95150796D01*
X154146592Y-94918000D01*
X155009660Y-94918000D01*
X154907118Y-95164946D01*
X154906882Y-95435865D01*
X155010339Y-95686252D01*
X155201741Y-95877987D01*
X155451946Y-95981882D01*
X155668959Y-95982071D01*
X155668882Y-96070865D01*
X155772339Y-96321252D01*
X155963741Y-96512987D01*
X156213946Y-96616882D01*
X156484865Y-96617118D01*
X156735252Y-96513661D01*
X156926987Y-96322259D01*
X157030882Y-96072054D01*
X157031118Y-95801135D01*
X156927661Y-95550748D01*
X156803130Y-95426000D01*
X158299408Y-95426000D01*
X158532204Y-95658796D01*
X158696362Y-95768483D01*
X158890000Y-95807000D01*
X159779000Y-95807000D01*
X159972638Y-95768483D01*
X160136796Y-95658796D01*
X160877592Y-94918000D01*
X166935408Y-94918000D01*
X167168204Y-95150796D01*
X167332362Y-95260483D01*
X167526000Y-95299000D01*
X169475408Y-95299000D01*
X169511969Y-95335561D01*
X169511882Y-95435865D01*
X169615339Y-95686252D01*
X169806741Y-95877987D01*
X170056946Y-95981882D01*
X170327865Y-95982118D01*
X170400986Y-95951905D01*
X170400882Y-96070865D01*
X170504339Y-96321252D01*
X170695741Y-96512987D01*
X170908973Y-96601529D01*
X170908882Y-96705865D01*
X170935580Y-96770480D01*
X170759013Y-96946741D01*
X170655118Y-97196946D01*
X170654882Y-97467865D01*
X170758339Y-97718252D01*
X170949741Y-97909987D01*
X171199946Y-98013882D01*
X171470865Y-98014118D01*
X171721252Y-97910661D01*
X171912987Y-97719259D01*
X172016882Y-97469054D01*
X172017118Y-97198135D01*
X171990420Y-97133520D01*
X172034436Y-97089580D01*
X172092741Y-97147987D01*
X172342946Y-97251882D01*
X172613865Y-97252118D01*
X172864252Y-97148661D01*
X173055987Y-96957259D01*
X173159882Y-96707054D01*
X173159993Y-96578865D01*
X173321882Y-96578865D01*
X173425339Y-96829252D01*
X173616741Y-97020987D01*
X173866946Y-97124882D01*
X174137865Y-97125118D01*
X174388252Y-97021661D01*
X174579987Y-96830259D01*
X174683882Y-96580054D01*
X174684118Y-96309135D01*
X174580661Y-96058748D01*
X174389259Y-95867013D01*
X174139054Y-95763118D01*
X173868135Y-95762882D01*
X173617748Y-95866339D01*
X173426013Y-96057741D01*
X173322118Y-96307946D01*
X173321882Y-96578865D01*
X173159993Y-96578865D01*
X173160118Y-96436135D01*
X173056661Y-96185748D01*
X172865259Y-95994013D01*
X172615054Y-95890118D01*
X172350000Y-95889887D01*
X172350000Y-95428000D01*
X172311483Y-95234362D01*
X172201796Y-95070204D01*
X171462592Y-94331000D01*
X171597865Y-94331118D01*
X171848252Y-94227661D01*
X172039987Y-94036259D01*
X172094906Y-93904000D01*
X174839390Y-93904000D01*
X174658284Y-94340151D01*
G36*
X71381400Y-102590769D02*
X71469058Y-102802917D01*
X71631229Y-102965371D01*
X71843224Y-103053400D01*
X72072769Y-103053600D01*
X72284917Y-102965942D01*
X72447371Y-102803771D01*
X72535400Y-102591776D01*
X72535556Y-102413000D01*
X73032500Y-102413000D01*
X73032400Y-102527269D01*
X73120058Y-102739417D01*
X73282229Y-102901871D01*
X73494224Y-102989900D01*
X73723769Y-102990100D01*
X73787983Y-102963567D01*
X74723166Y-103733719D01*
X74616583Y-103777758D01*
X74454129Y-103939929D01*
X74366100Y-104151924D01*
X74365900Y-104381469D01*
X74453558Y-104593617D01*
X74615729Y-104756071D01*
X74827724Y-104844100D01*
X75057269Y-104844300D01*
X75269417Y-104756642D01*
X75431871Y-104594471D01*
X75519900Y-104382476D01*
X75520067Y-104191000D01*
X76185796Y-104191000D01*
X76351724Y-104259900D01*
X76581269Y-104260100D01*
X76748503Y-104191000D01*
X77302046Y-104191000D01*
X77409729Y-104298871D01*
X77621724Y-104386900D01*
X77851269Y-104387100D01*
X78063417Y-104299442D01*
X78172048Y-104191000D01*
X78827394Y-104191000D01*
X79171197Y-104534803D01*
X79212399Y-104562333D01*
X79261000Y-104572000D01*
X82144398Y-104572000D01*
X82200558Y-104707917D01*
X82362729Y-104870371D01*
X82574724Y-104958400D01*
X82804269Y-104958600D01*
X82944000Y-104900864D01*
X82944000Y-106099386D01*
X81742969Y-106131846D01*
X81743100Y-105981731D01*
X81655442Y-105769583D01*
X81493271Y-105607129D01*
X81281276Y-105519100D01*
X81051731Y-105518900D01*
X80839583Y-105606558D01*
X80677129Y-105768729D01*
X80589100Y-105980724D01*
X80588941Y-106163036D01*
X79951007Y-106180277D01*
X79928242Y-106125183D01*
X79766071Y-105962729D01*
X79554076Y-105874700D01*
X79324531Y-105874500D01*
X79112383Y-105962158D01*
X78949929Y-106124329D01*
X78928224Y-106176600D01*
X78402563Y-106176600D01*
X78440900Y-106084276D01*
X78441100Y-105854731D01*
X78353442Y-105642583D01*
X78191271Y-105480129D01*
X77979276Y-105392100D01*
X77749731Y-105391900D01*
X77639183Y-105437577D01*
X77445803Y-105244197D01*
X77404601Y-105216667D01*
X77356000Y-105207000D01*
X71281000Y-105207000D01*
X71281000Y-104782791D01*
X71367871Y-104696071D01*
X71455900Y-104484076D01*
X71456100Y-104254531D01*
X71368442Y-104042383D01*
X71206271Y-103879929D01*
X70994276Y-103791900D01*
X70764731Y-103791700D01*
X70601156Y-103859288D01*
X70444271Y-103702129D01*
X70232276Y-103614100D01*
X70002731Y-103613900D01*
X69938457Y-103640458D01*
X69864439Y-103591000D01*
X69710600Y-103560400D01*
X69151800Y-103560400D01*
X68997961Y-103591000D01*
X68867543Y-103678143D01*
X68553486Y-103992200D01*
X68440600Y-103992200D01*
X68286761Y-104022800D01*
X68156343Y-104109943D01*
X67787982Y-104478304D01*
X67651761Y-104505400D01*
X67621530Y-104525600D01*
X63513000Y-104525600D01*
X63513000Y-103556000D01*
X68529500Y-103556000D01*
X68578101Y-103546333D01*
X68612151Y-103525426D01*
X68644225Y-103497934D01*
X68834269Y-103498100D01*
X69046417Y-103410442D01*
X69208871Y-103248271D01*
X69296900Y-103036276D01*
X69296940Y-102989950D01*
X69469269Y-102990100D01*
X69681417Y-102902442D01*
X69774142Y-102809879D01*
X69891329Y-102927271D01*
X70103324Y-103015300D01*
X70332869Y-103015500D01*
X70545017Y-102927842D01*
X70707471Y-102765671D01*
X70795500Y-102553676D01*
X70795623Y-102413000D01*
X71381555Y-102413000D01*
X71381400Y-102590769D01*
X71381400Y-102590769D01*
G37*
X71381400Y-102590769D02*
X71469058Y-102802917D01*
X71631229Y-102965371D01*
X71843224Y-103053400D01*
X72072769Y-103053600D01*
X72284917Y-102965942D01*
X72447371Y-102803771D01*
X72535400Y-102591776D01*
X72535556Y-102413000D01*
X73032500Y-102413000D01*
X73032400Y-102527269D01*
X73120058Y-102739417D01*
X73282229Y-102901871D01*
X73494224Y-102989900D01*
X73723769Y-102990100D01*
X73787983Y-102963567D01*
X74723166Y-103733719D01*
X74616583Y-103777758D01*
X74454129Y-103939929D01*
X74366100Y-104151924D01*
X74365900Y-104381469D01*
X74453558Y-104593617D01*
X74615729Y-104756071D01*
X74827724Y-104844100D01*
X75057269Y-104844300D01*
X75269417Y-104756642D01*
X75431871Y-104594471D01*
X75519900Y-104382476D01*
X75520067Y-104191000D01*
X76185796Y-104191000D01*
X76351724Y-104259900D01*
X76581269Y-104260100D01*
X76748503Y-104191000D01*
X77302046Y-104191000D01*
X77409729Y-104298871D01*
X77621724Y-104386900D01*
X77851269Y-104387100D01*
X78063417Y-104299442D01*
X78172048Y-104191000D01*
X78827394Y-104191000D01*
X79171197Y-104534803D01*
X79212399Y-104562333D01*
X79261000Y-104572000D01*
X82144398Y-104572000D01*
X82200558Y-104707917D01*
X82362729Y-104870371D01*
X82574724Y-104958400D01*
X82804269Y-104958600D01*
X82944000Y-104900864D01*
X82944000Y-106099386D01*
X81742969Y-106131846D01*
X81743100Y-105981731D01*
X81655442Y-105769583D01*
X81493271Y-105607129D01*
X81281276Y-105519100D01*
X81051731Y-105518900D01*
X80839583Y-105606558D01*
X80677129Y-105768729D01*
X80589100Y-105980724D01*
X80588941Y-106163036D01*
X79951007Y-106180277D01*
X79928242Y-106125183D01*
X79766071Y-105962729D01*
X79554076Y-105874700D01*
X79324531Y-105874500D01*
X79112383Y-105962158D01*
X78949929Y-106124329D01*
X78928224Y-106176600D01*
X78402563Y-106176600D01*
X78440900Y-106084276D01*
X78441100Y-105854731D01*
X78353442Y-105642583D01*
X78191271Y-105480129D01*
X77979276Y-105392100D01*
X77749731Y-105391900D01*
X77639183Y-105437577D01*
X77445803Y-105244197D01*
X77404601Y-105216667D01*
X77356000Y-105207000D01*
X71281000Y-105207000D01*
X71281000Y-104782791D01*
X71367871Y-104696071D01*
X71455900Y-104484076D01*
X71456100Y-104254531D01*
X71368442Y-104042383D01*
X71206271Y-103879929D01*
X70994276Y-103791900D01*
X70764731Y-103791700D01*
X70601156Y-103859288D01*
X70444271Y-103702129D01*
X70232276Y-103614100D01*
X70002731Y-103613900D01*
X69938457Y-103640458D01*
X69864439Y-103591000D01*
X69710600Y-103560400D01*
X69151800Y-103560400D01*
X68997961Y-103591000D01*
X68867543Y-103678143D01*
X68553486Y-103992200D01*
X68440600Y-103992200D01*
X68286761Y-104022800D01*
X68156343Y-104109943D01*
X67787982Y-104478304D01*
X67651761Y-104505400D01*
X67621530Y-104525600D01*
X63513000Y-104525600D01*
X63513000Y-103556000D01*
X68529500Y-103556000D01*
X68578101Y-103546333D01*
X68612151Y-103525426D01*
X68644225Y-103497934D01*
X68834269Y-103498100D01*
X69046417Y-103410442D01*
X69208871Y-103248271D01*
X69296900Y-103036276D01*
X69296940Y-102989950D01*
X69469269Y-102990100D01*
X69681417Y-102902442D01*
X69774142Y-102809879D01*
X69891329Y-102927271D01*
X70103324Y-103015300D01*
X70332869Y-103015500D01*
X70545017Y-102927842D01*
X70707471Y-102765671D01*
X70795500Y-102553676D01*
X70795623Y-102413000D01*
X71381555Y-102413000D01*
X71381400Y-102590769D01*
M02*
