G04 #@! TF.GenerationSoftware,KiCad,Pcbnew,no-vcs-found-8f3423b~58~ubuntu16.04.1*
G04 #@! TF.CreationDate,2017-04-01T02:17:13+02:00*
G04 #@! TF.ProjectId,DrChibi,447243686962692E6B696361645F7063,1.0*
G04 #@! TF.FileFunction,Copper,L4,Bot,Signal*
G04 #@! TF.FilePolarity,Positive*
%FSLAX46Y46*%
G04 Gerber Fmt 4.6, Leading zero omitted, Abs format (unit mm)*
G04 Created by KiCad (PCBNEW no-vcs-found-8f3423b~58~ubuntu16.04.1) date Sat Apr  1 02:17:13 2017*
%MOMM*%
%LPD*%
G01*
G04 APERTURE LIST*
%ADD10C,0.100000*%
%ADD11C,0.250000*%
%ADD12C,0.600000*%
%ADD13R,3.000000X0.800000*%
%ADD14C,2.500000*%
%ADD15R,5.000000X1.000000*%
%ADD16R,1.200000X0.900000*%
%ADD17C,1.050000*%
%ADD18R,1.050000X1.050000*%
%ADD19R,6.000000X3.000000*%
%ADD20R,6.000000X3.500000*%
%ADD21R,1.200000X0.750000*%
%ADD22R,3.000000X2.100000*%
%ADD23R,1.600000X0.800000*%
%ADD24R,1.600000X1.000000*%
%ADD25R,1.600000X2.000000*%
%ADD26C,1.000000*%
%ADD27R,0.750000X1.200000*%
%ADD28R,0.900000X1.200000*%
%ADD29R,2.500000X1.200000*%
%ADD30R,0.800100X0.800100*%
%ADD31R,1.000000X1.000000*%
%ADD32R,0.500000X0.600000*%
%ADD33C,0.300000*%
%ADD34C,0.254000*%
G04 APERTURE END LIST*
D10*
D11*
X35088952Y-106151571D02*
X35231809Y-106199190D01*
X35279428Y-106246809D01*
X35327047Y-106342047D01*
X35327047Y-106484904D01*
X35279428Y-106580142D01*
X35231809Y-106627761D01*
X35136571Y-106675380D01*
X34755619Y-106675380D01*
X34755619Y-105675380D01*
X35088952Y-105675380D01*
X35184190Y-105723000D01*
X35231809Y-105770619D01*
X35279428Y-105865857D01*
X35279428Y-105961095D01*
X35231809Y-106056333D01*
X35184190Y-106103952D01*
X35088952Y-106151571D01*
X34755619Y-106151571D01*
X35755619Y-106580142D02*
X35803238Y-106627761D01*
X35755619Y-106675380D01*
X35708000Y-106627761D01*
X35755619Y-106580142D01*
X35755619Y-106675380D01*
X36803238Y-106580142D02*
X36755619Y-106627761D01*
X36612761Y-106675380D01*
X36517523Y-106675380D01*
X36374666Y-106627761D01*
X36279428Y-106532523D01*
X36231809Y-106437285D01*
X36184190Y-106246809D01*
X36184190Y-106103952D01*
X36231809Y-105913476D01*
X36279428Y-105818238D01*
X36374666Y-105723000D01*
X36517523Y-105675380D01*
X36612761Y-105675380D01*
X36755619Y-105723000D01*
X36803238Y-105770619D01*
X37660380Y-106008714D02*
X37660380Y-106675380D01*
X37231809Y-106008714D02*
X37231809Y-106532523D01*
X37279428Y-106627761D01*
X37374666Y-106675380D01*
X37517523Y-106675380D01*
X37612761Y-106627761D01*
X37660380Y-106580142D01*
D12*
X52083000Y-99746000D03*
X54496000Y-106350000D03*
X56401000Y-106223000D03*
D13*
X42711000Y-96317000D03*
X42711000Y-98857000D03*
X42711000Y-101397000D03*
X42711000Y-103937000D03*
X52311000Y-103937000D03*
X52311000Y-101397000D03*
X52311000Y-98857000D03*
X52311000Y-96317000D03*
D14*
X176289000Y-94666000D03*
X176289000Y-100000000D03*
X176289000Y-105334000D03*
X39256000Y-105334000D03*
D12*
X89167000Y-100508000D03*
X64910000Y-103937000D03*
X167145000Y-97333000D03*
X166129000Y-97333000D03*
X168542000Y-100000000D03*
X167399000Y-100000000D03*
X166256000Y-100000000D03*
X153810000Y-100000000D03*
X152667000Y-100000000D03*
X151524000Y-100000000D03*
X139205000Y-100000000D03*
X138062000Y-100000000D03*
X136919000Y-100000000D03*
X124473000Y-100000000D03*
X123330000Y-100000000D03*
X122187000Y-100000000D03*
X152413000Y-97460000D03*
X151397000Y-97460000D03*
X137808000Y-97460000D03*
X136792000Y-97460000D03*
X123076000Y-97460000D03*
X122060000Y-97460000D03*
X108217000Y-97460000D03*
X107201000Y-97460000D03*
X108598000Y-100000000D03*
X107455000Y-100000000D03*
X95009000Y-100000000D03*
X93866000Y-100000000D03*
X92723000Y-100000000D03*
X92469000Y-97460000D03*
X102248000Y-100508000D03*
X59068000Y-106223000D03*
X55512000Y-106350000D03*
X164224000Y-100508000D03*
X148476000Y-100508000D03*
X149492000Y-100508000D03*
X163208000Y-100508000D03*
X162192000Y-100508000D03*
X133744000Y-100508000D03*
X131712000Y-100508000D03*
X147460000Y-100508000D03*
X132728000Y-100508000D03*
X162700000Y-97460000D03*
X145936000Y-97460000D03*
X144920000Y-97460000D03*
X146952000Y-97460000D03*
X133363000Y-97460000D03*
X132347000Y-97460000D03*
X131331000Y-97460000D03*
X130315000Y-97460000D03*
X147968000Y-97460000D03*
X159652000Y-97460000D03*
X160668000Y-97460000D03*
X161684000Y-97460000D03*
X161176000Y-100508000D03*
X146444000Y-100508000D03*
X134760000Y-100508000D03*
X116599000Y-97460000D03*
X117615000Y-97460000D03*
X118631000Y-97460000D03*
X115583000Y-97460000D03*
X119012000Y-100508000D03*
X117996000Y-100508000D03*
X116980000Y-100508000D03*
X120028000Y-100508000D03*
X103772000Y-97460000D03*
X100724000Y-97460000D03*
X102756000Y-97460000D03*
X101740000Y-97460000D03*
X103264000Y-100508000D03*
X109741000Y-100000000D03*
X104280000Y-100508000D03*
X105296000Y-100508000D03*
X93485000Y-97460000D03*
X89040000Y-97460000D03*
X87008000Y-97460000D03*
X88024000Y-97460000D03*
X88151000Y-100508000D03*
X87135000Y-100508000D03*
X90183000Y-100508000D03*
D15*
X160033000Y-96184000D03*
X160033000Y-101784000D03*
D16*
X76297000Y-106096000D03*
X74097000Y-106096000D03*
X76043000Y-104826000D03*
X73843000Y-104826000D03*
X75535000Y-103302000D03*
X73335000Y-103302000D03*
X74773000Y-101651000D03*
X72573000Y-101651000D03*
X75154000Y-100254000D03*
X72954000Y-100254000D03*
X75154000Y-98984000D03*
X72954000Y-98984000D03*
X70160000Y-106096000D03*
X72360000Y-106096000D03*
D17*
X53861000Y-94602500D03*
X52591000Y-94602500D03*
X51321000Y-94602500D03*
X50051000Y-94602500D03*
D18*
X48781000Y-94602500D03*
D17*
X48273000Y-98349000D03*
X48273000Y-103429000D03*
X48273000Y-102159000D03*
X48273000Y-100889000D03*
X48273000Y-99619000D03*
X47003000Y-103429000D03*
X47003000Y-102159000D03*
X47003000Y-100889000D03*
X47003000Y-99619000D03*
D18*
X47003000Y-98349000D03*
D19*
X166383000Y-95555000D03*
D20*
X166383000Y-102921000D03*
D16*
X41839000Y-94031000D03*
X44039000Y-94031000D03*
D21*
X41862000Y-105842000D03*
X43762000Y-105842000D03*
D22*
X36208000Y-95448000D03*
X36208000Y-104298000D03*
D23*
X39108000Y-97998000D03*
X39108000Y-99248000D03*
X39108000Y-100498000D03*
X39108000Y-101748000D03*
D14*
X39256000Y-94666000D03*
D24*
X86881000Y-100230000D03*
X86881000Y-97230000D03*
X89167000Y-100230000D03*
X89167000Y-97230000D03*
X129426000Y-100230000D03*
X129426000Y-97230000D03*
X117488000Y-100230000D03*
X117488000Y-97230000D03*
X135776000Y-100230000D03*
X135776000Y-97230000D03*
X140221000Y-100230000D03*
X140221000Y-97230000D03*
D25*
X148730000Y-100730000D03*
X148730000Y-96730000D03*
X150889000Y-100730000D03*
X150889000Y-96730000D03*
X146571000Y-100730000D03*
X146571000Y-96730000D03*
X133490000Y-100730000D03*
X133490000Y-96730000D03*
X153048000Y-100730000D03*
X153048000Y-96730000D03*
X144412000Y-100730000D03*
X144412000Y-96730000D03*
D24*
X120028000Y-100230000D03*
X120028000Y-97230000D03*
X103010000Y-100230000D03*
X103010000Y-97230000D03*
X105423000Y-100230000D03*
X105423000Y-97230000D03*
X108979000Y-100230000D03*
X108979000Y-97230000D03*
X124092000Y-100230000D03*
X124092000Y-97230000D03*
X91326000Y-100230000D03*
X91326000Y-97230000D03*
D26*
X36208000Y-99873000D03*
X176416000Y-97333000D03*
D16*
X69947000Y-101397000D03*
X67747000Y-101397000D03*
D27*
X62497000Y-106030000D03*
X62497000Y-104130000D03*
D16*
X66391000Y-105588000D03*
X64191000Y-105588000D03*
D28*
X67958000Y-106180000D03*
X67958000Y-103980000D03*
D29*
X60084000Y-104191000D03*
D30*
X69286420Y-99238000D03*
X67287440Y-98288000D03*
X67287440Y-100188000D03*
D31*
X156680200Y-94996200D03*
X173952200Y-97993400D03*
X79261000Y-96367800D03*
D32*
X82359800Y-97240200D03*
X82359800Y-98340200D03*
X78803800Y-97494200D03*
X78803800Y-98594200D03*
X79819800Y-97468800D03*
X79819800Y-98568800D03*
D12*
X86627000Y-93523000D03*
X50178000Y-105588000D03*
X173241000Y-99492000D03*
X59957000Y-106223000D03*
X65291000Y-105969000D03*
X81166000Y-106096000D03*
X59703000Y-97333000D03*
X66408600Y-93523000D03*
X57798000Y-97079000D03*
X171463000Y-93650000D03*
X153175000Y-93650000D03*
X138570000Y-93650000D03*
X171082000Y-105842000D03*
X156350000Y-105842000D03*
X141745000Y-105842000D03*
X123838000Y-93650000D03*
X127076500Y-105842000D03*
X109169500Y-93650000D03*
X85357000Y-105842000D03*
X63894000Y-102921000D03*
X75832000Y-102286000D03*
X112154000Y-105842000D03*
X97549000Y-105842000D03*
X94501000Y-93650000D03*
X81928000Y-105588000D03*
X100089000Y-105207000D03*
X48781000Y-97206000D03*
X67577000Y-95555000D03*
X68974000Y-105461000D03*
X66383200Y-104013200D03*
X62116000Y-96317000D03*
X64084500Y-98730000D03*
X173876000Y-105207000D03*
X159271000Y-105207000D03*
X144666000Y-105207000D03*
X129997500Y-105207000D03*
X115075000Y-105207000D03*
X50432000Y-100635000D03*
X47638000Y-105080000D03*
X172479000Y-96571000D03*
X57036000Y-99873000D03*
X57925000Y-99873000D03*
X76975000Y-100000000D03*
X159525000Y-98730000D03*
X144793000Y-98730000D03*
X130061000Y-98730000D03*
X115202000Y-98730000D03*
X100343000Y-98730000D03*
X70218600Y-102438400D03*
X51321000Y-102667000D03*
X65926000Y-98857000D03*
X70218600Y-96545600D03*
X45123400Y-95377200D03*
X75133500Y-97079000D03*
X65087800Y-93802400D03*
X75959000Y-96888500D03*
X45987000Y-94285000D03*
X45225000Y-98349000D03*
X72149000Y-97396500D03*
X71323500Y-97460000D03*
X45758400Y-102032000D03*
X50940000Y-100000000D03*
X69355000Y-102413000D03*
X68720000Y-102921000D03*
X51575000Y-100508000D03*
X52083000Y-105207000D03*
X70117000Y-104191000D03*
X53353000Y-106223000D03*
X69418500Y-104572000D03*
X83833000Y-97053600D03*
X101232000Y-101524000D03*
X84772800Y-100558800D03*
X115583000Y-102095500D03*
X83807600Y-97815600D03*
X74435000Y-102667000D03*
X129489500Y-102667000D03*
X79438800Y-106451600D03*
X70879000Y-104368800D03*
X173241000Y-106350000D03*
X158509000Y-106350000D03*
X143777000Y-106350000D03*
X129045000Y-106350000D03*
X114186000Y-106350000D03*
X99327000Y-106350000D03*
X75705000Y-97612400D03*
X170193000Y-95301000D03*
X155588000Y-95301000D03*
X140983000Y-95301000D03*
X126124000Y-95301000D03*
X111265000Y-95301000D03*
X96406000Y-95301000D03*
X77229000Y-95555000D03*
X129807000Y-94285000D03*
X76721000Y-96317000D03*
X115011500Y-94348500D03*
X100216000Y-94158000D03*
X75895500Y-95999500D03*
X77229000Y-97917200D03*
X174003000Y-96444000D03*
X171336000Y-97333000D03*
X157239000Y-98095000D03*
X142570500Y-98095000D03*
X127838500Y-98095000D03*
X113043000Y-98095000D03*
X98311000Y-98095000D03*
X74816000Y-97904500D03*
X127089200Y-95301000D03*
X112535000Y-94285000D03*
X72339500Y-96571000D03*
X97866500Y-94158000D03*
X71895000Y-95872500D03*
X77864000Y-105969000D03*
X85230000Y-104572000D03*
X101105000Y-104572000D03*
X74943000Y-104267200D03*
X76467000Y-103683000D03*
X116091000Y-104572000D03*
X82690000Y-104381500D03*
X73609500Y-102413000D03*
X82131200Y-99898400D03*
X144793000Y-103175000D03*
X144666000Y-94158000D03*
X69418500Y-98285500D03*
X142049800Y-95148600D03*
X71958500Y-102476500D03*
X68821600Y-94386600D03*
X69672500Y-95936000D03*
X159398000Y-103556000D03*
X81547000Y-100508000D03*
X83007500Y-101968500D03*
X174130000Y-104191000D03*
X159398000Y-94158000D03*
X71133000Y-98920500D03*
X71768000Y-99492000D03*
X171590000Y-96571000D03*
X77864000Y-100889000D03*
X171082000Y-95936000D03*
X82283600Y-96393200D03*
X156350000Y-95936000D03*
X77737000Y-103810000D03*
X131077000Y-104572000D03*
X85484000Y-102476500D03*
X77864000Y-102540000D03*
X146190000Y-104572000D03*
X85103000Y-101778000D03*
X77610000Y-101651000D03*
X81864500Y-102730500D03*
X160922000Y-104572000D03*
X74308000Y-97206000D03*
X47638000Y-94539000D03*
X73482500Y-97333000D03*
X68847000Y-95936000D03*
X65773600Y-97561600D03*
X68720000Y-97777500D03*
X66383200Y-98069600D03*
X70180500Y-98793500D03*
X71831500Y-100254000D03*
X71323500Y-100952500D03*
X44971000Y-96825000D03*
X80658000Y-97663200D03*
X81470800Y-97764800D03*
X77940200Y-97451300D03*
D11*
X67287440Y-100188000D02*
X67287440Y-100937440D01*
X67287440Y-100937440D02*
X67747000Y-101397000D01*
X89167000Y-100230000D02*
X86881000Y-100230000D01*
X91326000Y-100230000D02*
X89167000Y-100230000D01*
X103010000Y-100230000D02*
X91326000Y-100230000D01*
X105423000Y-100230000D02*
X103010000Y-100230000D01*
X108979000Y-100230000D02*
X107929000Y-100230000D01*
X107929000Y-100230000D02*
X105423000Y-100230000D01*
X117488000Y-100230000D02*
X116438000Y-100230000D01*
X116438000Y-100230000D02*
X108979000Y-100230000D01*
X120028000Y-100230000D02*
X118978000Y-100230000D01*
X118978000Y-100230000D02*
X117488000Y-100230000D01*
X124092000Y-100230000D02*
X120028000Y-100230000D01*
X129426000Y-100230000D02*
X124092000Y-100230000D01*
X129426000Y-100230000D02*
X132990000Y-100230000D01*
X132990000Y-100230000D02*
X133490000Y-100730000D01*
X135776000Y-100230000D02*
X133990000Y-100230000D01*
X133990000Y-100230000D02*
X133490000Y-100730000D01*
X135776000Y-100230000D02*
X140221000Y-100230000D01*
X140221000Y-100230000D02*
X143912000Y-100230000D01*
X143912000Y-100230000D02*
X144412000Y-100730000D01*
X153048000Y-100730000D02*
X159729000Y-100730000D01*
X159729000Y-100730000D02*
X160033000Y-101034000D01*
X160033000Y-101034000D02*
X160033000Y-101784000D01*
X153048000Y-100730000D02*
X153048000Y-100381000D01*
X153048000Y-100381000D02*
X152667000Y-100000000D01*
X150889000Y-100730000D02*
X153048000Y-100730000D01*
X148730000Y-100730000D02*
X146571000Y-100730000D01*
X148730000Y-100730000D02*
X150889000Y-100730000D01*
X146444000Y-100508000D02*
X148476000Y-100508000D01*
X144412000Y-100730000D02*
X146222000Y-100730000D01*
X146222000Y-100730000D02*
X146444000Y-100508000D01*
X154826000Y-100230000D02*
X154040000Y-100230000D01*
X154040000Y-100230000D02*
X153810000Y-100000000D01*
X160033000Y-101784000D02*
X160033000Y-101651000D01*
X160033000Y-101651000D02*
X161176000Y-100508000D01*
X164224000Y-100508000D02*
X166383000Y-102667000D01*
X166383000Y-102667000D02*
X166383000Y-102921000D01*
X163208000Y-100508000D02*
X161932000Y-101784000D01*
X161932000Y-101784000D02*
X160033000Y-101784000D01*
X162192000Y-100508000D02*
X160916000Y-101784000D01*
X160916000Y-101784000D02*
X160033000Y-101784000D01*
X161176000Y-100508000D02*
X161176000Y-100641000D01*
X161176000Y-100641000D02*
X160033000Y-101784000D01*
X52311000Y-103937000D02*
X52845000Y-103937000D01*
X52845000Y-103937000D02*
X54496000Y-105588000D01*
X54496000Y-105588000D02*
X54496000Y-106350000D01*
X50178000Y-105588000D02*
X50178000Y-105080000D01*
X50178000Y-105080000D02*
X50178000Y-105207000D01*
X50178000Y-105207000D02*
X50178000Y-105080000D01*
X50559000Y-104699000D02*
X50305000Y-104953000D01*
X50305000Y-104953000D02*
X50178000Y-105080000D01*
X51321000Y-103937000D02*
X50559000Y-104699000D01*
X52311000Y-103937000D02*
X51321000Y-103937000D01*
X84468000Y-93573800D02*
X66484800Y-93446800D01*
X66484800Y-93446800D02*
X66408600Y-93523000D01*
X123838000Y-93650000D02*
X124092000Y-93650000D01*
X138443000Y-93523000D02*
X138570000Y-93650000D01*
X124219000Y-93523000D02*
X138443000Y-93523000D01*
X124092000Y-93650000D02*
X124219000Y-93523000D01*
X138570000Y-93650000D02*
X143904000Y-93650000D01*
X143904000Y-93650000D02*
X144031000Y-93523000D01*
X144031000Y-93523000D02*
X145174000Y-93523000D01*
X145174000Y-93523000D02*
X145301000Y-93650000D01*
X145301000Y-93650000D02*
X153175000Y-93650000D01*
X153175000Y-93650000D02*
X158763000Y-93650000D01*
X159906000Y-93650000D02*
X171463000Y-93650000D01*
X159779000Y-93523000D02*
X159906000Y-93650000D01*
X158890000Y-93523000D02*
X159779000Y-93523000D01*
X158763000Y-93650000D02*
X158890000Y-93523000D01*
X171463000Y-93650000D02*
X171336000Y-93523000D01*
X171336000Y-93523000D02*
X153302000Y-93523000D01*
X153302000Y-93523000D02*
X153175000Y-93650000D01*
X163462000Y-105842000D02*
X171082000Y-105842000D01*
X156350000Y-105842000D02*
X158001000Y-105842000D01*
X159017000Y-105842000D02*
X163462000Y-105842000D01*
X163462000Y-105842000D02*
X163589000Y-105842000D01*
X158890000Y-105715000D02*
X159017000Y-105842000D01*
X158128000Y-105715000D02*
X158890000Y-105715000D01*
X158001000Y-105842000D02*
X158128000Y-105715000D01*
X154699000Y-105842000D02*
X156350000Y-105842000D01*
X143269000Y-105842000D02*
X143396000Y-105715000D01*
X143396000Y-105715000D02*
X144158000Y-105715000D01*
X144158000Y-105715000D02*
X144285000Y-105842000D01*
X144285000Y-105842000D02*
X154699000Y-105842000D01*
X141745000Y-105842000D02*
X143269000Y-105842000D01*
X134252000Y-105842000D02*
X141745000Y-105842000D01*
X114821000Y-105842000D02*
X115011500Y-106032500D01*
X128600500Y-105651500D02*
X128600500Y-105778500D01*
X128219500Y-106032500D02*
X128600500Y-105651500D01*
X115011500Y-106032500D02*
X128219500Y-106032500D01*
X116726000Y-105842000D02*
X115329000Y-105842000D01*
X115329000Y-105842000D02*
X115329000Y-105778500D01*
X115329000Y-105778500D02*
X115329000Y-105842000D01*
X118631000Y-93650000D02*
X118885000Y-93650000D01*
X109169500Y-93650000D02*
X118631000Y-93650000D01*
X123711000Y-93523000D02*
X123838000Y-93650000D01*
X119012000Y-93523000D02*
X123711000Y-93523000D01*
X118885000Y-93650000D02*
X119012000Y-93523000D01*
X127076500Y-105842000D02*
X128537000Y-105842000D01*
X128537000Y-105842000D02*
X128600500Y-105778500D01*
X129680000Y-105842000D02*
X134252000Y-105842000D01*
X134252000Y-105842000D02*
X134315500Y-105842000D01*
X128600500Y-105778500D02*
X128727500Y-105651500D01*
X128727500Y-105651500D02*
X129489500Y-105651500D01*
X129489500Y-105651500D02*
X129680000Y-105842000D01*
X114821000Y-105842000D02*
X115329000Y-105842000D01*
X115329000Y-105842000D02*
X127076500Y-105842000D01*
X114694000Y-105715000D02*
X114821000Y-105842000D01*
X108217000Y-93523000D02*
X109042500Y-93523000D01*
X109042500Y-93523000D02*
X109169500Y-93650000D01*
X100724000Y-93523000D02*
X108090000Y-93523000D01*
X108090000Y-93523000D02*
X108217000Y-93523000D01*
X99835000Y-93523000D02*
X100724000Y-93523000D01*
X99708000Y-93650000D02*
X99835000Y-93523000D01*
X98311000Y-93650000D02*
X99708000Y-93650000D01*
X98184000Y-93523000D02*
X98311000Y-93650000D01*
X97041000Y-93523000D02*
X98184000Y-93523000D01*
X108217000Y-93523000D02*
X108344000Y-93523000D01*
D33*
X160033000Y-101784000D02*
X165246000Y-101784000D01*
X165246000Y-101784000D02*
X166383000Y-102921000D01*
D11*
X67747000Y-101270000D02*
X67323000Y-101270000D01*
X67323000Y-101270000D02*
X67196000Y-101397000D01*
X67196000Y-101397000D02*
X65672000Y-101397000D01*
X65672000Y-101397000D02*
X64148000Y-102921000D01*
X64148000Y-102921000D02*
X63894000Y-102921000D01*
X67747000Y-101270000D02*
X65545000Y-101270000D01*
X65545000Y-101270000D02*
X63894000Y-102921000D01*
X111392000Y-106032500D02*
X113487500Y-106032500D01*
X112154000Y-105842000D02*
X112408000Y-105842000D01*
X113551000Y-105905500D02*
X113614500Y-105842000D01*
X112471500Y-105905500D02*
X113551000Y-105905500D01*
X112408000Y-105842000D02*
X112471500Y-105905500D01*
X112154000Y-105842000D02*
X112344500Y-105842000D01*
X112471500Y-105715000D02*
X113868500Y-105715000D01*
X112344500Y-105842000D02*
X112471500Y-105715000D01*
X86373000Y-105651500D02*
X97358500Y-105651500D01*
X97358500Y-105651500D02*
X97549000Y-105842000D01*
X97549000Y-105842000D02*
X98819000Y-105842000D01*
X98819000Y-105842000D02*
X98692000Y-105842000D01*
X98692000Y-105842000D02*
X98692000Y-105969000D01*
X96787000Y-106032500D02*
X98628500Y-106032500D01*
X98628500Y-106032500D02*
X98692000Y-105969000D01*
X98692000Y-105969000D02*
X98946000Y-105715000D01*
X99073000Y-105715000D02*
X98946000Y-105715000D01*
X99835000Y-105842000D02*
X99898500Y-105842000D01*
X99708000Y-105715000D02*
X99835000Y-105842000D01*
X99073000Y-105715000D02*
X99708000Y-105715000D01*
X98946000Y-105715000D02*
X97676000Y-105715000D01*
X97676000Y-105715000D02*
X97549000Y-105842000D01*
X85801500Y-106032500D02*
X96787000Y-106032500D01*
X96787000Y-106032500D02*
X97358500Y-106032500D01*
X97358500Y-106032500D02*
X97549000Y-105842000D01*
X99898500Y-105842000D02*
X99962000Y-105842000D01*
X99962000Y-105842000D02*
X100152500Y-106032500D01*
X100152500Y-106032500D02*
X111392000Y-106032500D01*
X111392000Y-106032500D02*
X111963500Y-106032500D01*
X111963500Y-106032500D02*
X112154000Y-105842000D01*
X100533500Y-105842000D02*
X100533500Y-105797502D01*
X111963500Y-105651500D02*
X112154000Y-105842000D01*
X100679502Y-105651500D02*
X111963500Y-105651500D01*
X100533500Y-105797502D02*
X100679502Y-105651500D01*
X100533500Y-105842000D02*
X100343000Y-105842000D01*
X101613000Y-105842000D02*
X101740000Y-105842000D01*
X101613000Y-105842000D02*
X103899000Y-105842000D01*
X100343000Y-105842000D02*
X100914500Y-105842000D01*
X110630000Y-105842000D02*
X103899000Y-105842000D01*
X110630000Y-105842000D02*
X112154000Y-105842000D01*
X101740000Y-105842000D02*
X100914500Y-105842000D01*
X86881000Y-105842000D02*
X86627000Y-105842000D01*
X86436500Y-105651500D02*
X86373000Y-105651500D01*
X86373000Y-105651500D02*
X84976000Y-105651500D01*
X86627000Y-105842000D02*
X86436500Y-105651500D01*
X85928500Y-105842000D02*
X85928500Y-105905500D01*
X85801500Y-106032500D02*
X84976000Y-106032500D01*
X85928500Y-105905500D02*
X85801500Y-106032500D01*
X113868500Y-105715000D02*
X114694000Y-105715000D01*
X99898500Y-105842000D02*
X100343000Y-105842000D01*
X92469000Y-105842000D02*
X86881000Y-105842000D01*
X97549000Y-105842000D02*
X92469000Y-105842000D01*
X86881000Y-105842000D02*
X85928500Y-105842000D01*
X84976000Y-105651500D02*
X84785500Y-105842000D01*
X84976000Y-106032500D02*
X84785500Y-105842000D01*
X85357000Y-105842000D02*
X84785500Y-105842000D01*
X84785500Y-105842000D02*
X84785500Y-105842000D01*
X85547500Y-105842000D02*
X85357000Y-105842000D01*
X85928500Y-105842000D02*
X85547500Y-105842000D01*
X94501000Y-93650000D02*
X96914000Y-93650000D01*
X96914000Y-93650000D02*
X97041000Y-93523000D01*
X67287440Y-98288000D02*
X67287440Y-98694440D01*
X67958000Y-102794000D02*
X67958000Y-103980000D01*
X68847000Y-101905000D02*
X67958000Y-102794000D01*
X68847000Y-100254000D02*
X68847000Y-101905000D01*
X67287440Y-98694440D02*
X68847000Y-100254000D01*
X67958000Y-103980000D02*
X66416400Y-103980000D01*
X66416400Y-103980000D02*
X66383200Y-104013200D01*
X84341000Y-105651500D02*
X81991500Y-105651500D01*
X84785500Y-105207000D02*
X84341000Y-105651500D01*
X100089000Y-105207000D02*
X85357000Y-105207000D01*
X85357000Y-105207000D02*
X84785500Y-105207000D01*
X81991500Y-105651500D02*
X81928000Y-105588000D01*
X100089000Y-105207000D02*
X113170000Y-105207000D01*
X48781000Y-97206000D02*
X49289000Y-96698000D01*
X49289000Y-96698000D02*
X51930000Y-96698000D01*
X51930000Y-96698000D02*
X52311000Y-96317000D01*
X159271000Y-105207000D02*
X173876000Y-105207000D01*
X144666000Y-105207000D02*
X159271000Y-105207000D01*
X129997500Y-105207000D02*
X144666000Y-105207000D01*
X127521000Y-105207000D02*
X129997500Y-105207000D01*
X115075000Y-105207000D02*
X127457500Y-105207000D01*
X127457500Y-105207000D02*
X127521000Y-105207000D01*
X115075000Y-105207000D02*
X113170000Y-105207000D01*
X113170000Y-105207000D02*
X113678000Y-105207000D01*
D33*
X171336000Y-98857000D02*
X172606000Y-97587000D01*
X172606000Y-96698000D02*
X172479000Y-96571000D01*
X172606000Y-97587000D02*
X172606000Y-96698000D01*
X172479000Y-96571000D02*
X172479000Y-97460000D01*
X172479000Y-97460000D02*
X171209000Y-98730000D01*
X171209000Y-98730000D02*
X171336000Y-98603000D01*
X171336000Y-98603000D02*
X171336000Y-98730000D01*
X58814000Y-100127000D02*
X57925000Y-99873000D01*
X115202000Y-98730000D02*
X115246002Y-98730000D01*
X171336000Y-98730000D02*
X171209000Y-98857000D01*
X115246002Y-98730000D02*
X115373002Y-98857000D01*
X115373002Y-98857000D02*
X171336000Y-98857000D01*
X171336000Y-98857000D02*
X171209000Y-98857000D01*
X79261000Y-100000000D02*
X79007000Y-99746000D01*
X79007000Y-99746000D02*
X77229000Y-99746000D01*
X77229000Y-99746000D02*
X76975000Y-100000000D01*
X77737000Y-100000000D02*
X79261000Y-100000000D01*
X79261000Y-100000000D02*
X80404000Y-101143000D01*
X77610000Y-100000000D02*
X76975000Y-100000000D01*
X77737000Y-100127000D02*
X77610000Y-100000000D01*
X77356000Y-100127000D02*
X77102000Y-100127000D01*
X77102000Y-100127000D02*
X76975000Y-100000000D01*
X81801000Y-101143000D02*
X80404000Y-101143000D01*
X80404000Y-101143000D02*
X80150000Y-101143000D01*
X80150000Y-101143000D02*
X80023000Y-101016000D01*
X100343000Y-98730000D02*
X100387002Y-98730000D01*
X115075000Y-98857000D02*
X115202000Y-98730000D01*
X100514002Y-98857000D02*
X115075000Y-98857000D01*
X100387002Y-98730000D02*
X100514002Y-98857000D01*
X81547000Y-101397000D02*
X80404000Y-101397000D01*
X80404000Y-101397000D02*
X80023000Y-101016000D01*
X79134000Y-100127000D02*
X78245000Y-100127000D01*
X80023000Y-101016000D02*
X79134000Y-100127000D01*
X84595000Y-98857000D02*
X84501956Y-98857000D01*
X81834956Y-101524000D02*
X81166000Y-101524000D01*
X84501956Y-98857000D02*
X81834956Y-101524000D01*
X81547000Y-101524000D02*
X81547000Y-101397000D01*
X81547000Y-101397000D02*
X81801000Y-101143000D01*
X100343000Y-98730000D02*
X100171998Y-98730000D01*
X100171998Y-98730000D02*
X100044998Y-98603000D01*
X100044998Y-98603000D02*
X98946000Y-98603000D01*
X98946000Y-98603000D02*
X98819000Y-98730000D01*
X98819000Y-98730000D02*
X97803000Y-98730000D01*
X97803000Y-98730000D02*
X97676000Y-98603000D01*
X97676000Y-98603000D02*
X84849000Y-98603000D01*
X84595000Y-98603000D02*
X84468000Y-98730000D01*
X84849000Y-98603000D02*
X84595000Y-98603000D01*
X84595000Y-98857000D02*
X84468000Y-98730000D01*
X100044998Y-98857000D02*
X84595000Y-98857000D01*
X100171998Y-98730000D02*
X100044998Y-98857000D01*
X78880000Y-100127000D02*
X78245000Y-100127000D01*
X80912000Y-101524000D02*
X80277000Y-101524000D01*
X80277000Y-101524000D02*
X78880000Y-100127000D01*
X78245000Y-100127000D02*
X77356000Y-100127000D01*
X77356000Y-100127000D02*
X77356000Y-100127000D01*
X77356000Y-100127000D02*
X77356000Y-100127000D01*
X81674000Y-101524000D02*
X81547000Y-101524000D01*
X81547000Y-101524000D02*
X81166000Y-101524000D01*
X81166000Y-101524000D02*
X80912000Y-101524000D01*
X80912000Y-101524000D02*
X80785000Y-101524000D01*
X84468000Y-98730000D02*
X81674000Y-101524000D01*
X159525000Y-98730000D02*
X171336000Y-98730000D01*
X144793000Y-98730000D02*
X159525000Y-98730000D01*
X130061000Y-98730000D02*
X144793000Y-98730000D01*
X115202000Y-98730000D02*
X130061000Y-98730000D01*
X100978000Y-98730000D02*
X115202000Y-98730000D01*
X100343000Y-98730000D02*
X100978000Y-98730000D01*
X100978000Y-98730000D02*
X101105000Y-98730000D01*
X140221000Y-97230000D02*
X143912000Y-97230000D01*
X143912000Y-97230000D02*
X144412000Y-96730000D01*
X135776000Y-97230000D02*
X140221000Y-97230000D01*
X133490000Y-96730000D02*
X135276000Y-96730000D01*
X135276000Y-96730000D02*
X135776000Y-97230000D01*
X129426000Y-97230000D02*
X132990000Y-97230000D01*
X132990000Y-97230000D02*
X133490000Y-96730000D01*
X124092000Y-97230000D02*
X127861502Y-97230000D01*
X127861502Y-97230000D02*
X129426000Y-97230000D01*
X120028000Y-97230000D02*
X121128000Y-97230000D01*
X121128000Y-97230000D02*
X124092000Y-97230000D01*
X117488000Y-97230000D02*
X120028000Y-97230000D01*
X108979000Y-97230000D02*
X110079000Y-97230000D01*
X110079000Y-97230000D02*
X110309000Y-97460000D01*
X110309000Y-97460000D02*
X116158000Y-97460000D01*
X116158000Y-97460000D02*
X116388000Y-97230000D01*
X116388000Y-97230000D02*
X117488000Y-97230000D01*
X105423000Y-97230000D02*
X108979000Y-97230000D01*
X103010000Y-97230000D02*
X105423000Y-97230000D01*
X91326000Y-97230000D02*
X92426000Y-97230000D01*
X92426000Y-97230000D02*
X92656000Y-97460000D01*
X92656000Y-97460000D02*
X101680000Y-97460000D01*
X101680000Y-97460000D02*
X101910000Y-97230000D01*
X101910000Y-97230000D02*
X103010000Y-97230000D01*
X146571000Y-96730000D02*
X144412000Y-96730000D01*
X146571000Y-96730000D02*
X146571000Y-97079000D01*
X146571000Y-97079000D02*
X146952000Y-97460000D01*
X148730000Y-96730000D02*
X146571000Y-96730000D01*
X150889000Y-96730000D02*
X148730000Y-96730000D01*
X153048000Y-96730000D02*
X150889000Y-96730000D01*
X154826000Y-97230000D02*
X154326000Y-96730000D01*
X154326000Y-96730000D02*
X153048000Y-96730000D01*
X87008000Y-97460000D02*
X87008000Y-97357000D01*
X87008000Y-97357000D02*
X87135000Y-97230000D01*
X87135000Y-97230000D02*
X91326000Y-97230000D01*
X154826000Y-97230000D02*
X159422000Y-97230000D01*
X159422000Y-97230000D02*
X159652000Y-97460000D01*
X161684000Y-97460000D02*
X162700000Y-97460000D01*
X160668000Y-97460000D02*
X161684000Y-97460000D01*
X160033000Y-96184000D02*
X160033000Y-96825000D01*
X160033000Y-96825000D02*
X160668000Y-97460000D01*
X160033000Y-96184000D02*
X160033000Y-97079000D01*
X160033000Y-97079000D02*
X159652000Y-97460000D01*
X160033000Y-96184000D02*
X165754000Y-96184000D01*
X165754000Y-96184000D02*
X166383000Y-95555000D01*
X167145000Y-97333000D02*
X167145000Y-96317000D01*
X167145000Y-96317000D02*
X166383000Y-95555000D01*
X166129000Y-97333000D02*
X166129000Y-95809000D01*
X166129000Y-95809000D02*
X166383000Y-95555000D01*
X54369000Y-102667000D02*
X62116000Y-102667000D01*
X62116000Y-102667000D02*
X65926000Y-98857000D01*
X54369000Y-102667000D02*
X54496000Y-102667000D01*
X51321000Y-102667000D02*
X54369000Y-102667000D01*
D11*
X61785800Y-93802400D02*
X63411400Y-93802400D01*
X63411400Y-93802400D02*
X64275000Y-94666000D01*
X60261800Y-93802400D02*
X61785800Y-93802400D01*
X61785800Y-93802400D02*
X61811200Y-93802400D01*
X49667098Y-93802400D02*
X60261800Y-93802400D01*
X48781000Y-94602500D02*
X48866998Y-94602500D01*
X48866998Y-94602500D02*
X49667098Y-93802400D01*
X63563800Y-93954800D02*
X64275000Y-94666000D01*
X64275000Y-94666000D02*
X65666188Y-94666000D01*
X70371000Y-95809000D02*
X70371000Y-96393200D01*
X69736000Y-95174000D02*
X70371000Y-95809000D01*
X68212000Y-95174000D02*
X69736000Y-95174000D01*
X67958000Y-94920000D02*
X68212000Y-95174000D01*
X65920188Y-94920000D02*
X67958000Y-94920000D01*
X65666188Y-94666000D02*
X65920188Y-94920000D01*
X70371000Y-96393200D02*
X70218600Y-96545600D01*
X39108000Y-99248000D02*
X38708000Y-99248000D01*
X39861302Y-97079000D02*
X40506990Y-96433312D01*
X40926010Y-95154990D02*
X41839000Y-94242000D01*
X38708000Y-99248000D02*
X37986000Y-98526000D01*
X37986000Y-98526000D02*
X37986000Y-97424998D01*
X37986000Y-97424998D02*
X38331998Y-97079000D01*
X38331998Y-97079000D02*
X39861302Y-97079000D01*
X40506990Y-96433312D02*
X40506990Y-95560309D01*
X40506990Y-95560309D02*
X40912309Y-95154990D01*
X40912309Y-95154990D02*
X40926010Y-95154990D01*
X41839000Y-94242000D02*
X41839000Y-94031000D01*
X39108000Y-99248000D02*
X38662998Y-99248000D01*
X41689000Y-94031000D02*
X41839000Y-94031000D01*
X39108000Y-99248000D02*
X38631000Y-99248000D01*
X38377000Y-99248000D02*
X39108000Y-99248000D01*
X39108000Y-99248000D02*
X39774000Y-99248000D01*
X39774000Y-99248000D02*
X41923000Y-101397000D01*
X41923000Y-101397000D02*
X42711000Y-101397000D01*
X41077998Y-95555000D02*
X42365000Y-95555000D01*
X42365000Y-95555000D02*
X43889000Y-94031000D01*
X43889000Y-94031000D02*
X44039000Y-94031000D01*
X40907000Y-96599000D02*
X40907000Y-95725998D01*
X40907000Y-95725998D02*
X41077998Y-95555000D01*
X39108000Y-97998000D02*
X39508000Y-97998000D01*
X39508000Y-97998000D02*
X40907000Y-96599000D01*
X43828000Y-94031000D02*
X44039000Y-94031000D01*
X39108000Y-97998000D02*
X39861000Y-97998000D01*
X39108000Y-97998000D02*
X40556000Y-97998000D01*
X40556000Y-97998000D02*
X41415000Y-98857000D01*
X41415000Y-98857000D02*
X42711000Y-98857000D01*
X45987000Y-95174000D02*
X45326600Y-95174000D01*
X47779728Y-93381272D02*
X47003000Y-94158000D01*
X47790450Y-93381272D02*
X47779728Y-93381272D01*
X47003000Y-94158000D02*
X45987000Y-95174000D01*
X45326600Y-95174000D02*
X45123400Y-95377200D01*
X47790450Y-93381272D02*
X47784052Y-93374874D01*
X64687798Y-93402398D02*
X47790450Y-93381272D01*
X65087800Y-93802400D02*
X64687798Y-93402398D01*
X50940000Y-100000000D02*
X52083000Y-98857000D01*
X52311000Y-98857000D02*
X52083000Y-98857000D01*
X52464000Y-98857000D02*
X52311000Y-98857000D01*
X52311000Y-101397000D02*
X52311000Y-101244000D01*
X52311000Y-101244000D02*
X51575000Y-100508000D01*
X52210000Y-101397000D02*
X52311000Y-101397000D01*
X80150000Y-106477000D02*
X80531000Y-106477000D01*
X79464200Y-106477000D02*
X80150000Y-106477000D01*
X79464200Y-106477000D02*
X79438800Y-106451600D01*
X80785000Y-106731000D02*
X82182000Y-106731000D01*
X80531000Y-106477000D02*
X80785000Y-106731000D01*
X82436000Y-106477000D02*
X83198000Y-106477000D01*
X82182000Y-106731000D02*
X82436000Y-106477000D01*
X83198000Y-106477000D02*
X83198000Y-106477000D01*
X99200000Y-106477000D02*
X99327000Y-106350000D01*
X99200000Y-106477000D02*
X83198000Y-106477000D01*
X158509000Y-106350000D02*
X158763000Y-106350000D01*
X173114000Y-106477000D02*
X173241000Y-106350000D01*
X158890000Y-106477000D02*
X173114000Y-106477000D01*
X158763000Y-106350000D02*
X158890000Y-106477000D01*
X143777000Y-106350000D02*
X144031000Y-106350000D01*
X158382000Y-106477000D02*
X158509000Y-106350000D01*
X144158000Y-106477000D02*
X158382000Y-106477000D01*
X144031000Y-106350000D02*
X144158000Y-106477000D01*
X129045000Y-106350000D02*
X129299000Y-106350000D01*
X143650000Y-106477000D02*
X143777000Y-106350000D01*
X129426000Y-106477000D02*
X143650000Y-106477000D01*
X129299000Y-106350000D02*
X129426000Y-106477000D01*
X119583500Y-106477000D02*
X128854500Y-106540500D01*
X128854500Y-106540500D02*
X129045000Y-106350000D01*
X114186000Y-106350000D02*
X114440000Y-106350000D01*
X114567000Y-106477000D02*
X119583500Y-106477000D01*
X119583500Y-106477000D02*
X119647000Y-106477000D01*
X114440000Y-106350000D02*
X114567000Y-106477000D01*
X109487000Y-106477000D02*
X114059000Y-106477000D01*
X99581000Y-106350000D02*
X99708000Y-106477000D01*
X99708000Y-106477000D02*
X109487000Y-106477000D01*
X99327000Y-106350000D02*
X99581000Y-106350000D01*
X114059000Y-106477000D02*
X114186000Y-106350000D01*
X75705000Y-97612400D02*
X75755800Y-97663200D01*
X77356000Y-96533002D02*
X77356000Y-96279002D01*
X75755800Y-97663200D02*
X76009800Y-97663200D01*
X81083490Y-95002510D02*
X93186510Y-95002510D01*
X76009800Y-97663200D02*
X76730811Y-96942189D01*
X76730811Y-96942189D02*
X76946813Y-96942189D01*
X76946813Y-96942189D02*
X77356000Y-96533002D01*
X78461002Y-95174000D02*
X80912000Y-95174000D01*
X93269020Y-95085020D02*
X96190020Y-95085020D01*
X96190020Y-95085020D02*
X96406000Y-95301000D01*
X77356000Y-96279002D02*
X78461002Y-95174000D01*
X80912000Y-95174000D02*
X81083490Y-95002510D01*
X93186510Y-95002510D02*
X93269020Y-95085020D01*
X140983000Y-95301000D02*
X140983000Y-94666000D01*
X155080000Y-94793000D02*
X155588000Y-95301000D01*
X140983000Y-94666000D02*
X141364000Y-94285000D01*
X141364000Y-94285000D02*
X143941998Y-94285000D01*
X144920000Y-94793000D02*
X145428000Y-94285000D01*
X143941998Y-94285000D02*
X144449998Y-94793000D01*
X144449998Y-94793000D02*
X144920000Y-94793000D01*
X145428000Y-94285000D02*
X154572000Y-94285000D01*
X154572000Y-94285000D02*
X155080000Y-94793000D01*
X96406000Y-95301000D02*
X101105000Y-95301000D01*
X101105000Y-95301000D02*
X101720990Y-94685010D01*
X101720990Y-94685010D02*
X110649010Y-94685010D01*
X110649010Y-94685010D02*
X111265000Y-95301000D01*
X115964000Y-94412000D02*
X115837000Y-94412000D01*
X126124000Y-95301000D02*
X125824001Y-95001001D01*
X125824001Y-95001001D02*
X125235000Y-94412000D01*
X125235000Y-94412000D02*
X115964000Y-94412000D01*
X111519000Y-95047000D02*
X111265000Y-95301000D01*
X115202000Y-95047000D02*
X111519000Y-95047000D01*
X115837000Y-94412000D02*
X115202000Y-95047000D01*
X140983000Y-95301000D02*
X140094000Y-94412000D01*
X140094000Y-94412000D02*
X130823000Y-94412000D01*
X130823000Y-94412000D02*
X130188000Y-95047000D01*
X130188000Y-95047000D02*
X129426000Y-95047000D01*
X129426000Y-95047000D02*
X128918000Y-94539000D01*
X128918000Y-94539000D02*
X126886000Y-94539000D01*
X126886000Y-94539000D02*
X126124000Y-95301000D01*
X77635400Y-98628400D02*
X77635400Y-98272800D01*
X77635400Y-98628400D02*
X78270400Y-99263400D01*
X79125454Y-99263400D02*
X78270400Y-99263400D01*
X81741001Y-99323399D02*
X81445400Y-99619000D01*
X81445400Y-99619000D02*
X79481054Y-99619000D01*
X79481054Y-99619000D02*
X79125454Y-99263400D01*
X84083601Y-98428599D02*
X83188801Y-99323399D01*
X83188801Y-99323399D02*
X81741001Y-99323399D01*
X84083601Y-98390601D02*
X84083601Y-98428599D01*
X85484000Y-98095000D02*
X84379202Y-98095000D01*
X84379202Y-98095000D02*
X84083601Y-98390601D01*
X85484000Y-98095000D02*
X98311000Y-98095000D01*
X77279800Y-97917200D02*
X77229000Y-97917200D01*
X77635400Y-98272800D02*
X77279800Y-97917200D01*
X171336000Y-97333000D02*
X171336000Y-97460000D01*
X157239000Y-98095000D02*
X170701000Y-98095000D01*
X171336000Y-97460000D02*
X170701000Y-98095000D01*
X142570500Y-98095000D02*
X157239000Y-98095000D01*
X127838500Y-98095000D02*
X142570500Y-98095000D01*
X113043000Y-98095000D02*
X127838500Y-98095000D01*
X100724000Y-98095000D02*
X113043000Y-98095000D01*
X98311000Y-98095000D02*
X100724000Y-98095000D01*
X100724000Y-98095000D02*
X100851000Y-98095000D01*
X74816000Y-97904500D02*
X75170499Y-98258999D01*
X75170499Y-98258999D02*
X76455401Y-98258999D01*
X93103331Y-95485030D02*
X95574030Y-95485030D01*
X77838600Y-96616101D02*
X77838600Y-96393200D01*
X76455401Y-98258999D02*
X76653999Y-98060401D01*
X109969520Y-95085020D02*
X110884000Y-95999500D01*
X115367689Y-95447010D02*
X116002689Y-94812010D01*
X76653999Y-98060401D02*
X76653999Y-97641199D01*
X81137156Y-95583844D02*
X81318480Y-95402520D01*
X76653999Y-97641199D02*
X76952999Y-97342199D01*
X77838600Y-96393200D02*
X78647956Y-95583844D01*
X76952999Y-97342199D02*
X77112502Y-97342199D01*
X77112502Y-97342199D02*
X77838600Y-96616101D01*
X78647956Y-95583844D02*
X81137156Y-95583844D01*
X110884000Y-95999500D02*
X111582500Y-95999500D01*
X93020821Y-95402520D02*
X93103331Y-95485030D01*
X112134990Y-95447010D02*
X115367689Y-95447010D01*
X95574030Y-95485030D02*
X96025000Y-95936000D01*
X81318480Y-95402520D02*
X93020821Y-95402520D01*
X96025000Y-95936000D02*
X96850500Y-95936000D01*
X101226198Y-95745500D02*
X101886678Y-95085020D01*
X96850500Y-95936000D02*
X97041000Y-95745500D01*
X97041000Y-95745500D02*
X101226198Y-95745500D01*
X101886678Y-95085020D02*
X109969520Y-95085020D01*
X111582500Y-95999500D02*
X112134990Y-95447010D01*
X126514199Y-95876001D02*
X127089200Y-95301000D01*
X116002689Y-94812010D02*
X124784008Y-94812010D01*
X124784008Y-94812010D02*
X125847999Y-95876001D01*
X125847999Y-95876001D02*
X126514199Y-95876001D01*
X127089200Y-95301000D02*
X127063800Y-95301000D01*
X93294500Y-94602500D02*
X93490801Y-94602500D01*
X93490801Y-94602500D02*
X93573311Y-94685010D01*
X93573311Y-94685010D02*
X96894990Y-94685010D01*
X96894990Y-94685010D02*
X96914000Y-94666000D01*
X72339500Y-96571000D02*
X72530000Y-96380500D01*
X72530000Y-96380500D02*
X74435000Y-96380500D01*
X74435000Y-96380500D02*
X75959000Y-94856500D01*
X75959000Y-94856500D02*
X77546500Y-94856500D01*
X77546500Y-94856500D02*
X77800500Y-94602500D01*
X77800500Y-94602500D02*
X93294500Y-94602500D01*
X97041000Y-94793000D02*
X96914000Y-94666000D01*
X100978000Y-94793000D02*
X97041000Y-94793000D01*
X101486000Y-94285000D02*
X100978000Y-94793000D01*
X112535000Y-94285000D02*
X101486000Y-94285000D01*
X84277500Y-94158000D02*
X84976000Y-94158000D01*
X97866500Y-94158000D02*
X95009000Y-94158000D01*
X95009000Y-94158000D02*
X94882000Y-94285000D01*
X94882000Y-94285000D02*
X93739000Y-94285000D01*
X93739000Y-94285000D02*
X93612000Y-94158000D01*
X93612000Y-94158000D02*
X84976000Y-94158000D01*
X75895500Y-94158000D02*
X84277500Y-94158000D01*
X84277500Y-94158000D02*
X84341000Y-94158000D01*
X74181000Y-95872500D02*
X75895500Y-94158000D01*
X73800000Y-95872500D02*
X74181000Y-95872500D01*
X71895000Y-95872500D02*
X73800000Y-95872500D01*
X76297000Y-106096000D02*
X77737000Y-106096000D01*
X77737000Y-106096000D02*
X77864000Y-105969000D01*
X75578000Y-104826000D02*
X74943000Y-104267200D01*
X79769000Y-104953000D02*
X82309000Y-104953000D01*
X77102000Y-104826000D02*
X77229000Y-104953000D01*
X82563000Y-105207000D02*
X84087000Y-105207000D01*
X77229000Y-104953000D02*
X79769000Y-104953000D01*
X76043000Y-104826000D02*
X77102000Y-104826000D01*
X84144688Y-105207000D02*
X84779688Y-104572000D01*
X84779688Y-104572000D02*
X85230000Y-104572000D01*
X84087000Y-105207000D02*
X84144688Y-105207000D01*
X82309000Y-104953000D02*
X82563000Y-105207000D01*
X75578000Y-104826000D02*
X76043000Y-104826000D01*
X85230000Y-104572000D02*
X86500000Y-104572000D01*
X101105000Y-104572000D02*
X90691000Y-104572000D01*
X90691000Y-104572000D02*
X86500000Y-104572000D01*
X85865000Y-103937000D02*
X85166500Y-103937000D01*
X75535000Y-103302000D02*
X76086000Y-103302000D01*
X76086000Y-103302000D02*
X76467000Y-103683000D01*
X76467000Y-103683000D02*
X76721000Y-103683000D01*
X76721000Y-103683000D02*
X77483000Y-104445000D01*
X116091000Y-104572000D02*
X103772000Y-104572000D01*
X103772000Y-104572000D02*
X102248000Y-104572000D01*
X102248000Y-104572000D02*
X101613000Y-103937000D01*
X101613000Y-103937000D02*
X85865000Y-103937000D01*
X85865000Y-103937000D02*
X85738000Y-103937000D01*
X82055000Y-104445000D02*
X82626500Y-104445000D01*
X82626500Y-104445000D02*
X82690000Y-104381500D01*
X84849000Y-103937000D02*
X85166500Y-103937000D01*
X84404500Y-104381500D02*
X84849000Y-103937000D01*
X84404500Y-104381500D02*
X82690000Y-104381500D01*
X77483000Y-104445000D02*
X82055000Y-104445000D01*
X82055000Y-104445000D02*
X82118500Y-104445000D01*
X73335000Y-102687500D02*
X73335000Y-103302000D01*
X73609500Y-102413000D02*
X73335000Y-102687500D01*
X73843000Y-104826000D02*
X73630000Y-104826000D01*
X73630000Y-104826000D02*
X72360000Y-106096000D01*
X73335000Y-103302000D02*
X73335000Y-104318000D01*
X73335000Y-104318000D02*
X73843000Y-104826000D01*
X73843000Y-104826000D02*
X73843000Y-105842000D01*
X73843000Y-105842000D02*
X74097000Y-106096000D01*
X78803800Y-97494200D02*
X79794400Y-97494200D01*
X79794400Y-97494200D02*
X79819800Y-97468800D01*
X141447736Y-95936000D02*
X140766998Y-95936000D01*
X126799989Y-96276011D02*
X125682310Y-96276011D01*
X142049800Y-95148600D02*
X142049800Y-95301000D01*
X142049800Y-95301000D02*
X141447736Y-95903064D01*
X79702644Y-95983854D02*
X78803800Y-96882698D01*
X130549990Y-95447010D02*
X127882990Y-95447010D01*
X109760002Y-95555000D02*
X101994000Y-95555000D01*
X124653645Y-95247345D02*
X116271655Y-95247345D01*
X141447736Y-95903064D02*
X141447736Y-95936000D01*
X140766998Y-95936000D02*
X139750998Y-94920000D01*
X97085498Y-96444000D02*
X95771000Y-96444000D01*
X116271655Y-95247345D02*
X115583000Y-95936000D01*
X131077000Y-94920000D02*
X130549990Y-95447010D01*
X139750998Y-94920000D02*
X131077000Y-94920000D01*
X101994000Y-95555000D02*
X101359000Y-96190000D01*
X115583000Y-95936000D02*
X112281000Y-95936000D01*
X127882990Y-95447010D02*
X127394000Y-95936000D01*
X101359000Y-96190000D02*
X97339498Y-96190000D01*
X127394000Y-95936000D02*
X127140000Y-95936000D01*
X78803800Y-96882698D02*
X78803800Y-97494200D01*
X127140000Y-95936000D02*
X126799989Y-96276011D01*
X125682310Y-96276011D02*
X124653645Y-95247345D01*
X92850000Y-95936000D02*
X92716522Y-95802522D01*
X112281000Y-95936000D02*
X111773000Y-96444000D01*
X111773000Y-96444000D02*
X110649002Y-96444000D01*
X110649002Y-96444000D02*
X109760002Y-95555000D01*
X97339498Y-96190000D02*
X97085498Y-96444000D01*
X95771000Y-96444000D02*
X95263000Y-95936000D01*
X95263000Y-95936000D02*
X92850000Y-95936000D01*
X92716522Y-95802522D02*
X81484177Y-95802522D01*
X81484177Y-95802522D02*
X81302845Y-95983854D01*
X81302845Y-95983854D02*
X79702644Y-95983854D01*
X69286420Y-99238000D02*
X69286420Y-100736420D01*
X69286420Y-100736420D02*
X69947000Y-101397000D01*
X68001000Y-106223000D02*
X68720000Y-106223000D01*
X68720000Y-106223000D02*
X69609000Y-106223000D01*
X68001000Y-106223000D02*
X67958000Y-106180000D01*
X67153000Y-105588000D02*
X67366000Y-105588000D01*
X66391000Y-105588000D02*
X67153000Y-105588000D01*
X67366000Y-105588000D02*
X67958000Y-106180000D01*
X70160000Y-106096000D02*
X69736000Y-106096000D01*
X69736000Y-106096000D02*
X69609000Y-106223000D01*
X69947000Y-101270000D02*
X70371000Y-101270000D01*
X70371000Y-101270000D02*
X70879000Y-101778000D01*
X72573000Y-101651000D02*
X70328000Y-101651000D01*
X70328000Y-101651000D02*
X69947000Y-101270000D01*
X71958500Y-102476500D02*
X71958500Y-102265500D01*
X71958500Y-102265500D02*
X72573000Y-101651000D01*
X70879000Y-101778000D02*
X72446000Y-101778000D01*
X72446000Y-101778000D02*
X72573000Y-101651000D01*
X71958500Y-102476500D02*
X72573000Y-101862000D01*
X72573000Y-101862000D02*
X72573000Y-101651000D01*
X70160000Y-106096000D02*
X70498000Y-106096000D01*
X70498000Y-106096000D02*
X72403000Y-104191000D01*
X72403000Y-104191000D02*
X72403000Y-101821000D01*
X72403000Y-101821000D02*
X72573000Y-101651000D01*
X72954000Y-100254000D02*
X72954000Y-101270000D01*
X72954000Y-101270000D02*
X72573000Y-101651000D01*
X72954000Y-98984000D02*
X72954000Y-100254000D01*
X173114000Y-98222000D02*
X173114000Y-97942600D01*
X173952200Y-97993400D02*
X173164800Y-97993400D01*
X173114000Y-97942600D02*
X173114000Y-97079000D01*
X173164800Y-97993400D02*
X173114000Y-97942600D01*
X77864000Y-100889000D02*
X78499000Y-100889000D01*
X78499000Y-100889000D02*
X78626000Y-100889000D01*
X78626000Y-100889000D02*
X79769000Y-102032000D01*
X171971000Y-99365000D02*
X173114000Y-98222000D01*
X86627000Y-99365000D02*
X86881000Y-99365000D01*
X171082000Y-95936000D02*
X171209000Y-95809000D01*
X171209000Y-95809000D02*
X172987000Y-95809000D01*
X171971000Y-99365000D02*
X86881000Y-99365000D01*
X86627000Y-99365000D02*
X85611000Y-99365000D01*
X173241000Y-96063000D02*
X172987000Y-95809000D01*
X173241000Y-96952000D02*
X173241000Y-96063000D01*
X173114000Y-97079000D02*
X173241000Y-96952000D01*
X85611000Y-99365000D02*
X85103000Y-99365000D01*
X79769000Y-102032000D02*
X81928000Y-102032000D01*
X81928000Y-102032000D02*
X84595000Y-99365000D01*
X84595000Y-99365000D02*
X85103000Y-99365000D01*
X85611000Y-99365000D02*
X85484000Y-99365000D01*
X82359800Y-97240200D02*
X82359800Y-96469400D01*
X82359800Y-96469400D02*
X82283600Y-96393200D01*
X82385200Y-96240800D02*
X82385200Y-96291600D01*
X82385200Y-96291600D02*
X82283600Y-96393200D01*
X101549500Y-96634500D02*
X97612500Y-96634500D01*
X156350000Y-95936000D02*
X155207000Y-95936000D01*
X155207000Y-95936000D02*
X154572000Y-95301000D01*
X154572000Y-95301000D02*
X142938800Y-95301000D01*
X92646800Y-96367800D02*
X92519800Y-96240800D01*
X132454990Y-95320010D02*
X132347000Y-95428000D01*
X132347000Y-95428000D02*
X131223002Y-95428000D01*
X142938800Y-95301000D02*
X141922800Y-96317000D01*
X141922800Y-96317000D02*
X141719600Y-96317000D01*
X128054400Y-95936000D02*
X127622600Y-96367800D01*
X141719600Y-96317000D02*
X141700590Y-96336010D01*
X139693300Y-95428000D02*
X134633000Y-95428000D01*
X127343200Y-96367800D02*
X127038400Y-96672600D01*
X141700590Y-96336010D02*
X140601309Y-96336010D01*
X110503000Y-96952000D02*
X109614000Y-96063000D01*
X140601309Y-96336010D02*
X139693300Y-95428000D01*
X95580500Y-96888500D02*
X95059800Y-96367800D01*
X134525010Y-95320010D02*
X132454990Y-95320010D01*
X97612500Y-96634500D02*
X97358500Y-96888500D01*
X112408000Y-96444000D02*
X111900000Y-96952000D01*
X124522602Y-95682000D02*
X116402688Y-95682000D01*
X134633000Y-95428000D02*
X134525010Y-95320010D01*
X131223002Y-95428000D02*
X130715002Y-95936000D01*
X116402688Y-95682000D02*
X115640688Y-96444000D01*
X130715002Y-95936000D02*
X128054400Y-95936000D01*
X127622600Y-96367800D02*
X127343200Y-96367800D01*
X102121000Y-96063000D02*
X101549500Y-96634500D01*
X127038400Y-96672600D02*
X127013000Y-96672600D01*
X127013000Y-96672600D02*
X127009579Y-96676021D01*
X127009579Y-96676021D02*
X125516621Y-96676021D01*
X125516621Y-96676021D02*
X124522602Y-95682000D01*
X115640688Y-96444000D02*
X112408000Y-96444000D01*
X111900000Y-96952000D02*
X110503000Y-96952000D01*
X109614000Y-96063000D02*
X102121000Y-96063000D01*
X95059800Y-96367800D02*
X92646800Y-96367800D01*
X97358500Y-96888500D02*
X95580500Y-96888500D01*
X92519800Y-96240800D02*
X82385200Y-96240800D01*
X156350000Y-95936000D02*
X156350000Y-95326400D01*
X156350000Y-95326400D02*
X156680200Y-94996200D01*
X78372000Y-103937000D02*
X77864000Y-103937000D01*
X82436000Y-103746500D02*
X82372500Y-103746500D01*
X82372500Y-103746500D02*
X82182000Y-103937000D01*
X82182000Y-103937000D02*
X78372000Y-103937000D01*
X77864000Y-103937000D02*
X77737000Y-103810000D01*
X74773000Y-101651000D02*
X76086000Y-101651000D01*
X76086000Y-101651000D02*
X76467000Y-102032000D01*
X76467000Y-102032000D02*
X76467000Y-102540000D01*
X76467000Y-102540000D02*
X77737000Y-103810000D01*
X85484000Y-102476500D02*
X84214000Y-103746500D01*
X82436000Y-103746500D02*
X82436000Y-103746500D01*
X82436000Y-103746500D02*
X82436000Y-103746500D01*
X82436000Y-103746500D02*
X82436000Y-103746500D01*
X84214000Y-103746500D02*
X82436000Y-103746500D01*
X85484000Y-102476500D02*
X86246000Y-103238500D01*
X101994000Y-103429000D02*
X87198500Y-103429000D01*
X102502000Y-103937000D02*
X101994000Y-103429000D01*
X116599000Y-103937000D02*
X102502000Y-103937000D01*
X117234000Y-104572000D02*
X116599000Y-103937000D01*
X131077000Y-104572000D02*
X117234000Y-104572000D01*
X86436500Y-103429000D02*
X87198500Y-103429000D01*
X86246000Y-103238500D02*
X86436500Y-103429000D01*
X75154000Y-100254000D02*
X75324000Y-100254000D01*
X75324000Y-100254000D02*
X76975000Y-101905000D01*
X76975000Y-101905000D02*
X76975000Y-102159000D01*
X76975000Y-102159000D02*
X77356000Y-102540000D01*
X77356000Y-102540000D02*
X77864000Y-102540000D01*
X85103000Y-101778000D02*
X83706000Y-103175000D01*
X83706000Y-103175000D02*
X82309000Y-103175000D01*
X82309000Y-103175000D02*
X82055000Y-103429000D01*
X82055000Y-103429000D02*
X79388000Y-103429000D01*
X79388000Y-103429000D02*
X78499000Y-102540000D01*
X78499000Y-102540000D02*
X77864000Y-102540000D01*
X85103000Y-101778000D02*
X85674500Y-101778000D01*
X102248000Y-102921000D02*
X87770000Y-102921000D01*
X102756000Y-103429000D02*
X102248000Y-102921000D01*
X116980000Y-103429000D02*
X102756000Y-103429000D01*
X117488000Y-103937000D02*
X116980000Y-103429000D01*
X131585000Y-103937000D02*
X117488000Y-103937000D01*
X132220000Y-104572000D02*
X131585000Y-103937000D01*
X146190000Y-104572000D02*
X132220000Y-104572000D01*
X86817500Y-102921000D02*
X87770000Y-102921000D01*
X85674500Y-101778000D02*
X86817500Y-102921000D01*
X75154000Y-98984000D02*
X75451000Y-98984000D01*
X75451000Y-98984000D02*
X76213000Y-99746000D01*
X76213000Y-99746000D02*
X76213000Y-100381000D01*
X76213000Y-100381000D02*
X77483000Y-101651000D01*
X77483000Y-101651000D02*
X77610000Y-101651000D01*
X81864500Y-102730500D02*
X79578500Y-102730500D01*
X79578500Y-102730500D02*
X78499000Y-101651000D01*
X78499000Y-101651000D02*
X77610000Y-101651000D01*
X87389000Y-102413000D02*
X87008000Y-102413000D01*
X87008000Y-102413000D02*
X85738000Y-101143000D01*
X85738000Y-101143000D02*
X84849000Y-101143000D01*
X84849000Y-101143000D02*
X83261500Y-102730500D01*
X83261500Y-102730500D02*
X81864500Y-102730500D01*
X160922000Y-104572000D02*
X147333000Y-104572000D01*
X147333000Y-104572000D02*
X146698000Y-103937000D01*
X146698000Y-103937000D02*
X132347000Y-103937000D01*
X132347000Y-103937000D02*
X131839000Y-103429000D01*
X131839000Y-103429000D02*
X117742000Y-103429000D01*
X117742000Y-103429000D02*
X117234000Y-102921000D01*
X117234000Y-102921000D02*
X103010000Y-102921000D01*
X103010000Y-102921000D02*
X102502000Y-102413000D01*
X102502000Y-102413000D02*
X87389000Y-102413000D01*
X57417000Y-95174000D02*
X56528000Y-95174000D01*
X63005000Y-95428000D02*
X62751000Y-95174000D01*
X62751000Y-95174000D02*
X57417000Y-95174000D01*
X65773600Y-97561600D02*
X65646600Y-97561600D01*
X63767000Y-96190000D02*
X63513000Y-95936000D01*
X64275000Y-96190000D02*
X63767000Y-96190000D01*
X65646600Y-97561600D02*
X64275000Y-96190000D01*
X63513000Y-95936000D02*
X63005000Y-95428000D01*
X49263600Y-100000000D02*
X48374600Y-100889000D01*
X49263600Y-99568200D02*
X49263600Y-100000000D01*
X49568400Y-99263400D02*
X49263600Y-99568200D01*
X49568400Y-98145800D02*
X49568400Y-99263400D01*
X50101800Y-97612400D02*
X49568400Y-98145800D01*
X54089600Y-97612400D02*
X50101800Y-97612400D01*
X54750000Y-96952000D02*
X54089600Y-97612400D01*
X54750000Y-96444000D02*
X54750000Y-96952000D01*
X56020000Y-95174000D02*
X54750000Y-96444000D01*
X56528000Y-95174000D02*
X56020000Y-95174000D01*
X48374600Y-100889000D02*
X48273000Y-100889000D01*
X48527000Y-100889000D02*
X48273000Y-100889000D01*
X52210000Y-97206000D02*
X49924000Y-97206000D01*
X53861000Y-97206000D02*
X52210000Y-97206000D01*
X54242000Y-96748799D02*
X54242000Y-96825000D01*
X54242000Y-96825000D02*
X53861000Y-97206000D01*
X49162000Y-98984000D02*
X48527000Y-99619000D01*
X49162000Y-98349000D02*
X49162000Y-98730000D01*
X49162000Y-98730000D02*
X49162000Y-98984000D01*
X49162000Y-97968000D02*
X49162000Y-98349000D01*
X49924000Y-97206000D02*
X49162000Y-97968000D01*
X48527000Y-99619000D02*
X48273000Y-99619000D01*
X54208382Y-96768970D02*
X54242000Y-96748799D01*
X66510248Y-96158250D02*
X66287998Y-95936000D01*
X66287998Y-95936000D02*
X65672000Y-95936000D01*
X65672000Y-95936000D02*
X65418000Y-95682000D01*
X65418000Y-95682000D02*
X63894000Y-95682000D01*
X63894000Y-95682000D02*
X62878000Y-94666000D01*
X62878000Y-94666000D02*
X55766000Y-94666000D01*
X55766000Y-94666000D02*
X54242000Y-96190000D01*
X54242000Y-96748799D02*
X54208382Y-96768970D01*
X54242000Y-96190000D02*
X54242000Y-96748799D01*
X68720000Y-97777500D02*
X68212000Y-97777500D01*
X68212000Y-97777500D02*
X66592750Y-96158250D01*
X66592750Y-96158250D02*
X66510248Y-96158250D01*
X57544000Y-95682000D02*
X56121600Y-95682000D01*
X62624000Y-95682000D02*
X57544000Y-95682000D01*
X63640000Y-96698000D02*
X62624000Y-95682000D01*
X64021000Y-96698000D02*
X63640000Y-96698000D01*
X65545000Y-98222000D02*
X64021000Y-96698000D01*
X49695400Y-100203200D02*
X49289000Y-100609600D01*
X49695400Y-99746000D02*
X49695400Y-100203200D01*
X50025600Y-99415800D02*
X49695400Y-99746000D01*
X50025600Y-98323600D02*
X50025600Y-99415800D01*
X50314256Y-98034944D02*
X50025600Y-98323600D01*
X54276656Y-98034944D02*
X50314256Y-98034944D01*
X55207200Y-97104400D02*
X54276656Y-98034944D01*
X55207200Y-96596400D02*
X55207200Y-97104400D01*
X56121600Y-95682000D02*
X55207200Y-96596400D01*
X66383200Y-98069600D02*
X66078400Y-98069600D01*
X65926000Y-98222000D02*
X65545000Y-98222000D01*
X66078400Y-98069600D02*
X65926000Y-98222000D01*
X49289000Y-101320800D02*
X48450800Y-102159000D01*
X49289000Y-100609600D02*
X49289000Y-101320800D01*
X48450800Y-102159000D02*
X48273000Y-102159000D01*
X48400000Y-102159000D02*
X48273000Y-102159000D01*
X55359600Y-94310400D02*
X55359600Y-94304002D01*
X65545000Y-95174000D02*
X65799000Y-95428000D01*
X65799000Y-95428000D02*
X66561000Y-95428000D01*
X66561000Y-95428000D02*
X68085000Y-96952000D01*
X68085000Y-96952000D02*
X69228000Y-96952000D01*
X69228000Y-96952000D02*
X70180500Y-97904500D01*
X70180500Y-97904500D02*
X70180500Y-98793500D01*
X64148000Y-95174000D02*
X65037000Y-95174000D01*
X63360600Y-94386600D02*
X64148000Y-95174000D01*
X65037000Y-95174000D02*
X65545000Y-95174000D01*
X63208200Y-94234200D02*
X63360600Y-94386600D01*
X55429402Y-94234200D02*
X63208200Y-94234200D01*
X55359600Y-94304002D02*
X55429402Y-94234200D01*
X53480000Y-95428000D02*
X52591000Y-94539000D01*
X53480000Y-95428000D02*
X54242000Y-95428000D01*
X54242000Y-95428000D02*
X55359600Y-94310400D01*
X55359600Y-94310400D02*
X55385000Y-94285000D01*
X52591000Y-94412000D02*
X52591000Y-94539000D01*
X41862000Y-104506000D02*
X42431000Y-103937000D01*
X42431000Y-103937000D02*
X42711000Y-103937000D01*
X41862000Y-105842000D02*
X41862000Y-104506000D01*
X41923000Y-103937000D02*
X42711000Y-103937000D01*
X39881000Y-100498000D02*
X39108000Y-100498000D01*
X40526000Y-101143000D02*
X39881000Y-100498000D01*
X40526000Y-102794000D02*
X40526000Y-101143000D01*
X41669000Y-103937000D02*
X40526000Y-102794000D01*
X42711000Y-103937000D02*
X41669000Y-103937000D01*
X42492000Y-104156000D02*
X42711000Y-103937000D01*
X44590000Y-104826000D02*
X44590000Y-105014000D01*
X43066000Y-96317000D02*
X44590000Y-97841000D01*
X44590000Y-104826000D02*
X44590000Y-97841000D01*
X44590000Y-105014000D02*
X43762000Y-105842000D01*
X43762000Y-105842000D02*
X43447000Y-105842000D01*
X43447000Y-105842000D02*
X42685000Y-106604000D01*
X42685000Y-106604000D02*
X41161000Y-106604000D01*
X41161000Y-106604000D02*
X40907000Y-106350000D01*
X40907000Y-106350000D02*
X40907000Y-103810000D01*
X40907000Y-103810000D02*
X39108000Y-102011000D01*
X39108000Y-102011000D02*
X39108000Y-101748000D01*
X43066000Y-96317000D02*
X42711000Y-96317000D01*
X45987000Y-100127000D02*
X46749000Y-100889000D01*
X45987000Y-97841000D02*
X45987000Y-100127000D01*
X44971000Y-96825000D02*
X45987000Y-97841000D01*
X46749000Y-100889000D02*
X47003000Y-100889000D01*
X60084000Y-104191000D02*
X62436000Y-104191000D01*
X62436000Y-104191000D02*
X62497000Y-104130000D01*
X64191000Y-105588000D02*
X62939000Y-105588000D01*
X62939000Y-105588000D02*
X62497000Y-106030000D01*
X80632600Y-98102800D02*
X80642664Y-98102800D01*
X80642664Y-98102800D02*
X80658000Y-98087464D01*
X80658000Y-98087464D02*
X80658000Y-97663200D01*
X80166600Y-98568800D02*
X80632600Y-98102800D01*
X79819800Y-98568800D02*
X80166600Y-98568800D01*
X80658000Y-97663200D02*
X80658000Y-97714000D01*
X82359800Y-98340200D02*
X82046200Y-98340200D01*
X82046200Y-98340200D02*
X81470800Y-97764800D01*
X81470800Y-97655200D02*
X81470800Y-97764800D01*
X78803800Y-98594200D02*
X77940200Y-97730600D01*
X77940200Y-97730600D02*
X77940200Y-97451300D01*
X77940200Y-97451300D02*
X77940200Y-97460000D01*
D34*
G36*
X169177000Y-99925606D02*
X169177000Y-101397000D01*
X163589000Y-101397000D01*
X163540399Y-101406667D01*
X163499197Y-101434197D01*
X163471667Y-101475399D01*
X163462000Y-101524000D01*
X163462000Y-103683000D01*
X160078890Y-103683000D01*
X160079118Y-103421135D01*
X159975661Y-103170748D01*
X159784259Y-102979013D01*
X159534054Y-102875118D01*
X159263135Y-102874882D01*
X159012748Y-102978339D01*
X158821013Y-103169741D01*
X158717118Y-103419946D01*
X158716889Y-103683000D01*
X147159592Y-103683000D01*
X147055796Y-103579204D01*
X146891638Y-103469517D01*
X146698000Y-103431000D01*
X145424076Y-103431000D01*
X145473882Y-103311054D01*
X145474118Y-103040135D01*
X145370661Y-102789748D01*
X145179259Y-102598013D01*
X144929054Y-102494118D01*
X144658135Y-102493882D01*
X144407748Y-102597339D01*
X144216013Y-102788741D01*
X144112118Y-103038946D01*
X144111882Y-103309865D01*
X144161934Y-103431000D01*
X132782606Y-103431000D01*
X132182803Y-102831197D01*
X132141601Y-102803667D01*
X132093000Y-102794000D01*
X130170390Y-102794000D01*
X130170618Y-102532135D01*
X130067161Y-102281748D01*
X129875759Y-102090013D01*
X129625554Y-101986118D01*
X129354635Y-101985882D01*
X129104248Y-102089339D01*
X128912513Y-102280741D01*
X128808618Y-102530946D01*
X128808389Y-102794000D01*
X118048606Y-102794000D01*
X117704803Y-102450197D01*
X117663601Y-102422667D01*
X117615000Y-102413000D01*
X116188538Y-102413000D01*
X116263882Y-102231554D01*
X116264118Y-101960635D01*
X116160661Y-101710248D01*
X115969259Y-101518513D01*
X115719054Y-101414618D01*
X115448135Y-101414382D01*
X115197748Y-101517839D01*
X115006013Y-101709241D01*
X114902118Y-101959446D01*
X114901882Y-102230365D01*
X114977345Y-102413000D01*
X103824606Y-102413000D01*
X103099803Y-101688197D01*
X103058601Y-101660667D01*
X103010000Y-101651000D01*
X101912890Y-101651000D01*
X101913118Y-101389135D01*
X101809661Y-101138748D01*
X101618259Y-100947013D01*
X101368054Y-100843118D01*
X101097135Y-100842882D01*
X100846748Y-100946339D01*
X100655013Y-101137741D01*
X100551118Y-101387946D01*
X100550889Y-101651000D01*
X87319031Y-101651000D01*
X86340921Y-100550626D01*
X86301407Y-100520724D01*
X86246000Y-100508000D01*
X85453845Y-100508000D01*
X85453918Y-100423935D01*
X85350461Y-100173548D01*
X85230000Y-100052877D01*
X85230000Y-99925606D01*
X85284606Y-99871000D01*
X169122394Y-99871000D01*
X169177000Y-99925606D01*
X169177000Y-99925606D01*
G37*
X169177000Y-99925606D02*
X169177000Y-101397000D01*
X163589000Y-101397000D01*
X163540399Y-101406667D01*
X163499197Y-101434197D01*
X163471667Y-101475399D01*
X163462000Y-101524000D01*
X163462000Y-103683000D01*
X160078890Y-103683000D01*
X160079118Y-103421135D01*
X159975661Y-103170748D01*
X159784259Y-102979013D01*
X159534054Y-102875118D01*
X159263135Y-102874882D01*
X159012748Y-102978339D01*
X158821013Y-103169741D01*
X158717118Y-103419946D01*
X158716889Y-103683000D01*
X147159592Y-103683000D01*
X147055796Y-103579204D01*
X146891638Y-103469517D01*
X146698000Y-103431000D01*
X145424076Y-103431000D01*
X145473882Y-103311054D01*
X145474118Y-103040135D01*
X145370661Y-102789748D01*
X145179259Y-102598013D01*
X144929054Y-102494118D01*
X144658135Y-102493882D01*
X144407748Y-102597339D01*
X144216013Y-102788741D01*
X144112118Y-103038946D01*
X144111882Y-103309865D01*
X144161934Y-103431000D01*
X132782606Y-103431000D01*
X132182803Y-102831197D01*
X132141601Y-102803667D01*
X132093000Y-102794000D01*
X130170390Y-102794000D01*
X130170618Y-102532135D01*
X130067161Y-102281748D01*
X129875759Y-102090013D01*
X129625554Y-101986118D01*
X129354635Y-101985882D01*
X129104248Y-102089339D01*
X128912513Y-102280741D01*
X128808618Y-102530946D01*
X128808389Y-102794000D01*
X118048606Y-102794000D01*
X117704803Y-102450197D01*
X117663601Y-102422667D01*
X117615000Y-102413000D01*
X116188538Y-102413000D01*
X116263882Y-102231554D01*
X116264118Y-101960635D01*
X116160661Y-101710248D01*
X115969259Y-101518513D01*
X115719054Y-101414618D01*
X115448135Y-101414382D01*
X115197748Y-101517839D01*
X115006013Y-101709241D01*
X114902118Y-101959446D01*
X114901882Y-102230365D01*
X114977345Y-102413000D01*
X103824606Y-102413000D01*
X103099803Y-101688197D01*
X103058601Y-101660667D01*
X103010000Y-101651000D01*
X101912890Y-101651000D01*
X101913118Y-101389135D01*
X101809661Y-101138748D01*
X101618259Y-100947013D01*
X101368054Y-100843118D01*
X101097135Y-100842882D01*
X100846748Y-100946339D01*
X100655013Y-101137741D01*
X100551118Y-101387946D01*
X100550889Y-101651000D01*
X87319031Y-101651000D01*
X86340921Y-100550626D01*
X86301407Y-100520724D01*
X86246000Y-100508000D01*
X85453845Y-100508000D01*
X85453918Y-100423935D01*
X85350461Y-100173548D01*
X85230000Y-100052877D01*
X85230000Y-99925606D01*
X85284606Y-99871000D01*
X169122394Y-99871000D01*
X169177000Y-99925606D01*
G36*
X169177000Y-97589000D02*
X157696123Y-97589000D01*
X157625259Y-97518013D01*
X157375054Y-97414118D01*
X157104135Y-97413882D01*
X156853748Y-97517339D01*
X156781962Y-97589000D01*
X143027623Y-97589000D01*
X142956759Y-97518013D01*
X142706554Y-97414118D01*
X142435635Y-97413882D01*
X142185248Y-97517339D01*
X142113462Y-97589000D01*
X128295623Y-97589000D01*
X128224759Y-97518013D01*
X127974554Y-97414118D01*
X127703635Y-97413882D01*
X127453248Y-97517339D01*
X127381462Y-97589000D01*
X113500123Y-97589000D01*
X113429259Y-97518013D01*
X113179054Y-97414118D01*
X112908135Y-97413882D01*
X112657748Y-97517339D01*
X112585962Y-97589000D01*
X98768123Y-97589000D01*
X98697259Y-97518013D01*
X98447054Y-97414118D01*
X98176135Y-97413882D01*
X97925748Y-97517339D01*
X97853962Y-97589000D01*
X86627000Y-97589000D01*
X86627000Y-96877606D01*
X86757806Y-96746800D01*
X92320738Y-96746800D01*
X92373345Y-96781951D01*
X92379197Y-96787803D01*
X92420399Y-96815333D01*
X92424536Y-96816156D01*
X92453162Y-96835283D01*
X92646800Y-96873800D01*
X94850208Y-96873800D01*
X95222704Y-97246296D01*
X95386862Y-97355983D01*
X95580500Y-97394500D01*
X97358500Y-97394500D01*
X97552138Y-97355983D01*
X97716296Y-97246296D01*
X97822092Y-97140500D01*
X101549500Y-97140500D01*
X101743138Y-97101983D01*
X101907296Y-96992296D01*
X101947592Y-96952000D01*
X102121000Y-96952000D01*
X102169601Y-96942333D01*
X102210803Y-96914803D01*
X102556606Y-96569000D01*
X109404408Y-96569000D01*
X110145204Y-97309796D01*
X110309362Y-97419483D01*
X110503000Y-97458000D01*
X111900000Y-97458000D01*
X112093638Y-97419483D01*
X112257796Y-97309796D01*
X112615592Y-96952000D01*
X115837000Y-96952000D01*
X115885601Y-96942333D01*
X115926803Y-96914803D01*
X116651606Y-96190000D01*
X124315010Y-96190000D01*
X125158825Y-97033817D01*
X125322983Y-97143504D01*
X125516621Y-97182021D01*
X127009579Y-97182021D01*
X127026778Y-97178600D01*
X127038400Y-97178600D01*
X127232038Y-97140083D01*
X127396196Y-97030396D01*
X127552792Y-96873800D01*
X127622600Y-96873800D01*
X127816238Y-96835283D01*
X127980396Y-96725596D01*
X128263992Y-96442000D01*
X130715002Y-96442000D01*
X130908640Y-96403483D01*
X131072798Y-96293796D01*
X131430594Y-95936000D01*
X139485708Y-95936000D01*
X140243513Y-96693806D01*
X140407671Y-96803493D01*
X140601308Y-96842010D01*
X141700590Y-96842010D01*
X141796160Y-96823000D01*
X141922800Y-96823000D01*
X142116438Y-96784483D01*
X142280596Y-96674796D01*
X143146392Y-95809000D01*
X154364408Y-95809000D01*
X154849204Y-96293796D01*
X155013362Y-96403483D01*
X155207000Y-96442000D01*
X155892877Y-96442000D01*
X155963741Y-96512987D01*
X156213946Y-96616882D01*
X156484865Y-96617118D01*
X156735252Y-96513661D01*
X156926987Y-96322259D01*
X156929171Y-96317000D01*
X157747000Y-96317000D01*
X157795601Y-96307333D01*
X157836803Y-96279803D01*
X158942606Y-95174000D01*
X160414000Y-95174000D01*
X160462601Y-95164333D01*
X160503803Y-95136803D01*
X161482606Y-94158000D01*
X169177000Y-94158000D01*
X169177000Y-97589000D01*
X169177000Y-97589000D01*
G37*
X169177000Y-97589000D02*
X157696123Y-97589000D01*
X157625259Y-97518013D01*
X157375054Y-97414118D01*
X157104135Y-97413882D01*
X156853748Y-97517339D01*
X156781962Y-97589000D01*
X143027623Y-97589000D01*
X142956759Y-97518013D01*
X142706554Y-97414118D01*
X142435635Y-97413882D01*
X142185248Y-97517339D01*
X142113462Y-97589000D01*
X128295623Y-97589000D01*
X128224759Y-97518013D01*
X127974554Y-97414118D01*
X127703635Y-97413882D01*
X127453248Y-97517339D01*
X127381462Y-97589000D01*
X113500123Y-97589000D01*
X113429259Y-97518013D01*
X113179054Y-97414118D01*
X112908135Y-97413882D01*
X112657748Y-97517339D01*
X112585962Y-97589000D01*
X98768123Y-97589000D01*
X98697259Y-97518013D01*
X98447054Y-97414118D01*
X98176135Y-97413882D01*
X97925748Y-97517339D01*
X97853962Y-97589000D01*
X86627000Y-97589000D01*
X86627000Y-96877606D01*
X86757806Y-96746800D01*
X92320738Y-96746800D01*
X92373345Y-96781951D01*
X92379197Y-96787803D01*
X92420399Y-96815333D01*
X92424536Y-96816156D01*
X92453162Y-96835283D01*
X92646800Y-96873800D01*
X94850208Y-96873800D01*
X95222704Y-97246296D01*
X95386862Y-97355983D01*
X95580500Y-97394500D01*
X97358500Y-97394500D01*
X97552138Y-97355983D01*
X97716296Y-97246296D01*
X97822092Y-97140500D01*
X101549500Y-97140500D01*
X101743138Y-97101983D01*
X101907296Y-96992296D01*
X101947592Y-96952000D01*
X102121000Y-96952000D01*
X102169601Y-96942333D01*
X102210803Y-96914803D01*
X102556606Y-96569000D01*
X109404408Y-96569000D01*
X110145204Y-97309796D01*
X110309362Y-97419483D01*
X110503000Y-97458000D01*
X111900000Y-97458000D01*
X112093638Y-97419483D01*
X112257796Y-97309796D01*
X112615592Y-96952000D01*
X115837000Y-96952000D01*
X115885601Y-96942333D01*
X115926803Y-96914803D01*
X116651606Y-96190000D01*
X124315010Y-96190000D01*
X125158825Y-97033817D01*
X125322983Y-97143504D01*
X125516621Y-97182021D01*
X127009579Y-97182021D01*
X127026778Y-97178600D01*
X127038400Y-97178600D01*
X127232038Y-97140083D01*
X127396196Y-97030396D01*
X127552792Y-96873800D01*
X127622600Y-96873800D01*
X127816238Y-96835283D01*
X127980396Y-96725596D01*
X128263992Y-96442000D01*
X130715002Y-96442000D01*
X130908640Y-96403483D01*
X131072798Y-96293796D01*
X131430594Y-95936000D01*
X139485708Y-95936000D01*
X140243513Y-96693806D01*
X140407671Y-96803493D01*
X140601308Y-96842010D01*
X141700590Y-96842010D01*
X141796160Y-96823000D01*
X141922800Y-96823000D01*
X142116438Y-96784483D01*
X142280596Y-96674796D01*
X143146392Y-95809000D01*
X154364408Y-95809000D01*
X154849204Y-96293796D01*
X155013362Y-96403483D01*
X155207000Y-96442000D01*
X155892877Y-96442000D01*
X155963741Y-96512987D01*
X156213946Y-96616882D01*
X156484865Y-96617118D01*
X156735252Y-96513661D01*
X156926987Y-96322259D01*
X156929171Y-96317000D01*
X157747000Y-96317000D01*
X157795601Y-96307333D01*
X157836803Y-96279803D01*
X158942606Y-95174000D01*
X160414000Y-95174000D01*
X160462601Y-95164333D01*
X160503803Y-95136803D01*
X161482606Y-94158000D01*
X169177000Y-94158000D01*
X169177000Y-97589000D01*
G36*
X161250394Y-93650000D02*
X160996394Y-93904000D01*
X159917364Y-93904000D01*
X159887442Y-93831583D01*
X159725271Y-93669129D01*
X159513276Y-93581100D01*
X159283731Y-93580900D01*
X159071583Y-93668558D01*
X158909129Y-93830729D01*
X158878704Y-93904000D01*
X154677576Y-93904000D01*
X154572000Y-93883000D01*
X145428000Y-93883000D01*
X145322424Y-93904000D01*
X145185364Y-93904000D01*
X145155442Y-93831583D01*
X144993271Y-93669129D01*
X144781276Y-93581100D01*
X144551731Y-93580900D01*
X144339583Y-93668558D01*
X144177129Y-93830729D01*
X144146704Y-93904000D01*
X144047574Y-93904000D01*
X143941998Y-93883000D01*
X141364000Y-93883000D01*
X141258424Y-93904000D01*
X130241954Y-93904000D01*
X130134271Y-93796129D01*
X129922276Y-93708100D01*
X129692731Y-93707900D01*
X129480583Y-93795558D01*
X129371952Y-93904000D01*
X115383065Y-93904000D01*
X115338771Y-93859629D01*
X115126776Y-93771600D01*
X114897231Y-93771400D01*
X114685083Y-93859058D01*
X114640063Y-93904000D01*
X112969954Y-93904000D01*
X112862271Y-93796129D01*
X112650276Y-93708100D01*
X112420731Y-93707900D01*
X112208583Y-93795558D01*
X112120988Y-93883000D01*
X101486000Y-93883000D01*
X101380424Y-93904000D01*
X100735364Y-93904000D01*
X100705442Y-93831583D01*
X100543271Y-93669129D01*
X100331276Y-93581100D01*
X100101731Y-93580900D01*
X99889583Y-93668558D01*
X99727129Y-93830729D01*
X99696704Y-93904000D01*
X98385864Y-93904000D01*
X98355942Y-93831583D01*
X98193771Y-93669129D01*
X97981776Y-93581100D01*
X97752231Y-93580900D01*
X97540083Y-93668558D01*
X97452488Y-93756000D01*
X95009000Y-93756000D01*
X94855161Y-93786600D01*
X94724743Y-93873743D01*
X94715486Y-93883000D01*
X93905514Y-93883000D01*
X93896257Y-93873743D01*
X93765839Y-93786600D01*
X93612000Y-93756000D01*
X75895500Y-93756000D01*
X75741661Y-93786600D01*
X75611243Y-93873743D01*
X75328341Y-94156645D01*
X75198395Y-94155217D01*
X75149691Y-94164349D01*
X75108190Y-94191425D01*
X75080208Y-94232322D01*
X75070000Y-94282209D01*
X75070000Y-94414986D01*
X74818986Y-94666000D01*
X69330349Y-94666000D01*
X69398500Y-94501876D01*
X69398700Y-94272331D01*
X69311042Y-94060183D01*
X69148871Y-93897729D01*
X68936876Y-93809700D01*
X68707331Y-93809500D01*
X68495183Y-93897158D01*
X68332729Y-94059329D01*
X68244700Y-94271324D01*
X68244500Y-94500869D01*
X68312731Y-94666000D01*
X68272514Y-94666000D01*
X68242257Y-94635743D01*
X68111839Y-94548600D01*
X67958000Y-94518000D01*
X66086702Y-94518000D01*
X65950445Y-94381743D01*
X65820027Y-94294600D01*
X65666188Y-94264000D01*
X65442108Y-94264000D01*
X65576671Y-94129671D01*
X65664700Y-93917676D01*
X65664900Y-93688131D01*
X65577242Y-93475983D01*
X65468449Y-93367000D01*
X160967394Y-93367000D01*
X161250394Y-93650000D01*
X161250394Y-93650000D01*
G37*
X161250394Y-93650000D02*
X160996394Y-93904000D01*
X159917364Y-93904000D01*
X159887442Y-93831583D01*
X159725271Y-93669129D01*
X159513276Y-93581100D01*
X159283731Y-93580900D01*
X159071583Y-93668558D01*
X158909129Y-93830729D01*
X158878704Y-93904000D01*
X154677576Y-93904000D01*
X154572000Y-93883000D01*
X145428000Y-93883000D01*
X145322424Y-93904000D01*
X145185364Y-93904000D01*
X145155442Y-93831583D01*
X144993271Y-93669129D01*
X144781276Y-93581100D01*
X144551731Y-93580900D01*
X144339583Y-93668558D01*
X144177129Y-93830729D01*
X144146704Y-93904000D01*
X144047574Y-93904000D01*
X143941998Y-93883000D01*
X141364000Y-93883000D01*
X141258424Y-93904000D01*
X130241954Y-93904000D01*
X130134271Y-93796129D01*
X129922276Y-93708100D01*
X129692731Y-93707900D01*
X129480583Y-93795558D01*
X129371952Y-93904000D01*
X115383065Y-93904000D01*
X115338771Y-93859629D01*
X115126776Y-93771600D01*
X114897231Y-93771400D01*
X114685083Y-93859058D01*
X114640063Y-93904000D01*
X112969954Y-93904000D01*
X112862271Y-93796129D01*
X112650276Y-93708100D01*
X112420731Y-93707900D01*
X112208583Y-93795558D01*
X112120988Y-93883000D01*
X101486000Y-93883000D01*
X101380424Y-93904000D01*
X100735364Y-93904000D01*
X100705442Y-93831583D01*
X100543271Y-93669129D01*
X100331276Y-93581100D01*
X100101731Y-93580900D01*
X99889583Y-93668558D01*
X99727129Y-93830729D01*
X99696704Y-93904000D01*
X98385864Y-93904000D01*
X98355942Y-93831583D01*
X98193771Y-93669129D01*
X97981776Y-93581100D01*
X97752231Y-93580900D01*
X97540083Y-93668558D01*
X97452488Y-93756000D01*
X95009000Y-93756000D01*
X94855161Y-93786600D01*
X94724743Y-93873743D01*
X94715486Y-93883000D01*
X93905514Y-93883000D01*
X93896257Y-93873743D01*
X93765839Y-93786600D01*
X93612000Y-93756000D01*
X75895500Y-93756000D01*
X75741661Y-93786600D01*
X75611243Y-93873743D01*
X75328341Y-94156645D01*
X75198395Y-94155217D01*
X75149691Y-94164349D01*
X75108190Y-94191425D01*
X75080208Y-94232322D01*
X75070000Y-94282209D01*
X75070000Y-94414986D01*
X74818986Y-94666000D01*
X69330349Y-94666000D01*
X69398500Y-94501876D01*
X69398700Y-94272331D01*
X69311042Y-94060183D01*
X69148871Y-93897729D01*
X68936876Y-93809700D01*
X68707331Y-93809500D01*
X68495183Y-93897158D01*
X68332729Y-94059329D01*
X68244700Y-94271324D01*
X68244500Y-94500869D01*
X68312731Y-94666000D01*
X68272514Y-94666000D01*
X68242257Y-94635743D01*
X68111839Y-94548600D01*
X67958000Y-94518000D01*
X66086702Y-94518000D01*
X65950445Y-94381743D01*
X65820027Y-94294600D01*
X65666188Y-94264000D01*
X65442108Y-94264000D01*
X65576671Y-94129671D01*
X65664700Y-93917676D01*
X65664900Y-93688131D01*
X65577242Y-93475983D01*
X65468449Y-93367000D01*
X160967394Y-93367000D01*
X161250394Y-93650000D01*
G36*
X60180528Y-100411965D02*
X60132510Y-100508000D01*
X56707606Y-100508000D01*
X56528000Y-100328394D01*
X56528000Y-99619000D01*
X59274282Y-99619000D01*
X60180528Y-100411965D01*
X60180528Y-100411965D01*
G37*
X60180528Y-100411965D02*
X60132510Y-100508000D01*
X56707606Y-100508000D01*
X56528000Y-100328394D01*
X56528000Y-99619000D01*
X59274282Y-99619000D01*
X60180528Y-100411965D01*
G36*
X56528000Y-104243606D02*
X56528000Y-106524757D01*
X54242000Y-106479490D01*
X54242000Y-105588000D01*
X54232333Y-105539399D01*
X54204803Y-105498197D01*
X53099000Y-104392394D01*
X53099000Y-103810000D01*
X56094394Y-103810000D01*
X56528000Y-104243606D01*
X56528000Y-104243606D01*
G37*
X56528000Y-104243606D02*
X56528000Y-106524757D01*
X54242000Y-106479490D01*
X54242000Y-105588000D01*
X54232333Y-105539399D01*
X54204803Y-105498197D01*
X53099000Y-104392394D01*
X53099000Y-103810000D01*
X56094394Y-103810000D01*
X56528000Y-104243606D01*
M02*
